G04 #@! TF.GenerationSoftware,KiCad,Pcbnew,(5.1.5)-3*
G04 #@! TF.CreationDate,2020-04-09T15:05:06+03:00*
G04 #@! TF.ProjectId,DCDimmer,44434469-6d6d-4657-922e-6b696361645f,rev?*
G04 #@! TF.SameCoordinates,Original*
G04 #@! TF.FileFunction,Legend,Top*
G04 #@! TF.FilePolarity,Positive*
%FSLAX46Y46*%
G04 Gerber Fmt 4.6, Leading zero omitted, Abs format (unit mm)*
G04 Created by KiCad (PCBNEW (5.1.5)-3) date 2020-04-09 15:05:06*
%MOMM*%
%LPD*%
G04 APERTURE LIST*
%ADD10C,0.150000*%
%ADD11C,0.120000*%
%ADD12C,0.254000*%
%ADD13C,0.127000*%
%ADD14C,0.152400*%
G04 APERTURE END LIST*
D10*
X118265714Y-92725142D02*
X118822857Y-92725142D01*
X118522857Y-93068000D01*
X118651428Y-93068000D01*
X118737142Y-93110857D01*
X118780000Y-93153714D01*
X118822857Y-93239428D01*
X118822857Y-93453714D01*
X118780000Y-93539428D01*
X118737142Y-93582285D01*
X118651428Y-93625142D01*
X118394285Y-93625142D01*
X118308571Y-93582285D01*
X118265714Y-93539428D01*
X119080000Y-92725142D02*
X119380000Y-93625142D01*
X119680000Y-92725142D01*
X119894285Y-92725142D02*
X120451428Y-92725142D01*
X120151428Y-93068000D01*
X120280000Y-93068000D01*
X120365714Y-93110857D01*
X120408571Y-93153714D01*
X120451428Y-93239428D01*
X120451428Y-93453714D01*
X120408571Y-93539428D01*
X120365714Y-93582285D01*
X120280000Y-93625142D01*
X120022857Y-93625142D01*
X119937142Y-93582285D01*
X119894285Y-93539428D01*
X115166000Y-93625142D02*
X114866000Y-93196571D01*
X114651714Y-93625142D02*
X114651714Y-92725142D01*
X114994571Y-92725142D01*
X115080285Y-92768000D01*
X115123142Y-92810857D01*
X115166000Y-92896571D01*
X115166000Y-93025142D01*
X115123142Y-93110857D01*
X115080285Y-93153714D01*
X114994571Y-93196571D01*
X114651714Y-93196571D01*
X115466000Y-92725142D02*
X116066000Y-93625142D01*
X116066000Y-92725142D02*
X115466000Y-93625142D01*
X111836285Y-92725142D02*
X112350571Y-92725142D01*
X112093428Y-93625142D02*
X112093428Y-92725142D01*
X112564857Y-92725142D02*
X113164857Y-93625142D01*
X113164857Y-92725142D02*
X112564857Y-93625142D01*
X108026285Y-92768000D02*
X107940571Y-92725142D01*
X107812000Y-92725142D01*
X107683428Y-92768000D01*
X107597714Y-92853714D01*
X107554857Y-92939428D01*
X107512000Y-93110857D01*
X107512000Y-93239428D01*
X107554857Y-93410857D01*
X107597714Y-93496571D01*
X107683428Y-93582285D01*
X107812000Y-93625142D01*
X107897714Y-93625142D01*
X108026285Y-93582285D01*
X108069142Y-93539428D01*
X108069142Y-93239428D01*
X107897714Y-93239428D01*
X108454857Y-93625142D02*
X108454857Y-92725142D01*
X108969142Y-93625142D01*
X108969142Y-92725142D01*
X109397714Y-93625142D02*
X109397714Y-92725142D01*
X109612000Y-92725142D01*
X109740571Y-92768000D01*
X109826285Y-92853714D01*
X109869142Y-92939428D01*
X109912000Y-93110857D01*
X109912000Y-93239428D01*
X109869142Y-93410857D01*
X109826285Y-93496571D01*
X109740571Y-93582285D01*
X109612000Y-93625142D01*
X109397714Y-93625142D01*
X102924285Y-80925142D02*
X102924285Y-80025142D01*
X103267142Y-80025142D01*
X103352857Y-80068000D01*
X103395714Y-80110857D01*
X103438571Y-80196571D01*
X103438571Y-80325142D01*
X103395714Y-80410857D01*
X103352857Y-80453714D01*
X103267142Y-80496571D01*
X102924285Y-80496571D01*
X103738571Y-80025142D02*
X103952857Y-80925142D01*
X104124285Y-80282285D01*
X104295714Y-80925142D01*
X104510000Y-80025142D01*
X105367142Y-80925142D02*
X105067142Y-80496571D01*
X104852857Y-80925142D02*
X104852857Y-80025142D01*
X105195714Y-80025142D01*
X105281428Y-80068000D01*
X105324285Y-80110857D01*
X105367142Y-80196571D01*
X105367142Y-80325142D01*
X105324285Y-80410857D01*
X105281428Y-80453714D01*
X105195714Y-80496571D01*
X104852857Y-80496571D01*
X106395714Y-80882285D02*
X106524285Y-80925142D01*
X106738571Y-80925142D01*
X106824285Y-80882285D01*
X106867142Y-80839428D01*
X106910000Y-80753714D01*
X106910000Y-80668000D01*
X106867142Y-80582285D01*
X106824285Y-80539428D01*
X106738571Y-80496571D01*
X106567142Y-80453714D01*
X106481428Y-80410857D01*
X106438571Y-80368000D01*
X106395714Y-80282285D01*
X106395714Y-80196571D01*
X106438571Y-80110857D01*
X106481428Y-80068000D01*
X106567142Y-80025142D01*
X106781428Y-80025142D01*
X106910000Y-80068000D01*
X107210000Y-80025142D02*
X107424285Y-80925142D01*
X107595714Y-80282285D01*
X107767142Y-80925142D01*
X107981428Y-80025142D01*
X134950285Y-120200000D02*
X134864571Y-120157142D01*
X134736000Y-120157142D01*
X134607428Y-120200000D01*
X134521714Y-120285714D01*
X134478857Y-120371428D01*
X134436000Y-120542857D01*
X134436000Y-120671428D01*
X134478857Y-120842857D01*
X134521714Y-120928571D01*
X134607428Y-121014285D01*
X134736000Y-121057142D01*
X134821714Y-121057142D01*
X134950285Y-121014285D01*
X134993142Y-120971428D01*
X134993142Y-120671428D01*
X134821714Y-120671428D01*
X135378857Y-121057142D02*
X135378857Y-120157142D01*
X135893142Y-121057142D01*
X135893142Y-120157142D01*
X136321714Y-121057142D02*
X136321714Y-120157142D01*
X136536000Y-120157142D01*
X136664571Y-120200000D01*
X136750285Y-120285714D01*
X136793142Y-120371428D01*
X136836000Y-120542857D01*
X136836000Y-120671428D01*
X136793142Y-120842857D01*
X136750285Y-120928571D01*
X136664571Y-121014285D01*
X136536000Y-121057142D01*
X136321714Y-121057142D01*
X137992000Y-121057142D02*
X137992000Y-120157142D01*
X138292000Y-120800000D01*
X138592000Y-120157142D01*
X138592000Y-121057142D01*
X139192000Y-120157142D02*
X139363428Y-120157142D01*
X139449142Y-120200000D01*
X139534857Y-120285714D01*
X139577714Y-120457142D01*
X139577714Y-120757142D01*
X139534857Y-120928571D01*
X139449142Y-121014285D01*
X139363428Y-121057142D01*
X139192000Y-121057142D01*
X139106285Y-121014285D01*
X139020571Y-120928571D01*
X138977714Y-120757142D01*
X138977714Y-120457142D01*
X139020571Y-120285714D01*
X139106285Y-120200000D01*
X139192000Y-120157142D01*
X139920571Y-121014285D02*
X140049142Y-121057142D01*
X140263428Y-121057142D01*
X140349142Y-121014285D01*
X140392000Y-120971428D01*
X140434857Y-120885714D01*
X140434857Y-120800000D01*
X140392000Y-120714285D01*
X140349142Y-120671428D01*
X140263428Y-120628571D01*
X140092000Y-120585714D01*
X140006285Y-120542857D01*
X139963428Y-120500000D01*
X139920571Y-120414285D01*
X139920571Y-120328571D01*
X139963428Y-120242857D01*
X140006285Y-120200000D01*
X140092000Y-120157142D01*
X140306285Y-120157142D01*
X140434857Y-120200000D01*
X141379714Y-120157142D02*
X141936857Y-120157142D01*
X141636857Y-120500000D01*
X141765428Y-120500000D01*
X141851142Y-120542857D01*
X141894000Y-120585714D01*
X141936857Y-120671428D01*
X141936857Y-120885714D01*
X141894000Y-120971428D01*
X141851142Y-121014285D01*
X141765428Y-121057142D01*
X141508285Y-121057142D01*
X141422571Y-121014285D01*
X141379714Y-120971428D01*
X142194000Y-120157142D02*
X142494000Y-121057142D01*
X142794000Y-120157142D01*
X143008285Y-120157142D02*
X143565428Y-120157142D01*
X143265428Y-120500000D01*
X143394000Y-120500000D01*
X143479714Y-120542857D01*
X143522571Y-120585714D01*
X143565428Y-120671428D01*
X143565428Y-120885714D01*
X143522571Y-120971428D01*
X143479714Y-121014285D01*
X143394000Y-121057142D01*
X143136857Y-121057142D01*
X143051142Y-121014285D01*
X143008285Y-120971428D01*
X141551142Y-114453142D02*
X141551142Y-113553142D01*
X141851142Y-114196000D01*
X142151142Y-113553142D01*
X142151142Y-114453142D01*
X142579714Y-114453142D02*
X142579714Y-113553142D01*
X142965428Y-114410285D02*
X143094000Y-114453142D01*
X143308285Y-114453142D01*
X143394000Y-114410285D01*
X143436857Y-114367428D01*
X143479714Y-114281714D01*
X143479714Y-114196000D01*
X143436857Y-114110285D01*
X143394000Y-114067428D01*
X143308285Y-114024571D01*
X143136857Y-113981714D01*
X143051142Y-113938857D01*
X143008285Y-113896000D01*
X142965428Y-113810285D01*
X142965428Y-113724571D01*
X143008285Y-113638857D01*
X143051142Y-113596000D01*
X143136857Y-113553142D01*
X143351142Y-113553142D01*
X143479714Y-113596000D01*
X138788000Y-114453142D02*
X138488000Y-114024571D01*
X138273714Y-114453142D02*
X138273714Y-113553142D01*
X138616571Y-113553142D01*
X138702285Y-113596000D01*
X138745142Y-113638857D01*
X138788000Y-113724571D01*
X138788000Y-113853142D01*
X138745142Y-113938857D01*
X138702285Y-113981714D01*
X138616571Y-114024571D01*
X138273714Y-114024571D01*
X139088000Y-113553142D02*
X139688000Y-114453142D01*
X139688000Y-113553142D02*
X139088000Y-114453142D01*
X135143142Y-114453142D02*
X134843142Y-114024571D01*
X134628857Y-114453142D02*
X134628857Y-113553142D01*
X134971714Y-113553142D01*
X135057428Y-113596000D01*
X135100285Y-113638857D01*
X135143142Y-113724571D01*
X135143142Y-113853142D01*
X135100285Y-113938857D01*
X135057428Y-113981714D01*
X134971714Y-114024571D01*
X134628857Y-114024571D01*
X135486000Y-114410285D02*
X135614571Y-114453142D01*
X135828857Y-114453142D01*
X135914571Y-114410285D01*
X135957428Y-114367428D01*
X136000285Y-114281714D01*
X136000285Y-114196000D01*
X135957428Y-114110285D01*
X135914571Y-114067428D01*
X135828857Y-114024571D01*
X135657428Y-113981714D01*
X135571714Y-113938857D01*
X135528857Y-113896000D01*
X135486000Y-113810285D01*
X135486000Y-113724571D01*
X135528857Y-113638857D01*
X135571714Y-113596000D01*
X135657428Y-113553142D01*
X135871714Y-113553142D01*
X136000285Y-113596000D01*
X136257428Y-113553142D02*
X136771714Y-113553142D01*
X136514571Y-114453142D02*
X136514571Y-113553142D01*
X126060285Y-119946000D02*
X125974571Y-119903142D01*
X125846000Y-119903142D01*
X125717428Y-119946000D01*
X125631714Y-120031714D01*
X125588857Y-120117428D01*
X125546000Y-120288857D01*
X125546000Y-120417428D01*
X125588857Y-120588857D01*
X125631714Y-120674571D01*
X125717428Y-120760285D01*
X125846000Y-120803142D01*
X125931714Y-120803142D01*
X126060285Y-120760285D01*
X126103142Y-120717428D01*
X126103142Y-120417428D01*
X125931714Y-120417428D01*
X126488857Y-120803142D02*
X126488857Y-119903142D01*
X127003142Y-120803142D01*
X127003142Y-119903142D01*
X127431714Y-120803142D02*
X127431714Y-119903142D01*
X127646000Y-119903142D01*
X127774571Y-119946000D01*
X127860285Y-120031714D01*
X127903142Y-120117428D01*
X127946000Y-120288857D01*
X127946000Y-120417428D01*
X127903142Y-120588857D01*
X127860285Y-120674571D01*
X127774571Y-120760285D01*
X127646000Y-120803142D01*
X127431714Y-120803142D01*
X122583714Y-119903142D02*
X123140857Y-119903142D01*
X122840857Y-120246000D01*
X122969428Y-120246000D01*
X123055142Y-120288857D01*
X123098000Y-120331714D01*
X123140857Y-120417428D01*
X123140857Y-120631714D01*
X123098000Y-120717428D01*
X123055142Y-120760285D01*
X122969428Y-120803142D01*
X122712285Y-120803142D01*
X122626571Y-120760285D01*
X122583714Y-120717428D01*
X123398000Y-119903142D02*
X123698000Y-120803142D01*
X123998000Y-119903142D01*
X124212285Y-119903142D02*
X124769428Y-119903142D01*
X124469428Y-120246000D01*
X124598000Y-120246000D01*
X124683714Y-120288857D01*
X124726571Y-120331714D01*
X124769428Y-120417428D01*
X124769428Y-120631714D01*
X124726571Y-120717428D01*
X124683714Y-120760285D01*
X124598000Y-120803142D01*
X124340857Y-120803142D01*
X124255142Y-120760285D01*
X124212285Y-120717428D01*
X119949142Y-119946000D02*
X119863428Y-119903142D01*
X119734857Y-119903142D01*
X119606285Y-119946000D01*
X119520571Y-120031714D01*
X119477714Y-120117428D01*
X119434857Y-120288857D01*
X119434857Y-120417428D01*
X119477714Y-120588857D01*
X119520571Y-120674571D01*
X119606285Y-120760285D01*
X119734857Y-120803142D01*
X119820571Y-120803142D01*
X119949142Y-120760285D01*
X119992000Y-120717428D01*
X119992000Y-120417428D01*
X119820571Y-120417428D01*
X120763428Y-120203142D02*
X120763428Y-120803142D01*
X120549142Y-119860285D02*
X120334857Y-120503142D01*
X120892000Y-120503142D01*
X117663142Y-119946000D02*
X117577428Y-119903142D01*
X117448857Y-119903142D01*
X117320285Y-119946000D01*
X117234571Y-120031714D01*
X117191714Y-120117428D01*
X117148857Y-120288857D01*
X117148857Y-120417428D01*
X117191714Y-120588857D01*
X117234571Y-120674571D01*
X117320285Y-120760285D01*
X117448857Y-120803142D01*
X117534571Y-120803142D01*
X117663142Y-120760285D01*
X117706000Y-120717428D01*
X117706000Y-120417428D01*
X117534571Y-120417428D01*
X118520285Y-119903142D02*
X118091714Y-119903142D01*
X118048857Y-120331714D01*
X118091714Y-120288857D01*
X118177428Y-120246000D01*
X118391714Y-120246000D01*
X118477428Y-120288857D01*
X118520285Y-120331714D01*
X118563142Y-120417428D01*
X118563142Y-120631714D01*
X118520285Y-120717428D01*
X118477428Y-120760285D01*
X118391714Y-120803142D01*
X118177428Y-120803142D01*
X118091714Y-120760285D01*
X118048857Y-120717428D01*
X114694571Y-119946000D02*
X114608857Y-119903142D01*
X114480285Y-119903142D01*
X114351714Y-119946000D01*
X114266000Y-120031714D01*
X114223142Y-120117428D01*
X114180285Y-120288857D01*
X114180285Y-120417428D01*
X114223142Y-120588857D01*
X114266000Y-120674571D01*
X114351714Y-120760285D01*
X114480285Y-120803142D01*
X114566000Y-120803142D01*
X114694571Y-120760285D01*
X114737428Y-120717428D01*
X114737428Y-120417428D01*
X114566000Y-120417428D01*
X115594571Y-120803142D02*
X115080285Y-120803142D01*
X115337428Y-120803142D02*
X115337428Y-119903142D01*
X115251714Y-120031714D01*
X115166000Y-120117428D01*
X115080285Y-120160285D01*
X116366000Y-120203142D02*
X116366000Y-120803142D01*
X116151714Y-119860285D02*
X115937428Y-120503142D01*
X116494571Y-120503142D01*
X111646571Y-119946000D02*
X111560857Y-119903142D01*
X111432285Y-119903142D01*
X111303714Y-119946000D01*
X111218000Y-120031714D01*
X111175142Y-120117428D01*
X111132285Y-120288857D01*
X111132285Y-120417428D01*
X111175142Y-120588857D01*
X111218000Y-120674571D01*
X111303714Y-120760285D01*
X111432285Y-120803142D01*
X111518000Y-120803142D01*
X111646571Y-120760285D01*
X111689428Y-120717428D01*
X111689428Y-120417428D01*
X111518000Y-120417428D01*
X112546571Y-120803142D02*
X112032285Y-120803142D01*
X112289428Y-120803142D02*
X112289428Y-119903142D01*
X112203714Y-120031714D01*
X112118000Y-120117428D01*
X112032285Y-120160285D01*
X113318000Y-119903142D02*
X113146571Y-119903142D01*
X113060857Y-119946000D01*
X113018000Y-119988857D01*
X112932285Y-120117428D01*
X112889428Y-120288857D01*
X112889428Y-120631714D01*
X112932285Y-120717428D01*
X112975142Y-120760285D01*
X113060857Y-120803142D01*
X113232285Y-120803142D01*
X113318000Y-120760285D01*
X113360857Y-120717428D01*
X113403714Y-120631714D01*
X113403714Y-120417428D01*
X113360857Y-120331714D01*
X113318000Y-120288857D01*
X113232285Y-120246000D01*
X113060857Y-120246000D01*
X112975142Y-120288857D01*
X112932285Y-120331714D01*
X112889428Y-120417428D01*
X108359714Y-120546000D02*
X108788285Y-120546000D01*
X108274000Y-120803142D02*
X108574000Y-119903142D01*
X108874000Y-120803142D01*
X109174000Y-120803142D02*
X109174000Y-119903142D01*
X109388285Y-119903142D01*
X109516857Y-119946000D01*
X109602571Y-120031714D01*
X109645428Y-120117428D01*
X109688285Y-120288857D01*
X109688285Y-120417428D01*
X109645428Y-120588857D01*
X109602571Y-120674571D01*
X109516857Y-120760285D01*
X109388285Y-120803142D01*
X109174000Y-120803142D01*
X110588285Y-120717428D02*
X110545428Y-120760285D01*
X110416857Y-120803142D01*
X110331142Y-120803142D01*
X110202571Y-120760285D01*
X110116857Y-120674571D01*
X110074000Y-120588857D01*
X110031142Y-120417428D01*
X110031142Y-120288857D01*
X110074000Y-120117428D01*
X110116857Y-120031714D01*
X110202571Y-119946000D01*
X110331142Y-119903142D01*
X110416857Y-119903142D01*
X110545428Y-119946000D01*
X110588285Y-119988857D01*
X105933142Y-120803142D02*
X105633142Y-120374571D01*
X105418857Y-120803142D02*
X105418857Y-119903142D01*
X105761714Y-119903142D01*
X105847428Y-119946000D01*
X105890285Y-119988857D01*
X105933142Y-120074571D01*
X105933142Y-120203142D01*
X105890285Y-120288857D01*
X105847428Y-120331714D01*
X105761714Y-120374571D01*
X105418857Y-120374571D01*
X106276000Y-120760285D02*
X106404571Y-120803142D01*
X106618857Y-120803142D01*
X106704571Y-120760285D01*
X106747428Y-120717428D01*
X106790285Y-120631714D01*
X106790285Y-120546000D01*
X106747428Y-120460285D01*
X106704571Y-120417428D01*
X106618857Y-120374571D01*
X106447428Y-120331714D01*
X106361714Y-120288857D01*
X106318857Y-120246000D01*
X106276000Y-120160285D01*
X106276000Y-120074571D01*
X106318857Y-119988857D01*
X106361714Y-119946000D01*
X106447428Y-119903142D01*
X106661714Y-119903142D01*
X106790285Y-119946000D01*
X107047428Y-119903142D02*
X107561714Y-119903142D01*
X107304571Y-120803142D02*
X107304571Y-119903142D01*
X161443142Y-83015714D02*
X160543142Y-83015714D01*
X161443142Y-82587142D02*
X160543142Y-82587142D01*
X161443142Y-82072857D01*
X160543142Y-82072857D01*
X161443142Y-81644285D02*
X160543142Y-81644285D01*
X160543142Y-81301428D01*
X160586000Y-81215714D01*
X160628857Y-81172857D01*
X160714571Y-81130000D01*
X160843142Y-81130000D01*
X160928857Y-81172857D01*
X160971714Y-81215714D01*
X161014571Y-81301428D01*
X161014571Y-81644285D01*
X160543142Y-80744285D02*
X161271714Y-80744285D01*
X161357428Y-80701428D01*
X161400285Y-80658571D01*
X161443142Y-80572857D01*
X161443142Y-80401428D01*
X161400285Y-80315714D01*
X161357428Y-80272857D01*
X161271714Y-80230000D01*
X160543142Y-80230000D01*
X160543142Y-79930000D02*
X160543142Y-79415714D01*
X161443142Y-79672857D02*
X160543142Y-79672857D01*
X160762142Y-78676428D02*
X160762142Y-77533571D01*
X160635142Y-84899428D02*
X160635142Y-83756571D01*
X161206571Y-84328000D02*
X160063714Y-84328000D01*
X160162142Y-90992142D02*
X160162142Y-90820714D01*
X160205000Y-90735000D01*
X160290714Y-90649285D01*
X160462142Y-90606428D01*
X160762142Y-90606428D01*
X160933571Y-90649285D01*
X161019285Y-90735000D01*
X161062142Y-90820714D01*
X161062142Y-90992142D01*
X161019285Y-91077857D01*
X160933571Y-91163571D01*
X160762142Y-91206428D01*
X160462142Y-91206428D01*
X160290714Y-91163571D01*
X160205000Y-91077857D01*
X160162142Y-90992142D01*
X160162142Y-90220714D02*
X160890714Y-90220714D01*
X160976428Y-90177857D01*
X161019285Y-90135000D01*
X161062142Y-90049285D01*
X161062142Y-89877857D01*
X161019285Y-89792142D01*
X160976428Y-89749285D01*
X160890714Y-89706428D01*
X160162142Y-89706428D01*
X160162142Y-89406428D02*
X160162142Y-88892142D01*
X161062142Y-89149285D02*
X160162142Y-89149285D01*
X160719285Y-88592142D02*
X160719285Y-87906428D01*
X161062142Y-88249285D02*
X160376428Y-88249285D01*
X160162142Y-96072142D02*
X160162142Y-95900714D01*
X160205000Y-95815000D01*
X160290714Y-95729285D01*
X160462142Y-95686428D01*
X160762142Y-95686428D01*
X160933571Y-95729285D01*
X161019285Y-95815000D01*
X161062142Y-95900714D01*
X161062142Y-96072142D01*
X161019285Y-96157857D01*
X160933571Y-96243571D01*
X160762142Y-96286428D01*
X160462142Y-96286428D01*
X160290714Y-96243571D01*
X160205000Y-96157857D01*
X160162142Y-96072142D01*
X160162142Y-95300714D02*
X160890714Y-95300714D01*
X160976428Y-95257857D01*
X161019285Y-95215000D01*
X161062142Y-95129285D01*
X161062142Y-94957857D01*
X161019285Y-94872142D01*
X160976428Y-94829285D01*
X160890714Y-94786428D01*
X160162142Y-94786428D01*
X160162142Y-94486428D02*
X160162142Y-93972142D01*
X161062142Y-94229285D02*
X160162142Y-94229285D01*
X160719285Y-93672142D02*
X160719285Y-92986428D01*
X161062142Y-93329285D02*
X160376428Y-93329285D01*
X160976428Y-100316428D02*
X161019285Y-100359285D01*
X161062142Y-100487857D01*
X161062142Y-100573571D01*
X161019285Y-100702142D01*
X160933571Y-100787857D01*
X160847857Y-100830714D01*
X160676428Y-100873571D01*
X160547857Y-100873571D01*
X160376428Y-100830714D01*
X160290714Y-100787857D01*
X160205000Y-100702142D01*
X160162142Y-100573571D01*
X160162142Y-100487857D01*
X160205000Y-100359285D01*
X160247857Y-100316428D01*
X161062142Y-99930714D02*
X160162142Y-99930714D01*
X160590714Y-99930714D02*
X160590714Y-99416428D01*
X161062142Y-99416428D02*
X160162142Y-99416428D01*
X160162142Y-99073571D02*
X160162142Y-98516428D01*
X160505000Y-98816428D01*
X160505000Y-98687857D01*
X160547857Y-98602142D01*
X160590714Y-98559285D01*
X160676428Y-98516428D01*
X160890714Y-98516428D01*
X160976428Y-98559285D01*
X161019285Y-98602142D01*
X161062142Y-98687857D01*
X161062142Y-98945000D01*
X161019285Y-99030714D01*
X160976428Y-99073571D01*
X160976428Y-105396428D02*
X161019285Y-105439285D01*
X161062142Y-105567857D01*
X161062142Y-105653571D01*
X161019285Y-105782142D01*
X160933571Y-105867857D01*
X160847857Y-105910714D01*
X160676428Y-105953571D01*
X160547857Y-105953571D01*
X160376428Y-105910714D01*
X160290714Y-105867857D01*
X160205000Y-105782142D01*
X160162142Y-105653571D01*
X160162142Y-105567857D01*
X160205000Y-105439285D01*
X160247857Y-105396428D01*
X161062142Y-105010714D02*
X160162142Y-105010714D01*
X160590714Y-105010714D02*
X160590714Y-104496428D01*
X161062142Y-104496428D02*
X160162142Y-104496428D01*
X160247857Y-104110714D02*
X160205000Y-104067857D01*
X160162142Y-103982142D01*
X160162142Y-103767857D01*
X160205000Y-103682142D01*
X160247857Y-103639285D01*
X160333571Y-103596428D01*
X160419285Y-103596428D01*
X160547857Y-103639285D01*
X161062142Y-104153571D01*
X161062142Y-103596428D01*
X160976428Y-110476428D02*
X161019285Y-110519285D01*
X161062142Y-110647857D01*
X161062142Y-110733571D01*
X161019285Y-110862142D01*
X160933571Y-110947857D01*
X160847857Y-110990714D01*
X160676428Y-111033571D01*
X160547857Y-111033571D01*
X160376428Y-110990714D01*
X160290714Y-110947857D01*
X160205000Y-110862142D01*
X160162142Y-110733571D01*
X160162142Y-110647857D01*
X160205000Y-110519285D01*
X160247857Y-110476428D01*
X161062142Y-110090714D02*
X160162142Y-110090714D01*
X160590714Y-110090714D02*
X160590714Y-109576428D01*
X161062142Y-109576428D02*
X160162142Y-109576428D01*
X161062142Y-108676428D02*
X161062142Y-109190714D01*
X161062142Y-108933571D02*
X160162142Y-108933571D01*
X160290714Y-109019285D01*
X160376428Y-109105000D01*
X160419285Y-109190714D01*
D11*
X133080000Y-100115000D02*
X137580000Y-100115000D01*
X131830000Y-96115000D02*
X131830000Y-97615000D01*
X137580000Y-93615000D02*
X133080000Y-93615000D01*
X138830000Y-97615000D02*
X138830000Y-96115000D01*
X138160000Y-102175000D02*
G75*
G02X136160000Y-102175000I-1000000J0D01*
G01*
X136160000Y-102175000D02*
X134510000Y-102175000D01*
X134510000Y-102175000D02*
X134510000Y-112455000D01*
X134510000Y-112455000D02*
X139810000Y-112455000D01*
X139810000Y-112455000D02*
X139810000Y-102175000D01*
X139810000Y-102175000D02*
X138160000Y-102175000D01*
X141565000Y-93900000D02*
X151805000Y-93900000D01*
X141565000Y-98541000D02*
X151805000Y-98541000D01*
X141565000Y-93900000D02*
X141565000Y-98541000D01*
X151805000Y-93900000D02*
X151805000Y-98541000D01*
X141565000Y-95410000D02*
X151805000Y-95410000D01*
X144835000Y-93900000D02*
X144835000Y-95410000D01*
X148536000Y-93900000D02*
X148536000Y-95410000D01*
X152400000Y-87630000D02*
X152400000Y-113030000D01*
X153670000Y-87630000D02*
X153670000Y-113030000D01*
X160020000Y-87630000D02*
X160020000Y-113030000D01*
X160020000Y-113030000D02*
X152400000Y-113030000D01*
X160020000Y-87630000D02*
X152400000Y-87630000D01*
X153670000Y-86360000D02*
X153670000Y-76200000D01*
X152400000Y-86360000D02*
X160020000Y-86360000D01*
X160020000Y-86360000D02*
X160020000Y-76200000D01*
X160020000Y-76200000D02*
X152400000Y-76200000D01*
X152400000Y-76200000D02*
X152400000Y-86360000D01*
D12*
X150495000Y-88265000D02*
X149225000Y-88265000D01*
X149860000Y-88900000D02*
X149860000Y-87630000D01*
X110490000Y-74930000D02*
X110490000Y-76200000D01*
X149860000Y-74930000D02*
X149860000Y-76200000D01*
X111125000Y-88265000D02*
X109855000Y-88265000D01*
X110490000Y-88900000D02*
X110490000Y-87630000D01*
D13*
X151765000Y-71501000D02*
X151765000Y-92329000D01*
X108585000Y-71501000D02*
X151765000Y-71501000D01*
X108585000Y-92329000D02*
X108585000Y-71501000D01*
X151765000Y-92329000D02*
X108585000Y-92329000D01*
D11*
X105858000Y-117034000D02*
X105858000Y-119694000D01*
X118618000Y-117034000D02*
X105858000Y-117034000D01*
X118618000Y-119694000D02*
X105858000Y-119694000D01*
X118618000Y-117034000D02*
X118618000Y-119694000D01*
X119888000Y-117034000D02*
X121218000Y-117034000D01*
X121218000Y-117034000D02*
X121218000Y-118364000D01*
X108906000Y-93666000D02*
X108906000Y-96326000D01*
X116586000Y-93666000D02*
X108906000Y-93666000D01*
X116586000Y-96326000D02*
X108906000Y-96326000D01*
X116586000Y-93666000D02*
X116586000Y-96326000D01*
X117856000Y-93666000D02*
X119186000Y-93666000D01*
X119186000Y-93666000D02*
X119186000Y-94996000D01*
X127822000Y-119694000D02*
X127822000Y-117034000D01*
X125222000Y-119694000D02*
X127822000Y-119694000D01*
X125222000Y-117034000D02*
X127822000Y-117034000D01*
X125222000Y-119694000D02*
X125222000Y-117034000D01*
X123952000Y-119694000D02*
X122622000Y-119694000D01*
X122622000Y-119694000D02*
X122622000Y-118364000D01*
X133438000Y-117848000D02*
X133438000Y-116848000D01*
X131738000Y-116848000D02*
X131738000Y-117848000D01*
X125615000Y-95495000D02*
X124415000Y-95495000D01*
X124415000Y-93735000D02*
X125615000Y-93735000D01*
X143930000Y-101735000D02*
X143930000Y-102735000D01*
X145630000Y-102735000D02*
X145630000Y-101735000D01*
X128690000Y-113526000D02*
X128690000Y-114526000D01*
X130390000Y-114526000D02*
X130390000Y-113526000D01*
X106486000Y-81982000D02*
X103826000Y-81982000D01*
X106486000Y-84582000D02*
X106486000Y-81982000D01*
X103826000Y-84582000D02*
X103826000Y-81982000D01*
X106486000Y-84582000D02*
X103826000Y-84582000D01*
X106486000Y-85852000D02*
X106486000Y-87182000D01*
X106486000Y-87182000D02*
X105156000Y-87182000D01*
X143062000Y-120075000D02*
X143062000Y-114875000D01*
X137922000Y-120075000D02*
X143062000Y-120075000D01*
X135322000Y-114875000D02*
X143062000Y-114875000D01*
X137922000Y-120075000D02*
X137922000Y-117475000D01*
X137922000Y-117475000D02*
X135322000Y-117475000D01*
X135322000Y-117475000D02*
X135322000Y-114875000D01*
X136652000Y-120075000D02*
X135322000Y-120075000D01*
X135322000Y-120075000D02*
X135322000Y-118745000D01*
X147240000Y-109895000D02*
X147240000Y-99655000D01*
X151881000Y-109895000D02*
X151881000Y-99655000D01*
X147240000Y-109895000D02*
X151881000Y-109895000D01*
X147240000Y-99655000D02*
X151881000Y-99655000D01*
X148750000Y-109895000D02*
X148750000Y-99655000D01*
X147240000Y-106625000D02*
X148750000Y-106625000D01*
X147240000Y-102924000D02*
X148750000Y-102924000D01*
X147240000Y-120690000D02*
X147240000Y-110450000D01*
X151881000Y-120690000D02*
X151881000Y-110450000D01*
X147240000Y-120690000D02*
X151881000Y-120690000D01*
X147240000Y-110450000D02*
X151881000Y-110450000D01*
X148750000Y-120690000D02*
X148750000Y-110450000D01*
X147240000Y-117420000D02*
X148750000Y-117420000D01*
X147240000Y-113719000D02*
X148750000Y-113719000D01*
X102030000Y-114780000D02*
X102030000Y-98540000D01*
X102030000Y-98540000D02*
X109650000Y-98540000D01*
X125650000Y-98540000D02*
X126270000Y-98540000D01*
X126270000Y-98540000D02*
X126270000Y-100660000D01*
X126270000Y-112660000D02*
X126270000Y-114780000D01*
X126270000Y-114780000D02*
X125650000Y-114780000D01*
X109650000Y-114780000D02*
X102030000Y-114780000D01*
X109650000Y-114780000D02*
X109650000Y-115390000D01*
D10*
X136398095Y-104227380D02*
X136398095Y-105036904D01*
X136445714Y-105132142D01*
X136493333Y-105179761D01*
X136588571Y-105227380D01*
X136779047Y-105227380D01*
X136874285Y-105179761D01*
X136921904Y-105132142D01*
X136969523Y-105036904D01*
X136969523Y-104227380D01*
X137398095Y-104322619D02*
X137445714Y-104275000D01*
X137540952Y-104227380D01*
X137779047Y-104227380D01*
X137874285Y-104275000D01*
X137921904Y-104322619D01*
X137969523Y-104417857D01*
X137969523Y-104513095D01*
X137921904Y-104655952D01*
X137350476Y-105227380D01*
X137969523Y-105227380D01*
X146589761Y-93892619D02*
X146494523Y-93845000D01*
X146399285Y-93749761D01*
X146256428Y-93606904D01*
X146161190Y-93559285D01*
X146065952Y-93559285D01*
X146113571Y-93797380D02*
X146018333Y-93749761D01*
X145923095Y-93654523D01*
X145875476Y-93464047D01*
X145875476Y-93130714D01*
X145923095Y-92940238D01*
X146018333Y-92845000D01*
X146113571Y-92797380D01*
X146304047Y-92797380D01*
X146399285Y-92845000D01*
X146494523Y-92940238D01*
X146542142Y-93130714D01*
X146542142Y-93464047D01*
X146494523Y-93654523D01*
X146399285Y-93749761D01*
X146304047Y-93797380D01*
X146113571Y-93797380D01*
X146875476Y-92797380D02*
X147494523Y-92797380D01*
X147161190Y-93178333D01*
X147304047Y-93178333D01*
X147399285Y-93225952D01*
X147446904Y-93273571D01*
X147494523Y-93368809D01*
X147494523Y-93606904D01*
X147446904Y-93702142D01*
X147399285Y-93749761D01*
X147304047Y-93797380D01*
X147018333Y-93797380D01*
X146923095Y-93749761D01*
X146875476Y-93702142D01*
D14*
X109516333Y-83693000D02*
X109516333Y-83354333D01*
X109601000Y-83185000D01*
X109770333Y-83015666D01*
X110109000Y-82931000D01*
X110701666Y-82931000D01*
X111040333Y-83015666D01*
X111209666Y-83185000D01*
X111294333Y-83354333D01*
X111294333Y-83693000D01*
X111209666Y-83862333D01*
X111040333Y-84031666D01*
X110701666Y-84116333D01*
X110109000Y-84116333D01*
X109770333Y-84031666D01*
X109601000Y-83862333D01*
X109516333Y-83693000D01*
X109516333Y-82169000D02*
X110955666Y-82169000D01*
X111125000Y-82084333D01*
X111209666Y-81999666D01*
X111294333Y-81830333D01*
X111294333Y-81491666D01*
X111209666Y-81322333D01*
X111125000Y-81237666D01*
X110955666Y-81153000D01*
X109516333Y-81153000D01*
X109516333Y-80560333D02*
X109516333Y-79544333D01*
X111294333Y-80052333D02*
X109516333Y-80052333D01*
X150664333Y-82846333D02*
X148886333Y-82846333D01*
X150664333Y-81999666D02*
X148886333Y-81999666D01*
X150664333Y-80983666D01*
X148886333Y-80983666D01*
D10*
X107148380Y-95329333D02*
X107862666Y-95329333D01*
X108005523Y-95376952D01*
X108100761Y-95472190D01*
X108148380Y-95615047D01*
X108148380Y-95710285D01*
X108148380Y-94805523D02*
X108148380Y-94615047D01*
X108100761Y-94519809D01*
X108053142Y-94472190D01*
X107910285Y-94376952D01*
X107719809Y-94329333D01*
X107338857Y-94329333D01*
X107243619Y-94376952D01*
X107196000Y-94424571D01*
X107148380Y-94519809D01*
X107148380Y-94710285D01*
X107196000Y-94805523D01*
X107243619Y-94853142D01*
X107338857Y-94900761D01*
X107576952Y-94900761D01*
X107672190Y-94853142D01*
X107719809Y-94805523D01*
X107767428Y-94710285D01*
X107767428Y-94519809D01*
X107719809Y-94424571D01*
X107672190Y-94376952D01*
X107576952Y-94329333D01*
X131167142Y-120181666D02*
X131214761Y-120229285D01*
X131262380Y-120372142D01*
X131262380Y-120467380D01*
X131214761Y-120610238D01*
X131119523Y-120705476D01*
X131024285Y-120753095D01*
X130833809Y-120800714D01*
X130690952Y-120800714D01*
X130500476Y-120753095D01*
X130405238Y-120705476D01*
X130310000Y-120610238D01*
X130262380Y-120467380D01*
X130262380Y-120372142D01*
X130310000Y-120229285D01*
X130357619Y-120181666D01*
X130595714Y-119324523D02*
X131262380Y-119324523D01*
X130214761Y-119562619D02*
X130929047Y-119800714D01*
X130929047Y-119181666D01*
X124848333Y-96972380D02*
X124515000Y-96496190D01*
X124276904Y-96972380D02*
X124276904Y-95972380D01*
X124657857Y-95972380D01*
X124753095Y-96020000D01*
X124800714Y-96067619D01*
X124848333Y-96162857D01*
X124848333Y-96305714D01*
X124800714Y-96400952D01*
X124753095Y-96448571D01*
X124657857Y-96496190D01*
X124276904Y-96496190D01*
X125753095Y-95972380D02*
X125276904Y-95972380D01*
X125229285Y-96448571D01*
X125276904Y-96400952D01*
X125372142Y-96353333D01*
X125610238Y-96353333D01*
X125705476Y-96400952D01*
X125753095Y-96448571D01*
X125800714Y-96543809D01*
X125800714Y-96781904D01*
X125753095Y-96877142D01*
X125705476Y-96924761D01*
X125610238Y-96972380D01*
X125372142Y-96972380D01*
X125276904Y-96924761D01*
X125229285Y-96877142D01*
X143232142Y-102401666D02*
X143279761Y-102449285D01*
X143327380Y-102592142D01*
X143327380Y-102687380D01*
X143279761Y-102830238D01*
X143184523Y-102925476D01*
X143089285Y-102973095D01*
X142898809Y-103020714D01*
X142755952Y-103020714D01*
X142565476Y-102973095D01*
X142470238Y-102925476D01*
X142375000Y-102830238D01*
X142327380Y-102687380D01*
X142327380Y-102592142D01*
X142375000Y-102449285D01*
X142422619Y-102401666D01*
X142422619Y-102020714D02*
X142375000Y-101973095D01*
X142327380Y-101877857D01*
X142327380Y-101639761D01*
X142375000Y-101544523D01*
X142422619Y-101496904D01*
X142517857Y-101449285D01*
X142613095Y-101449285D01*
X142755952Y-101496904D01*
X143327380Y-102068333D01*
X143327380Y-101449285D01*
X131802142Y-114192666D02*
X131849761Y-114240285D01*
X131897380Y-114383142D01*
X131897380Y-114478380D01*
X131849761Y-114621238D01*
X131754523Y-114716476D01*
X131659285Y-114764095D01*
X131468809Y-114811714D01*
X131325952Y-114811714D01*
X131135476Y-114764095D01*
X131040238Y-114716476D01*
X130945000Y-114621238D01*
X130897380Y-114478380D01*
X130897380Y-114383142D01*
X130945000Y-114240285D01*
X130992619Y-114192666D01*
X131897380Y-113240285D02*
X131897380Y-113811714D01*
X131897380Y-113526000D02*
X130897380Y-113526000D01*
X131040238Y-113621238D01*
X131135476Y-113716476D01*
X131183095Y-113811714D01*
X104822666Y-88352380D02*
X104822666Y-89066666D01*
X104775047Y-89209523D01*
X104679809Y-89304761D01*
X104536952Y-89352380D01*
X104441714Y-89352380D01*
X105727428Y-88685714D02*
X105727428Y-89352380D01*
X105489333Y-88304761D02*
X105251238Y-89019047D01*
X105870285Y-89019047D01*
X143724380Y-117808333D02*
X144438666Y-117808333D01*
X144581523Y-117855952D01*
X144676761Y-117951190D01*
X144724380Y-118094047D01*
X144724380Y-118189285D01*
X144724380Y-116808333D02*
X144724380Y-117379761D01*
X144724380Y-117094047D02*
X143724380Y-117094047D01*
X143867238Y-117189285D01*
X143962476Y-117284523D01*
X144010095Y-117379761D01*
X146787619Y-105505238D02*
X146740000Y-105600476D01*
X146644761Y-105695714D01*
X146501904Y-105838571D01*
X146454285Y-105933809D01*
X146454285Y-106029047D01*
X146692380Y-105981428D02*
X146644761Y-106076666D01*
X146549523Y-106171904D01*
X146359047Y-106219523D01*
X146025714Y-106219523D01*
X145835238Y-106171904D01*
X145740000Y-106076666D01*
X145692380Y-105981428D01*
X145692380Y-105790952D01*
X145740000Y-105695714D01*
X145835238Y-105600476D01*
X146025714Y-105552857D01*
X146359047Y-105552857D01*
X146549523Y-105600476D01*
X146644761Y-105695714D01*
X146692380Y-105790952D01*
X146692380Y-105981428D01*
X145787619Y-105171904D02*
X145740000Y-105124285D01*
X145692380Y-105029047D01*
X145692380Y-104790952D01*
X145740000Y-104695714D01*
X145787619Y-104648095D01*
X145882857Y-104600476D01*
X145978095Y-104600476D01*
X146120952Y-104648095D01*
X146692380Y-105219523D01*
X146692380Y-104600476D01*
X146787619Y-115030238D02*
X146740000Y-115125476D01*
X146644761Y-115220714D01*
X146501904Y-115363571D01*
X146454285Y-115458809D01*
X146454285Y-115554047D01*
X146692380Y-115506428D02*
X146644761Y-115601666D01*
X146549523Y-115696904D01*
X146359047Y-115744523D01*
X146025714Y-115744523D01*
X145835238Y-115696904D01*
X145740000Y-115601666D01*
X145692380Y-115506428D01*
X145692380Y-115315952D01*
X145740000Y-115220714D01*
X145835238Y-115125476D01*
X146025714Y-115077857D01*
X146359047Y-115077857D01*
X146549523Y-115125476D01*
X146644761Y-115220714D01*
X146692380Y-115315952D01*
X146692380Y-115506428D01*
X146692380Y-114125476D02*
X146692380Y-114696904D01*
X146692380Y-114411190D02*
X145692380Y-114411190D01*
X145835238Y-114506428D01*
X145930476Y-114601666D01*
X145978095Y-114696904D01*
M02*
