G04 #@! TF.GenerationSoftware,KiCad,Pcbnew,(5.1.5)-3*
G04 #@! TF.CreationDate,2020-04-09T15:05:06+03:00*
G04 #@! TF.ProjectId,DCDimmer,44434469-6d6d-4657-922e-6b696361645f,rev?*
G04 #@! TF.SameCoordinates,Original*
G04 #@! TF.FileFunction,Soldermask,Top*
G04 #@! TF.FilePolarity,Negative*
%FSLAX46Y46*%
G04 Gerber Fmt 4.6, Leading zero omitted, Abs format (unit mm)*
G04 Created by KiCad (PCBNEW (5.1.5)-3) date 2020-04-09 15:05:06*
%MOMM*%
%LPD*%
G04 APERTURE LIST*
%ADD10C,0.100000*%
G04 APERTURE END LIST*
D10*
G36*
X137553000Y-119646000D02*
G01*
X135751000Y-119646000D01*
X135751000Y-117844000D01*
X137553000Y-117844000D01*
X137553000Y-119646000D01*
G37*
G36*
X139305512Y-117848927D02*
G01*
X139454812Y-117878624D01*
X139618784Y-117946544D01*
X139766354Y-118045147D01*
X139891853Y-118170646D01*
X139990456Y-118318216D01*
X140058376Y-118482188D01*
X140093000Y-118656259D01*
X140093000Y-118833741D01*
X140058376Y-119007812D01*
X139990456Y-119171784D01*
X139891853Y-119319354D01*
X139766354Y-119444853D01*
X139618784Y-119543456D01*
X139454812Y-119611376D01*
X139305512Y-119641073D01*
X139280742Y-119646000D01*
X139103258Y-119646000D01*
X139078488Y-119641073D01*
X138929188Y-119611376D01*
X138765216Y-119543456D01*
X138617646Y-119444853D01*
X138492147Y-119319354D01*
X138393544Y-119171784D01*
X138325624Y-119007812D01*
X138291000Y-118833741D01*
X138291000Y-118656259D01*
X138325624Y-118482188D01*
X138393544Y-118318216D01*
X138492147Y-118170646D01*
X138617646Y-118045147D01*
X138765216Y-117946544D01*
X138929188Y-117878624D01*
X139078488Y-117848927D01*
X139103258Y-117844000D01*
X139280742Y-117844000D01*
X139305512Y-117848927D01*
G37*
G36*
X141845512Y-117848927D02*
G01*
X141994812Y-117878624D01*
X142158784Y-117946544D01*
X142306354Y-118045147D01*
X142431853Y-118170646D01*
X142530456Y-118318216D01*
X142598376Y-118482188D01*
X142633000Y-118656259D01*
X142633000Y-118833741D01*
X142598376Y-119007812D01*
X142530456Y-119171784D01*
X142431853Y-119319354D01*
X142306354Y-119444853D01*
X142158784Y-119543456D01*
X141994812Y-119611376D01*
X141845512Y-119641073D01*
X141820742Y-119646000D01*
X141643258Y-119646000D01*
X141618488Y-119641073D01*
X141469188Y-119611376D01*
X141305216Y-119543456D01*
X141157646Y-119444853D01*
X141032147Y-119319354D01*
X140933544Y-119171784D01*
X140865624Y-119007812D01*
X140831000Y-118833741D01*
X140831000Y-118656259D01*
X140865624Y-118482188D01*
X140933544Y-118318216D01*
X141032147Y-118170646D01*
X141157646Y-118045147D01*
X141305216Y-117946544D01*
X141469188Y-117878624D01*
X141618488Y-117848927D01*
X141643258Y-117844000D01*
X141820742Y-117844000D01*
X141845512Y-117848927D01*
G37*
G36*
X133264000Y-119399000D02*
G01*
X131912000Y-119399000D01*
X131912000Y-117797000D01*
X133264000Y-117797000D01*
X133264000Y-119399000D01*
G37*
G36*
X120789000Y-119265000D02*
G01*
X118987000Y-119265000D01*
X118987000Y-117463000D01*
X120789000Y-117463000D01*
X120789000Y-119265000D01*
G37*
G36*
X117461512Y-117467927D02*
G01*
X117610812Y-117497624D01*
X117774784Y-117565544D01*
X117922354Y-117664147D01*
X118047853Y-117789646D01*
X118146456Y-117937216D01*
X118214376Y-118101188D01*
X118249000Y-118275259D01*
X118249000Y-118452741D01*
X118214376Y-118626812D01*
X118146456Y-118790784D01*
X118047853Y-118938354D01*
X117922354Y-119063853D01*
X117774784Y-119162456D01*
X117610812Y-119230376D01*
X117461512Y-119260073D01*
X117436742Y-119265000D01*
X117259258Y-119265000D01*
X117234488Y-119260073D01*
X117085188Y-119230376D01*
X116921216Y-119162456D01*
X116773646Y-119063853D01*
X116648147Y-118938354D01*
X116549544Y-118790784D01*
X116481624Y-118626812D01*
X116447000Y-118452741D01*
X116447000Y-118275259D01*
X116481624Y-118101188D01*
X116549544Y-117937216D01*
X116648147Y-117789646D01*
X116773646Y-117664147D01*
X116921216Y-117565544D01*
X117085188Y-117497624D01*
X117234488Y-117467927D01*
X117259258Y-117463000D01*
X117436742Y-117463000D01*
X117461512Y-117467927D01*
G37*
G36*
X114921512Y-117467927D02*
G01*
X115070812Y-117497624D01*
X115234784Y-117565544D01*
X115382354Y-117664147D01*
X115507853Y-117789646D01*
X115606456Y-117937216D01*
X115674376Y-118101188D01*
X115709000Y-118275259D01*
X115709000Y-118452741D01*
X115674376Y-118626812D01*
X115606456Y-118790784D01*
X115507853Y-118938354D01*
X115382354Y-119063853D01*
X115234784Y-119162456D01*
X115070812Y-119230376D01*
X114921512Y-119260073D01*
X114896742Y-119265000D01*
X114719258Y-119265000D01*
X114694488Y-119260073D01*
X114545188Y-119230376D01*
X114381216Y-119162456D01*
X114233646Y-119063853D01*
X114108147Y-118938354D01*
X114009544Y-118790784D01*
X113941624Y-118626812D01*
X113907000Y-118452741D01*
X113907000Y-118275259D01*
X113941624Y-118101188D01*
X114009544Y-117937216D01*
X114108147Y-117789646D01*
X114233646Y-117664147D01*
X114381216Y-117565544D01*
X114545188Y-117497624D01*
X114694488Y-117467927D01*
X114719258Y-117463000D01*
X114896742Y-117463000D01*
X114921512Y-117467927D01*
G37*
G36*
X112381512Y-117467927D02*
G01*
X112530812Y-117497624D01*
X112694784Y-117565544D01*
X112842354Y-117664147D01*
X112967853Y-117789646D01*
X113066456Y-117937216D01*
X113134376Y-118101188D01*
X113169000Y-118275259D01*
X113169000Y-118452741D01*
X113134376Y-118626812D01*
X113066456Y-118790784D01*
X112967853Y-118938354D01*
X112842354Y-119063853D01*
X112694784Y-119162456D01*
X112530812Y-119230376D01*
X112381512Y-119260073D01*
X112356742Y-119265000D01*
X112179258Y-119265000D01*
X112154488Y-119260073D01*
X112005188Y-119230376D01*
X111841216Y-119162456D01*
X111693646Y-119063853D01*
X111568147Y-118938354D01*
X111469544Y-118790784D01*
X111401624Y-118626812D01*
X111367000Y-118452741D01*
X111367000Y-118275259D01*
X111401624Y-118101188D01*
X111469544Y-117937216D01*
X111568147Y-117789646D01*
X111693646Y-117664147D01*
X111841216Y-117565544D01*
X112005188Y-117497624D01*
X112154488Y-117467927D01*
X112179258Y-117463000D01*
X112356742Y-117463000D01*
X112381512Y-117467927D01*
G37*
G36*
X109841512Y-117467927D02*
G01*
X109990812Y-117497624D01*
X110154784Y-117565544D01*
X110302354Y-117664147D01*
X110427853Y-117789646D01*
X110526456Y-117937216D01*
X110594376Y-118101188D01*
X110629000Y-118275259D01*
X110629000Y-118452741D01*
X110594376Y-118626812D01*
X110526456Y-118790784D01*
X110427853Y-118938354D01*
X110302354Y-119063853D01*
X110154784Y-119162456D01*
X109990812Y-119230376D01*
X109841512Y-119260073D01*
X109816742Y-119265000D01*
X109639258Y-119265000D01*
X109614488Y-119260073D01*
X109465188Y-119230376D01*
X109301216Y-119162456D01*
X109153646Y-119063853D01*
X109028147Y-118938354D01*
X108929544Y-118790784D01*
X108861624Y-118626812D01*
X108827000Y-118452741D01*
X108827000Y-118275259D01*
X108861624Y-118101188D01*
X108929544Y-117937216D01*
X109028147Y-117789646D01*
X109153646Y-117664147D01*
X109301216Y-117565544D01*
X109465188Y-117497624D01*
X109614488Y-117467927D01*
X109639258Y-117463000D01*
X109816742Y-117463000D01*
X109841512Y-117467927D01*
G37*
G36*
X107301512Y-117467927D02*
G01*
X107450812Y-117497624D01*
X107614784Y-117565544D01*
X107762354Y-117664147D01*
X107887853Y-117789646D01*
X107986456Y-117937216D01*
X108054376Y-118101188D01*
X108089000Y-118275259D01*
X108089000Y-118452741D01*
X108054376Y-118626812D01*
X107986456Y-118790784D01*
X107887853Y-118938354D01*
X107762354Y-119063853D01*
X107614784Y-119162456D01*
X107450812Y-119230376D01*
X107301512Y-119260073D01*
X107276742Y-119265000D01*
X107099258Y-119265000D01*
X107074488Y-119260073D01*
X106925188Y-119230376D01*
X106761216Y-119162456D01*
X106613646Y-119063853D01*
X106488147Y-118938354D01*
X106389544Y-118790784D01*
X106321624Y-118626812D01*
X106287000Y-118452741D01*
X106287000Y-118275259D01*
X106321624Y-118101188D01*
X106389544Y-117937216D01*
X106488147Y-117789646D01*
X106613646Y-117664147D01*
X106761216Y-117565544D01*
X106925188Y-117497624D01*
X107074488Y-117467927D01*
X107099258Y-117463000D01*
X107276742Y-117463000D01*
X107301512Y-117467927D01*
G37*
G36*
X124853000Y-119265000D02*
G01*
X123051000Y-119265000D01*
X123051000Y-117463000D01*
X124853000Y-117463000D01*
X124853000Y-119265000D01*
G37*
G36*
X126605512Y-117467927D02*
G01*
X126754812Y-117497624D01*
X126918784Y-117565544D01*
X127066354Y-117664147D01*
X127191853Y-117789646D01*
X127290456Y-117937216D01*
X127358376Y-118101188D01*
X127393000Y-118275259D01*
X127393000Y-118452741D01*
X127358376Y-118626812D01*
X127290456Y-118790784D01*
X127191853Y-118938354D01*
X127066354Y-119063853D01*
X126918784Y-119162456D01*
X126754812Y-119230376D01*
X126605512Y-119260073D01*
X126580742Y-119265000D01*
X126403258Y-119265000D01*
X126378488Y-119260073D01*
X126229188Y-119230376D01*
X126065216Y-119162456D01*
X125917646Y-119063853D01*
X125792147Y-118938354D01*
X125693544Y-118790784D01*
X125625624Y-118626812D01*
X125591000Y-118452741D01*
X125591000Y-118275259D01*
X125625624Y-118101188D01*
X125693544Y-117937216D01*
X125792147Y-117789646D01*
X125917646Y-117664147D01*
X126065216Y-117565544D01*
X126229188Y-117497624D01*
X126378488Y-117467927D01*
X126403258Y-117463000D01*
X126580742Y-117463000D01*
X126605512Y-117467927D01*
G37*
G36*
X150811000Y-119061000D02*
G01*
X148909000Y-119061000D01*
X148909000Y-117159000D01*
X150811000Y-117159000D01*
X150811000Y-119061000D01*
G37*
G36*
X156589487Y-114953996D02*
G01*
X156826253Y-115052068D01*
X156826255Y-115052069D01*
X157039339Y-115194447D01*
X157220553Y-115375661D01*
X157307073Y-115505147D01*
X157362932Y-115588747D01*
X157461004Y-115825513D01*
X157511000Y-116076861D01*
X157511000Y-116333139D01*
X157461004Y-116584487D01*
X157380287Y-116779354D01*
X157362931Y-116821255D01*
X157220553Y-117034339D01*
X157039339Y-117215553D01*
X156826255Y-117357931D01*
X156826254Y-117357932D01*
X156826253Y-117357932D01*
X156589487Y-117456004D01*
X156338139Y-117506000D01*
X156081861Y-117506000D01*
X155830513Y-117456004D01*
X155593747Y-117357932D01*
X155593746Y-117357932D01*
X155593745Y-117357931D01*
X155380661Y-117215553D01*
X155199447Y-117034339D01*
X155057069Y-116821255D01*
X155039713Y-116779354D01*
X154958996Y-116584487D01*
X154909000Y-116333139D01*
X154909000Y-116076861D01*
X154958996Y-115825513D01*
X155057068Y-115588747D01*
X155112928Y-115505147D01*
X155199447Y-115375661D01*
X155380661Y-115194447D01*
X155593745Y-115052069D01*
X155593747Y-115052068D01*
X155830513Y-114953996D01*
X156081861Y-114904000D01*
X156338139Y-114904000D01*
X156589487Y-114953996D01*
G37*
G36*
X136765512Y-115308927D02*
G01*
X136914812Y-115338624D01*
X137078784Y-115406544D01*
X137226354Y-115505147D01*
X137351853Y-115630646D01*
X137450456Y-115778216D01*
X137518376Y-115942188D01*
X137553000Y-116116259D01*
X137553000Y-116293741D01*
X137518376Y-116467812D01*
X137450456Y-116631784D01*
X137351853Y-116779354D01*
X137226354Y-116904853D01*
X137078784Y-117003456D01*
X136914812Y-117071376D01*
X136765512Y-117101073D01*
X136740742Y-117106000D01*
X136563258Y-117106000D01*
X136538488Y-117101073D01*
X136389188Y-117071376D01*
X136225216Y-117003456D01*
X136077646Y-116904853D01*
X135952147Y-116779354D01*
X135853544Y-116631784D01*
X135785624Y-116467812D01*
X135751000Y-116293741D01*
X135751000Y-116116259D01*
X135785624Y-115942188D01*
X135853544Y-115778216D01*
X135952147Y-115630646D01*
X136077646Y-115505147D01*
X136225216Y-115406544D01*
X136389188Y-115338624D01*
X136538488Y-115308927D01*
X136563258Y-115304000D01*
X136740742Y-115304000D01*
X136765512Y-115308927D01*
G37*
G36*
X139305512Y-115308927D02*
G01*
X139454812Y-115338624D01*
X139618784Y-115406544D01*
X139766354Y-115505147D01*
X139891853Y-115630646D01*
X139990456Y-115778216D01*
X140058376Y-115942188D01*
X140093000Y-116116259D01*
X140093000Y-116293741D01*
X140058376Y-116467812D01*
X139990456Y-116631784D01*
X139891853Y-116779354D01*
X139766354Y-116904853D01*
X139618784Y-117003456D01*
X139454812Y-117071376D01*
X139305512Y-117101073D01*
X139280742Y-117106000D01*
X139103258Y-117106000D01*
X139078488Y-117101073D01*
X138929188Y-117071376D01*
X138765216Y-117003456D01*
X138617646Y-116904853D01*
X138492147Y-116779354D01*
X138393544Y-116631784D01*
X138325624Y-116467812D01*
X138291000Y-116293741D01*
X138291000Y-116116259D01*
X138325624Y-115942188D01*
X138393544Y-115778216D01*
X138492147Y-115630646D01*
X138617646Y-115505147D01*
X138765216Y-115406544D01*
X138929188Y-115338624D01*
X139078488Y-115308927D01*
X139103258Y-115304000D01*
X139280742Y-115304000D01*
X139305512Y-115308927D01*
G37*
G36*
X141845512Y-115308927D02*
G01*
X141994812Y-115338624D01*
X142158784Y-115406544D01*
X142306354Y-115505147D01*
X142431853Y-115630646D01*
X142530456Y-115778216D01*
X142598376Y-115942188D01*
X142633000Y-116116259D01*
X142633000Y-116293741D01*
X142598376Y-116467812D01*
X142530456Y-116631784D01*
X142431853Y-116779354D01*
X142306354Y-116904853D01*
X142158784Y-117003456D01*
X141994812Y-117071376D01*
X141845512Y-117101073D01*
X141820742Y-117106000D01*
X141643258Y-117106000D01*
X141618488Y-117101073D01*
X141469188Y-117071376D01*
X141305216Y-117003456D01*
X141157646Y-116904853D01*
X141032147Y-116779354D01*
X140933544Y-116631784D01*
X140865624Y-116467812D01*
X140831000Y-116293741D01*
X140831000Y-116116259D01*
X140865624Y-115942188D01*
X140933544Y-115778216D01*
X141032147Y-115630646D01*
X141157646Y-115505147D01*
X141305216Y-115406544D01*
X141469188Y-115338624D01*
X141618488Y-115308927D01*
X141643258Y-115304000D01*
X141820742Y-115304000D01*
X141845512Y-115308927D01*
G37*
G36*
X133264000Y-116899000D02*
G01*
X131912000Y-116899000D01*
X131912000Y-115297000D01*
X133264000Y-115297000D01*
X133264000Y-116899000D01*
G37*
G36*
X150137395Y-114655546D02*
G01*
X150310466Y-114727234D01*
X150310467Y-114727235D01*
X150466227Y-114831310D01*
X150598690Y-114963773D01*
X150598691Y-114963775D01*
X150702766Y-115119534D01*
X150774454Y-115292605D01*
X150811000Y-115476333D01*
X150811000Y-115663667D01*
X150774454Y-115847395D01*
X150702766Y-116020466D01*
X150702765Y-116020467D01*
X150598690Y-116176227D01*
X150466227Y-116308690D01*
X150429639Y-116333137D01*
X150310466Y-116412766D01*
X150137395Y-116484454D01*
X149953667Y-116521000D01*
X149766333Y-116521000D01*
X149582605Y-116484454D01*
X149409534Y-116412766D01*
X149290361Y-116333137D01*
X149253773Y-116308690D01*
X149121310Y-116176227D01*
X149017235Y-116020467D01*
X149017234Y-116020466D01*
X148945546Y-115847395D01*
X148909000Y-115663667D01*
X148909000Y-115476333D01*
X148945546Y-115292605D01*
X149017234Y-115119534D01*
X149121309Y-114963775D01*
X149121310Y-114963773D01*
X149253773Y-114831310D01*
X149409533Y-114727235D01*
X149409534Y-114727234D01*
X149582605Y-114655546D01*
X149766333Y-114619000D01*
X149953667Y-114619000D01*
X150137395Y-114655546D01*
G37*
G36*
X130216000Y-116077000D02*
G01*
X128864000Y-116077000D01*
X128864000Y-114475000D01*
X130216000Y-114475000D01*
X130216000Y-116077000D01*
G37*
G36*
X111201000Y-115561000D02*
G01*
X110099000Y-115561000D01*
X110099000Y-112959000D01*
X111201000Y-112959000D01*
X111201000Y-115561000D01*
G37*
G36*
X113201000Y-115561000D02*
G01*
X112099000Y-115561000D01*
X112099000Y-112959000D01*
X113201000Y-112959000D01*
X113201000Y-115561000D01*
G37*
G36*
X125201000Y-115561000D02*
G01*
X124099000Y-115561000D01*
X124099000Y-112959000D01*
X125201000Y-112959000D01*
X125201000Y-115561000D01*
G37*
G36*
X115201000Y-115561000D02*
G01*
X114099000Y-115561000D01*
X114099000Y-112959000D01*
X115201000Y-112959000D01*
X115201000Y-115561000D01*
G37*
G36*
X119201000Y-115561000D02*
G01*
X118099000Y-115561000D01*
X118099000Y-112959000D01*
X119201000Y-112959000D01*
X119201000Y-115561000D01*
G37*
G36*
X123201000Y-115561000D02*
G01*
X122099000Y-115561000D01*
X122099000Y-112959000D01*
X123201000Y-112959000D01*
X123201000Y-115561000D01*
G37*
G36*
X121201000Y-115561000D02*
G01*
X120099000Y-115561000D01*
X120099000Y-112959000D01*
X121201000Y-112959000D01*
X121201000Y-115561000D01*
G37*
G36*
X117201000Y-115561000D02*
G01*
X116099000Y-115561000D01*
X116099000Y-112959000D01*
X117201000Y-112959000D01*
X117201000Y-115561000D01*
G37*
G36*
X150137395Y-112115546D02*
G01*
X150310466Y-112187234D01*
X150310467Y-112187235D01*
X150466227Y-112291310D01*
X150598690Y-112423773D01*
X150598691Y-112423775D01*
X150702766Y-112579534D01*
X150774454Y-112752605D01*
X150811000Y-112936333D01*
X150811000Y-113123667D01*
X150774454Y-113307395D01*
X150702766Y-113480466D01*
X150702765Y-113480467D01*
X150598690Y-113636227D01*
X150466227Y-113768690D01*
X150387818Y-113821081D01*
X150310466Y-113872766D01*
X150137395Y-113944454D01*
X149953667Y-113981000D01*
X149766333Y-113981000D01*
X149582605Y-113944454D01*
X149409534Y-113872766D01*
X149332182Y-113821081D01*
X149253773Y-113768690D01*
X149121310Y-113636227D01*
X149017235Y-113480467D01*
X149017234Y-113480466D01*
X148945546Y-113307395D01*
X148909000Y-113123667D01*
X148909000Y-112936333D01*
X148945546Y-112752605D01*
X149017234Y-112579534D01*
X149121309Y-112423775D01*
X149121310Y-112423773D01*
X149253773Y-112291310D01*
X149409533Y-112187235D01*
X149409534Y-112187234D01*
X149582605Y-112115546D01*
X149766333Y-112079000D01*
X149953667Y-112079000D01*
X150137395Y-112115546D01*
G37*
G36*
X130216000Y-113577000D02*
G01*
X128864000Y-113577000D01*
X128864000Y-111975000D01*
X130216000Y-111975000D01*
X130216000Y-113577000D01*
G37*
G36*
X127101000Y-112211000D02*
G01*
X125199000Y-112211000D01*
X125199000Y-111109000D01*
X127101000Y-111109000D01*
X127101000Y-112211000D01*
G37*
G36*
X156512585Y-108968802D02*
G01*
X156662410Y-108998604D01*
X156944674Y-109115521D01*
X157198705Y-109285259D01*
X157414741Y-109501295D01*
X157584479Y-109755326D01*
X157701396Y-110037590D01*
X157761000Y-110337240D01*
X157761000Y-110642760D01*
X157701396Y-110942410D01*
X157584479Y-111224674D01*
X157414741Y-111478705D01*
X157198705Y-111694741D01*
X156944674Y-111864479D01*
X156662410Y-111981396D01*
X156512585Y-112011198D01*
X156362761Y-112041000D01*
X156057239Y-112041000D01*
X155907415Y-112011198D01*
X155757590Y-111981396D01*
X155475326Y-111864479D01*
X155221295Y-111694741D01*
X155005259Y-111478705D01*
X154835521Y-111224674D01*
X154718604Y-110942410D01*
X154659000Y-110642760D01*
X154659000Y-110337240D01*
X154718604Y-110037590D01*
X154835521Y-109755326D01*
X155005259Y-109501295D01*
X155221295Y-109285259D01*
X155475326Y-109115521D01*
X155757590Y-108998604D01*
X155907415Y-108968802D01*
X156057239Y-108939000D01*
X156362761Y-108939000D01*
X156512585Y-108968802D01*
G37*
G36*
X133598228Y-110306703D02*
G01*
X133753100Y-110370853D01*
X133892481Y-110463985D01*
X134011015Y-110582519D01*
X134104147Y-110721900D01*
X134168297Y-110876772D01*
X134201000Y-111041184D01*
X134201000Y-111208816D01*
X134168297Y-111373228D01*
X134104147Y-111528100D01*
X134011015Y-111667481D01*
X133892481Y-111786015D01*
X133753100Y-111879147D01*
X133598228Y-111943297D01*
X133433816Y-111976000D01*
X133266184Y-111976000D01*
X133101772Y-111943297D01*
X132946900Y-111879147D01*
X132807519Y-111786015D01*
X132688985Y-111667481D01*
X132595853Y-111528100D01*
X132531703Y-111373228D01*
X132499000Y-111208816D01*
X132499000Y-111041184D01*
X132531703Y-110876772D01*
X132595853Y-110721900D01*
X132688985Y-110582519D01*
X132807519Y-110463985D01*
X132946900Y-110370853D01*
X133101772Y-110306703D01*
X133266184Y-110274000D01*
X133433816Y-110274000D01*
X133598228Y-110306703D01*
G37*
G36*
X141218228Y-110306703D02*
G01*
X141373100Y-110370853D01*
X141512481Y-110463985D01*
X141631015Y-110582519D01*
X141724147Y-110721900D01*
X141788297Y-110876772D01*
X141821000Y-111041184D01*
X141821000Y-111208816D01*
X141788297Y-111373228D01*
X141724147Y-111528100D01*
X141631015Y-111667481D01*
X141512481Y-111786015D01*
X141373100Y-111879147D01*
X141218228Y-111943297D01*
X141053816Y-111976000D01*
X140886184Y-111976000D01*
X140721772Y-111943297D01*
X140566900Y-111879147D01*
X140427519Y-111786015D01*
X140308985Y-111667481D01*
X140215853Y-111528100D01*
X140151703Y-111373228D01*
X140119000Y-111208816D01*
X140119000Y-111041184D01*
X140151703Y-110876772D01*
X140215853Y-110721900D01*
X140308985Y-110582519D01*
X140427519Y-110463985D01*
X140566900Y-110370853D01*
X140721772Y-110306703D01*
X140886184Y-110274000D01*
X141053816Y-110274000D01*
X141218228Y-110306703D01*
G37*
G36*
X127101000Y-110211000D02*
G01*
X125199000Y-110211000D01*
X125199000Y-109109000D01*
X127101000Y-109109000D01*
X127101000Y-110211000D01*
G37*
G36*
X141218228Y-107766703D02*
G01*
X141373100Y-107830853D01*
X141512481Y-107923985D01*
X141631015Y-108042519D01*
X141724147Y-108181900D01*
X141788297Y-108336772D01*
X141821000Y-108501184D01*
X141821000Y-108668816D01*
X141788297Y-108833228D01*
X141724147Y-108988100D01*
X141631015Y-109127481D01*
X141512481Y-109246015D01*
X141373100Y-109339147D01*
X141218228Y-109403297D01*
X141053816Y-109436000D01*
X140886184Y-109436000D01*
X140721772Y-109403297D01*
X140566900Y-109339147D01*
X140427519Y-109246015D01*
X140308985Y-109127481D01*
X140215853Y-108988100D01*
X140151703Y-108833228D01*
X140119000Y-108668816D01*
X140119000Y-108501184D01*
X140151703Y-108336772D01*
X140215853Y-108181900D01*
X140308985Y-108042519D01*
X140427519Y-107923985D01*
X140566900Y-107830853D01*
X140721772Y-107766703D01*
X140886184Y-107734000D01*
X141053816Y-107734000D01*
X141218228Y-107766703D01*
G37*
G36*
X133598228Y-107766703D02*
G01*
X133753100Y-107830853D01*
X133892481Y-107923985D01*
X134011015Y-108042519D01*
X134104147Y-108181900D01*
X134168297Y-108336772D01*
X134201000Y-108501184D01*
X134201000Y-108668816D01*
X134168297Y-108833228D01*
X134104147Y-108988100D01*
X134011015Y-109127481D01*
X133892481Y-109246015D01*
X133753100Y-109339147D01*
X133598228Y-109403297D01*
X133433816Y-109436000D01*
X133266184Y-109436000D01*
X133101772Y-109403297D01*
X132946900Y-109339147D01*
X132807519Y-109246015D01*
X132688985Y-109127481D01*
X132595853Y-108988100D01*
X132531703Y-108833228D01*
X132499000Y-108668816D01*
X132499000Y-108501184D01*
X132531703Y-108336772D01*
X132595853Y-108181900D01*
X132688985Y-108042519D01*
X132807519Y-107923985D01*
X132946900Y-107830853D01*
X133101772Y-107766703D01*
X133266184Y-107734000D01*
X133433816Y-107734000D01*
X133598228Y-107766703D01*
G37*
G36*
X150811000Y-108266000D02*
G01*
X148909000Y-108266000D01*
X148909000Y-106364000D01*
X150811000Y-106364000D01*
X150811000Y-108266000D01*
G37*
G36*
X127101000Y-108211000D02*
G01*
X125199000Y-108211000D01*
X125199000Y-107109000D01*
X127101000Y-107109000D01*
X127101000Y-108211000D01*
G37*
G36*
X156512585Y-103888802D02*
G01*
X156662410Y-103918604D01*
X156944674Y-104035521D01*
X157198705Y-104205259D01*
X157414741Y-104421295D01*
X157584479Y-104675326D01*
X157701396Y-104957590D01*
X157761000Y-105257240D01*
X157761000Y-105562760D01*
X157701396Y-105862410D01*
X157584479Y-106144674D01*
X157414741Y-106398705D01*
X157198705Y-106614741D01*
X156944674Y-106784479D01*
X156662410Y-106901396D01*
X156512585Y-106931198D01*
X156362761Y-106961000D01*
X156057239Y-106961000D01*
X155907415Y-106931198D01*
X155757590Y-106901396D01*
X155475326Y-106784479D01*
X155221295Y-106614741D01*
X155005259Y-106398705D01*
X154835521Y-106144674D01*
X154718604Y-105862410D01*
X154659000Y-105562760D01*
X154659000Y-105257240D01*
X154718604Y-104957590D01*
X154835521Y-104675326D01*
X155005259Y-104421295D01*
X155221295Y-104205259D01*
X155475326Y-104035521D01*
X155757590Y-103918604D01*
X155907415Y-103888802D01*
X156057239Y-103859000D01*
X156362761Y-103859000D01*
X156512585Y-103888802D01*
G37*
G36*
X133598228Y-105226703D02*
G01*
X133753100Y-105290853D01*
X133892481Y-105383985D01*
X134011015Y-105502519D01*
X134104147Y-105641900D01*
X134168297Y-105796772D01*
X134201000Y-105961184D01*
X134201000Y-106128816D01*
X134168297Y-106293228D01*
X134104147Y-106448100D01*
X134011015Y-106587481D01*
X133892481Y-106706015D01*
X133753100Y-106799147D01*
X133598228Y-106863297D01*
X133433816Y-106896000D01*
X133266184Y-106896000D01*
X133101772Y-106863297D01*
X132946900Y-106799147D01*
X132807519Y-106706015D01*
X132688985Y-106587481D01*
X132595853Y-106448100D01*
X132531703Y-106293228D01*
X132499000Y-106128816D01*
X132499000Y-105961184D01*
X132531703Y-105796772D01*
X132595853Y-105641900D01*
X132688985Y-105502519D01*
X132807519Y-105383985D01*
X132946900Y-105290853D01*
X133101772Y-105226703D01*
X133266184Y-105194000D01*
X133433816Y-105194000D01*
X133598228Y-105226703D01*
G37*
G36*
X141218228Y-105226703D02*
G01*
X141373100Y-105290853D01*
X141512481Y-105383985D01*
X141631015Y-105502519D01*
X141724147Y-105641900D01*
X141788297Y-105796772D01*
X141821000Y-105961184D01*
X141821000Y-106128816D01*
X141788297Y-106293228D01*
X141724147Y-106448100D01*
X141631015Y-106587481D01*
X141512481Y-106706015D01*
X141373100Y-106799147D01*
X141218228Y-106863297D01*
X141053816Y-106896000D01*
X140886184Y-106896000D01*
X140721772Y-106863297D01*
X140566900Y-106799147D01*
X140427519Y-106706015D01*
X140308985Y-106587481D01*
X140215853Y-106448100D01*
X140151703Y-106293228D01*
X140119000Y-106128816D01*
X140119000Y-105961184D01*
X140151703Y-105796772D01*
X140215853Y-105641900D01*
X140308985Y-105502519D01*
X140427519Y-105383985D01*
X140566900Y-105290853D01*
X140721772Y-105226703D01*
X140886184Y-105194000D01*
X141053816Y-105194000D01*
X141218228Y-105226703D01*
G37*
G36*
X127101000Y-106211000D02*
G01*
X125199000Y-106211000D01*
X125199000Y-105109000D01*
X127101000Y-105109000D01*
X127101000Y-106211000D01*
G37*
G36*
X150137395Y-103860546D02*
G01*
X150310466Y-103932234D01*
X150310467Y-103932235D01*
X150466227Y-104036310D01*
X150598690Y-104168773D01*
X150598691Y-104168775D01*
X150702766Y-104324534D01*
X150774454Y-104497605D01*
X150811000Y-104681333D01*
X150811000Y-104868667D01*
X150774454Y-105052395D01*
X150702766Y-105225466D01*
X150702765Y-105225467D01*
X150598690Y-105381227D01*
X150466227Y-105513690D01*
X150392788Y-105562760D01*
X150310466Y-105617766D01*
X150137395Y-105689454D01*
X149953667Y-105726000D01*
X149766333Y-105726000D01*
X149582605Y-105689454D01*
X149409534Y-105617766D01*
X149327212Y-105562760D01*
X149253773Y-105513690D01*
X149121310Y-105381227D01*
X149017235Y-105225467D01*
X149017234Y-105225466D01*
X148945546Y-105052395D01*
X148909000Y-104868667D01*
X148909000Y-104681333D01*
X148945546Y-104497605D01*
X149017234Y-104324534D01*
X149121309Y-104168775D01*
X149121310Y-104168773D01*
X149253773Y-104036310D01*
X149409533Y-103932235D01*
X149409534Y-103932234D01*
X149582605Y-103860546D01*
X149766333Y-103824000D01*
X149953667Y-103824000D01*
X150137395Y-103860546D01*
G37*
G36*
X134201000Y-104356000D02*
G01*
X132499000Y-104356000D01*
X132499000Y-102654000D01*
X134201000Y-102654000D01*
X134201000Y-104356000D01*
G37*
G36*
X141218228Y-102686703D02*
G01*
X141373100Y-102750853D01*
X141512481Y-102843985D01*
X141631015Y-102962519D01*
X141724147Y-103101900D01*
X141788297Y-103256772D01*
X141821000Y-103421184D01*
X141821000Y-103588816D01*
X141788297Y-103753228D01*
X141724147Y-103908100D01*
X141631015Y-104047481D01*
X141512481Y-104166015D01*
X141373100Y-104259147D01*
X141218228Y-104323297D01*
X141053816Y-104356000D01*
X140886184Y-104356000D01*
X140721772Y-104323297D01*
X140566900Y-104259147D01*
X140427519Y-104166015D01*
X140308985Y-104047481D01*
X140215853Y-103908100D01*
X140151703Y-103753228D01*
X140119000Y-103588816D01*
X140119000Y-103421184D01*
X140151703Y-103256772D01*
X140215853Y-103101900D01*
X140308985Y-102962519D01*
X140427519Y-102843985D01*
X140566900Y-102750853D01*
X140721772Y-102686703D01*
X140886184Y-102654000D01*
X141053816Y-102654000D01*
X141218228Y-102686703D01*
G37*
G36*
X145456000Y-104286000D02*
G01*
X144104000Y-104286000D01*
X144104000Y-102684000D01*
X145456000Y-102684000D01*
X145456000Y-104286000D01*
G37*
G36*
X127101000Y-104211000D02*
G01*
X125199000Y-104211000D01*
X125199000Y-103109000D01*
X127101000Y-103109000D01*
X127101000Y-104211000D01*
G37*
G36*
X150137395Y-101320546D02*
G01*
X150310466Y-101392234D01*
X150310467Y-101392235D01*
X150466227Y-101496310D01*
X150598690Y-101628773D01*
X150598691Y-101628775D01*
X150702766Y-101784534D01*
X150774454Y-101957605D01*
X150811000Y-102141333D01*
X150811000Y-102328667D01*
X150774454Y-102512395D01*
X150702766Y-102685466D01*
X150702765Y-102685467D01*
X150598690Y-102841227D01*
X150466227Y-102973690D01*
X150387818Y-103026081D01*
X150310466Y-103077766D01*
X150137395Y-103149454D01*
X149953667Y-103186000D01*
X149766333Y-103186000D01*
X149582605Y-103149454D01*
X149409534Y-103077766D01*
X149332182Y-103026081D01*
X149253773Y-102973690D01*
X149121310Y-102841227D01*
X149017235Y-102685467D01*
X149017234Y-102685466D01*
X148945546Y-102512395D01*
X148909000Y-102328667D01*
X148909000Y-102141333D01*
X148945546Y-101957605D01*
X149017234Y-101784534D01*
X149121309Y-101628775D01*
X149121310Y-101628773D01*
X149253773Y-101496310D01*
X149409533Y-101392235D01*
X149409534Y-101392234D01*
X149582605Y-101320546D01*
X149766333Y-101284000D01*
X149953667Y-101284000D01*
X150137395Y-101320546D01*
G37*
G36*
X127101000Y-102211000D02*
G01*
X125199000Y-102211000D01*
X125199000Y-101109000D01*
X127101000Y-101109000D01*
X127101000Y-102211000D01*
G37*
G36*
X156510740Y-98808435D02*
G01*
X156662410Y-98838604D01*
X156944674Y-98955521D01*
X157198705Y-99125259D01*
X157414741Y-99341295D01*
X157584479Y-99595326D01*
X157701396Y-99877590D01*
X157761000Y-100177240D01*
X157761000Y-100482760D01*
X157701396Y-100782410D01*
X157584479Y-101064674D01*
X157414741Y-101318705D01*
X157198705Y-101534741D01*
X156944674Y-101704479D01*
X156662410Y-101821396D01*
X156512585Y-101851198D01*
X156362761Y-101881000D01*
X156057239Y-101881000D01*
X155907415Y-101851198D01*
X155757590Y-101821396D01*
X155475326Y-101704479D01*
X155221295Y-101534741D01*
X155005259Y-101318705D01*
X154835521Y-101064674D01*
X154718604Y-100782410D01*
X154659000Y-100482760D01*
X154659000Y-100177240D01*
X154718604Y-99877590D01*
X154835521Y-99595326D01*
X155005259Y-99341295D01*
X155221295Y-99125259D01*
X155475326Y-98955521D01*
X155757590Y-98838604D01*
X155909260Y-98808435D01*
X156057239Y-98779000D01*
X156362761Y-98779000D01*
X156510740Y-98808435D01*
G37*
G36*
X145456000Y-101786000D02*
G01*
X144104000Y-101786000D01*
X144104000Y-100184000D01*
X145456000Y-100184000D01*
X145456000Y-101786000D01*
G37*
G36*
X117201000Y-100361000D02*
G01*
X116099000Y-100361000D01*
X116099000Y-97759000D01*
X117201000Y-97759000D01*
X117201000Y-100361000D01*
G37*
G36*
X111201000Y-100361000D02*
G01*
X110099000Y-100361000D01*
X110099000Y-97759000D01*
X111201000Y-97759000D01*
X111201000Y-100361000D01*
G37*
G36*
X125201000Y-100361000D02*
G01*
X124099000Y-100361000D01*
X124099000Y-97759000D01*
X125201000Y-97759000D01*
X125201000Y-100361000D01*
G37*
G36*
X123201000Y-100361000D02*
G01*
X122099000Y-100361000D01*
X122099000Y-97759000D01*
X123201000Y-97759000D01*
X123201000Y-100361000D01*
G37*
G36*
X121201000Y-100361000D02*
G01*
X120099000Y-100361000D01*
X120099000Y-97759000D01*
X121201000Y-97759000D01*
X121201000Y-100361000D01*
G37*
G36*
X119201000Y-100361000D02*
G01*
X118099000Y-100361000D01*
X118099000Y-97759000D01*
X119201000Y-97759000D01*
X119201000Y-100361000D01*
G37*
G36*
X115201000Y-100361000D02*
G01*
X114099000Y-100361000D01*
X114099000Y-97759000D01*
X115201000Y-97759000D01*
X115201000Y-100361000D01*
G37*
G36*
X113201000Y-100361000D02*
G01*
X112099000Y-100361000D01*
X112099000Y-97759000D01*
X113201000Y-97759000D01*
X113201000Y-100361000D01*
G37*
G36*
X132386564Y-98104389D02*
G01*
X132577833Y-98183615D01*
X132577835Y-98183616D01*
X132749973Y-98298635D01*
X132896365Y-98445027D01*
X133011385Y-98617167D01*
X133090611Y-98808436D01*
X133131000Y-99011484D01*
X133131000Y-99218516D01*
X133090611Y-99421564D01*
X133018636Y-99595328D01*
X133011384Y-99612835D01*
X132896365Y-99784973D01*
X132749973Y-99931365D01*
X132577835Y-100046384D01*
X132577834Y-100046385D01*
X132577833Y-100046385D01*
X132386564Y-100125611D01*
X132183516Y-100166000D01*
X131976484Y-100166000D01*
X131773436Y-100125611D01*
X131582167Y-100046385D01*
X131582166Y-100046385D01*
X131582165Y-100046384D01*
X131410027Y-99931365D01*
X131263635Y-99784973D01*
X131148616Y-99612835D01*
X131141364Y-99595328D01*
X131069389Y-99421564D01*
X131029000Y-99218516D01*
X131029000Y-99011484D01*
X131069389Y-98808436D01*
X131148615Y-98617167D01*
X131263635Y-98445027D01*
X131410027Y-98298635D01*
X131582165Y-98183616D01*
X131582167Y-98183615D01*
X131773436Y-98104389D01*
X131976484Y-98064000D01*
X132183516Y-98064000D01*
X132386564Y-98104389D01*
G37*
G36*
X138886564Y-98104389D02*
G01*
X139077833Y-98183615D01*
X139077835Y-98183616D01*
X139249973Y-98298635D01*
X139396365Y-98445027D01*
X139511385Y-98617167D01*
X139590611Y-98808436D01*
X139631000Y-99011484D01*
X139631000Y-99218516D01*
X139590611Y-99421564D01*
X139518636Y-99595328D01*
X139511384Y-99612835D01*
X139396365Y-99784973D01*
X139249973Y-99931365D01*
X139077835Y-100046384D01*
X139077834Y-100046385D01*
X139077833Y-100046385D01*
X138886564Y-100125611D01*
X138683516Y-100166000D01*
X138476484Y-100166000D01*
X138273436Y-100125611D01*
X138082167Y-100046385D01*
X138082166Y-100046385D01*
X138082165Y-100046384D01*
X137910027Y-99931365D01*
X137763635Y-99784973D01*
X137648616Y-99612835D01*
X137641364Y-99595328D01*
X137569389Y-99421564D01*
X137529000Y-99218516D01*
X137529000Y-99011484D01*
X137569389Y-98808436D01*
X137648615Y-98617167D01*
X137763635Y-98445027D01*
X137910027Y-98298635D01*
X138082165Y-98183616D01*
X138082167Y-98183615D01*
X138273436Y-98104389D01*
X138476484Y-98064000D01*
X138683516Y-98064000D01*
X138886564Y-98104389D01*
G37*
G36*
X145096000Y-97471000D02*
G01*
X143194000Y-97471000D01*
X143194000Y-95569000D01*
X145096000Y-95569000D01*
X145096000Y-97471000D01*
G37*
G36*
X146962395Y-95605546D02*
G01*
X147135466Y-95677234D01*
X147163331Y-95695853D01*
X147291227Y-95781310D01*
X147423690Y-95913773D01*
X147423691Y-95913775D01*
X147527766Y-96069534D01*
X147599454Y-96242605D01*
X147636000Y-96426333D01*
X147636000Y-96613667D01*
X147599454Y-96797395D01*
X147527766Y-96970466D01*
X147527765Y-96970467D01*
X147423690Y-97126227D01*
X147291227Y-97258690D01*
X147212818Y-97311081D01*
X147135466Y-97362766D01*
X146962395Y-97434454D01*
X146778667Y-97471000D01*
X146591333Y-97471000D01*
X146407605Y-97434454D01*
X146234534Y-97362766D01*
X146157182Y-97311081D01*
X146078773Y-97258690D01*
X145946310Y-97126227D01*
X145842235Y-96970467D01*
X145842234Y-96970466D01*
X145770546Y-96797395D01*
X145734000Y-96613667D01*
X145734000Y-96426333D01*
X145770546Y-96242605D01*
X145842234Y-96069534D01*
X145946309Y-95913775D01*
X145946310Y-95913773D01*
X146078773Y-95781310D01*
X146206669Y-95695853D01*
X146234534Y-95677234D01*
X146407605Y-95605546D01*
X146591333Y-95569000D01*
X146778667Y-95569000D01*
X146962395Y-95605546D01*
G37*
G36*
X149502395Y-95605546D02*
G01*
X149675466Y-95677234D01*
X149703331Y-95695853D01*
X149831227Y-95781310D01*
X149963690Y-95913773D01*
X149963691Y-95913775D01*
X150067766Y-96069534D01*
X150139454Y-96242605D01*
X150176000Y-96426333D01*
X150176000Y-96613667D01*
X150139454Y-96797395D01*
X150067766Y-96970466D01*
X150067765Y-96970467D01*
X149963690Y-97126227D01*
X149831227Y-97258690D01*
X149752818Y-97311081D01*
X149675466Y-97362766D01*
X149502395Y-97434454D01*
X149318667Y-97471000D01*
X149131333Y-97471000D01*
X148947605Y-97434454D01*
X148774534Y-97362766D01*
X148697182Y-97311081D01*
X148618773Y-97258690D01*
X148486310Y-97126227D01*
X148382235Y-96970467D01*
X148382234Y-96970466D01*
X148310546Y-96797395D01*
X148274000Y-96613667D01*
X148274000Y-96426333D01*
X148310546Y-96242605D01*
X148382234Y-96069534D01*
X148486309Y-95913775D01*
X148486310Y-95913773D01*
X148618773Y-95781310D01*
X148746669Y-95695853D01*
X148774534Y-95677234D01*
X148947605Y-95605546D01*
X149131333Y-95569000D01*
X149318667Y-95569000D01*
X149502395Y-95605546D01*
G37*
G36*
X156512585Y-93728802D02*
G01*
X156662410Y-93758604D01*
X156944674Y-93875521D01*
X157198705Y-94045259D01*
X157414741Y-94261295D01*
X157584479Y-94515326D01*
X157674720Y-94733189D01*
X157701396Y-94797591D01*
X157761000Y-95097239D01*
X157761000Y-95402761D01*
X157757017Y-95422784D01*
X157701396Y-95702410D01*
X157584479Y-95984674D01*
X157414741Y-96238705D01*
X157198705Y-96454741D01*
X156944674Y-96624479D01*
X156662410Y-96741396D01*
X156512585Y-96771198D01*
X156362761Y-96801000D01*
X156057239Y-96801000D01*
X155907415Y-96771198D01*
X155757590Y-96741396D01*
X155475326Y-96624479D01*
X155221295Y-96454741D01*
X155005259Y-96238705D01*
X154835521Y-95984674D01*
X154718604Y-95702410D01*
X154662983Y-95422784D01*
X154659000Y-95402761D01*
X154659000Y-95097239D01*
X154718604Y-94797591D01*
X154745280Y-94733189D01*
X154835521Y-94515326D01*
X155005259Y-94261295D01*
X155221295Y-94045259D01*
X155475326Y-93875521D01*
X155757590Y-93758604D01*
X155907415Y-93728802D01*
X156057239Y-93699000D01*
X156362761Y-93699000D01*
X156512585Y-93728802D01*
G37*
G36*
X115429512Y-94099927D02*
G01*
X115578812Y-94129624D01*
X115742784Y-94197544D01*
X115890354Y-94296147D01*
X116015853Y-94421646D01*
X116114456Y-94569216D01*
X116182376Y-94733188D01*
X116217000Y-94907259D01*
X116217000Y-95084741D01*
X116182376Y-95258812D01*
X116114456Y-95422784D01*
X116015853Y-95570354D01*
X115890354Y-95695853D01*
X115742784Y-95794456D01*
X115578812Y-95862376D01*
X115429512Y-95892073D01*
X115404742Y-95897000D01*
X115227258Y-95897000D01*
X115202488Y-95892073D01*
X115053188Y-95862376D01*
X114889216Y-95794456D01*
X114741646Y-95695853D01*
X114616147Y-95570354D01*
X114517544Y-95422784D01*
X114449624Y-95258812D01*
X114415000Y-95084741D01*
X114415000Y-94907259D01*
X114449624Y-94733188D01*
X114517544Y-94569216D01*
X114616147Y-94421646D01*
X114741646Y-94296147D01*
X114889216Y-94197544D01*
X115053188Y-94129624D01*
X115202488Y-94099927D01*
X115227258Y-94095000D01*
X115404742Y-94095000D01*
X115429512Y-94099927D01*
G37*
G36*
X112889512Y-94099927D02*
G01*
X113038812Y-94129624D01*
X113202784Y-94197544D01*
X113350354Y-94296147D01*
X113475853Y-94421646D01*
X113574456Y-94569216D01*
X113642376Y-94733188D01*
X113677000Y-94907259D01*
X113677000Y-95084741D01*
X113642376Y-95258812D01*
X113574456Y-95422784D01*
X113475853Y-95570354D01*
X113350354Y-95695853D01*
X113202784Y-95794456D01*
X113038812Y-95862376D01*
X112889512Y-95892073D01*
X112864742Y-95897000D01*
X112687258Y-95897000D01*
X112662488Y-95892073D01*
X112513188Y-95862376D01*
X112349216Y-95794456D01*
X112201646Y-95695853D01*
X112076147Y-95570354D01*
X111977544Y-95422784D01*
X111909624Y-95258812D01*
X111875000Y-95084741D01*
X111875000Y-94907259D01*
X111909624Y-94733188D01*
X111977544Y-94569216D01*
X112076147Y-94421646D01*
X112201646Y-94296147D01*
X112349216Y-94197544D01*
X112513188Y-94129624D01*
X112662488Y-94099927D01*
X112687258Y-94095000D01*
X112864742Y-94095000D01*
X112889512Y-94099927D01*
G37*
G36*
X110349512Y-94099927D02*
G01*
X110498812Y-94129624D01*
X110662784Y-94197544D01*
X110810354Y-94296147D01*
X110935853Y-94421646D01*
X111034456Y-94569216D01*
X111102376Y-94733188D01*
X111137000Y-94907259D01*
X111137000Y-95084741D01*
X111102376Y-95258812D01*
X111034456Y-95422784D01*
X110935853Y-95570354D01*
X110810354Y-95695853D01*
X110662784Y-95794456D01*
X110498812Y-95862376D01*
X110349512Y-95892073D01*
X110324742Y-95897000D01*
X110147258Y-95897000D01*
X110122488Y-95892073D01*
X109973188Y-95862376D01*
X109809216Y-95794456D01*
X109661646Y-95695853D01*
X109536147Y-95570354D01*
X109437544Y-95422784D01*
X109369624Y-95258812D01*
X109335000Y-95084741D01*
X109335000Y-94907259D01*
X109369624Y-94733188D01*
X109437544Y-94569216D01*
X109536147Y-94421646D01*
X109661646Y-94296147D01*
X109809216Y-94197544D01*
X109973188Y-94129624D01*
X110122488Y-94099927D01*
X110147258Y-94095000D01*
X110324742Y-94095000D01*
X110349512Y-94099927D01*
G37*
G36*
X118757000Y-95897000D02*
G01*
X116955000Y-95897000D01*
X116955000Y-94095000D01*
X118757000Y-94095000D01*
X118757000Y-95897000D01*
G37*
G36*
X132386564Y-93604389D02*
G01*
X132577833Y-93683615D01*
X132577835Y-93683616D01*
X132749973Y-93798635D01*
X132896365Y-93945027D01*
X132963339Y-94045260D01*
X133011385Y-94117167D01*
X133090611Y-94308436D01*
X133131000Y-94511484D01*
X133131000Y-94718516D01*
X133090611Y-94921564D01*
X133017844Y-95097239D01*
X133011384Y-95112835D01*
X132896365Y-95284973D01*
X132749973Y-95431365D01*
X132577835Y-95546384D01*
X132577834Y-95546385D01*
X132577833Y-95546385D01*
X132386564Y-95625611D01*
X132183516Y-95666000D01*
X131976484Y-95666000D01*
X131773436Y-95625611D01*
X131582167Y-95546385D01*
X131582166Y-95546385D01*
X131582165Y-95546384D01*
X131410027Y-95431365D01*
X131263635Y-95284973D01*
X131148616Y-95112835D01*
X131142156Y-95097239D01*
X131069389Y-94921564D01*
X131029000Y-94718516D01*
X131029000Y-94511484D01*
X131069389Y-94308436D01*
X131148615Y-94117167D01*
X131196662Y-94045260D01*
X131263635Y-93945027D01*
X131410027Y-93798635D01*
X131582165Y-93683616D01*
X131582167Y-93683615D01*
X131773436Y-93604389D01*
X131976484Y-93564000D01*
X132183516Y-93564000D01*
X132386564Y-93604389D01*
G37*
G36*
X138886564Y-93604389D02*
G01*
X139077833Y-93683615D01*
X139077835Y-93683616D01*
X139249973Y-93798635D01*
X139396365Y-93945027D01*
X139463339Y-94045260D01*
X139511385Y-94117167D01*
X139590611Y-94308436D01*
X139631000Y-94511484D01*
X139631000Y-94718516D01*
X139590611Y-94921564D01*
X139517844Y-95097239D01*
X139511384Y-95112835D01*
X139396365Y-95284973D01*
X139249973Y-95431365D01*
X139077835Y-95546384D01*
X139077834Y-95546385D01*
X139077833Y-95546385D01*
X138886564Y-95625611D01*
X138683516Y-95666000D01*
X138476484Y-95666000D01*
X138273436Y-95625611D01*
X138082167Y-95546385D01*
X138082166Y-95546385D01*
X138082165Y-95546384D01*
X137910027Y-95431365D01*
X137763635Y-95284973D01*
X137648616Y-95112835D01*
X137642156Y-95097239D01*
X137569389Y-94921564D01*
X137529000Y-94718516D01*
X137529000Y-94511484D01*
X137569389Y-94308436D01*
X137648615Y-94117167D01*
X137696662Y-94045260D01*
X137763635Y-93945027D01*
X137910027Y-93798635D01*
X138082165Y-93683616D01*
X138082167Y-93683615D01*
X138273436Y-93604389D01*
X138476484Y-93564000D01*
X138683516Y-93564000D01*
X138886564Y-93604389D01*
G37*
G36*
X127166000Y-95316000D02*
G01*
X125564000Y-95316000D01*
X125564000Y-93914000D01*
X127166000Y-93914000D01*
X127166000Y-95316000D01*
G37*
G36*
X124466000Y-95316000D02*
G01*
X122864000Y-95316000D01*
X122864000Y-93914000D01*
X124466000Y-93914000D01*
X124466000Y-95316000D01*
G37*
G36*
X111663680Y-91851680D02*
G01*
X109062320Y-91851680D01*
X109062320Y-89250320D01*
X111663680Y-89250320D01*
X111663680Y-91851680D01*
G37*
G36*
X151287680Y-91851680D02*
G01*
X148686320Y-91851680D01*
X148686320Y-89250320D01*
X151287680Y-89250320D01*
X151287680Y-91851680D01*
G37*
G36*
X157761000Y-91721000D02*
G01*
X154659000Y-91721000D01*
X154659000Y-88619000D01*
X157761000Y-88619000D01*
X157761000Y-91721000D01*
G37*
G36*
X106057000Y-86753000D02*
G01*
X104255000Y-86753000D01*
X104255000Y-84951000D01*
X106057000Y-84951000D01*
X106057000Y-86753000D01*
G37*
G36*
X156512585Y-82298802D02*
G01*
X156662410Y-82328604D01*
X156944674Y-82445521D01*
X157198705Y-82615259D01*
X157414741Y-82831295D01*
X157584479Y-83085326D01*
X157701396Y-83367590D01*
X157761000Y-83667240D01*
X157761000Y-83972760D01*
X157701396Y-84272410D01*
X157584479Y-84554674D01*
X157414741Y-84808705D01*
X157198705Y-85024741D01*
X156944674Y-85194479D01*
X156662410Y-85311396D01*
X156512585Y-85341198D01*
X156362761Y-85371000D01*
X156057239Y-85371000D01*
X155907415Y-85341198D01*
X155757590Y-85311396D01*
X155475326Y-85194479D01*
X155221295Y-85024741D01*
X155005259Y-84808705D01*
X154835521Y-84554674D01*
X154718604Y-84272410D01*
X154659000Y-83972760D01*
X154659000Y-83667240D01*
X154718604Y-83367590D01*
X154835521Y-83085326D01*
X155005259Y-82831295D01*
X155221295Y-82615259D01*
X155475326Y-82445521D01*
X155757590Y-82328604D01*
X155907415Y-82298802D01*
X156057239Y-82269000D01*
X156362761Y-82269000D01*
X156512585Y-82298802D01*
G37*
G36*
X105269512Y-82415927D02*
G01*
X105418812Y-82445624D01*
X105582784Y-82513544D01*
X105730354Y-82612147D01*
X105855853Y-82737646D01*
X105954456Y-82885216D01*
X106022376Y-83049188D01*
X106057000Y-83223259D01*
X106057000Y-83400741D01*
X106022376Y-83574812D01*
X105954456Y-83738784D01*
X105855853Y-83886354D01*
X105730354Y-84011853D01*
X105582784Y-84110456D01*
X105418812Y-84178376D01*
X105269512Y-84208073D01*
X105244742Y-84213000D01*
X105067258Y-84213000D01*
X105042488Y-84208073D01*
X104893188Y-84178376D01*
X104729216Y-84110456D01*
X104581646Y-84011853D01*
X104456147Y-83886354D01*
X104357544Y-83738784D01*
X104289624Y-83574812D01*
X104255000Y-83400741D01*
X104255000Y-83223259D01*
X104289624Y-83049188D01*
X104357544Y-82885216D01*
X104456147Y-82737646D01*
X104581646Y-82612147D01*
X104729216Y-82513544D01*
X104893188Y-82445624D01*
X105042488Y-82415927D01*
X105067258Y-82411000D01*
X105244742Y-82411000D01*
X105269512Y-82415927D01*
G37*
G36*
X157761000Y-80291000D02*
G01*
X154659000Y-80291000D01*
X154659000Y-77189000D01*
X157761000Y-77189000D01*
X157761000Y-80291000D01*
G37*
G36*
X107059487Y-74948996D02*
G01*
X107296253Y-75047068D01*
X107296255Y-75047069D01*
X107509339Y-75189447D01*
X107690553Y-75370661D01*
X107832932Y-75583747D01*
X107931004Y-75820513D01*
X107981000Y-76071861D01*
X107981000Y-76328139D01*
X107931004Y-76579487D01*
X107832932Y-76816253D01*
X107832931Y-76816255D01*
X107690553Y-77029339D01*
X107509339Y-77210553D01*
X107296255Y-77352931D01*
X107296254Y-77352932D01*
X107296253Y-77352932D01*
X107059487Y-77451004D01*
X106808139Y-77501000D01*
X106551861Y-77501000D01*
X106300513Y-77451004D01*
X106063747Y-77352932D01*
X106063746Y-77352932D01*
X106063745Y-77352931D01*
X105850661Y-77210553D01*
X105669447Y-77029339D01*
X105527069Y-76816255D01*
X105527068Y-76816253D01*
X105428996Y-76579487D01*
X105379000Y-76328139D01*
X105379000Y-76071861D01*
X105428996Y-75820513D01*
X105527068Y-75583747D01*
X105669447Y-75370661D01*
X105850661Y-75189447D01*
X106063745Y-75047069D01*
X106063747Y-75047068D01*
X106300513Y-74948996D01*
X106551861Y-74899000D01*
X106808139Y-74899000D01*
X107059487Y-74948996D01*
G37*
G36*
X151287680Y-74579680D02*
G01*
X148686320Y-74579680D01*
X148686320Y-71978320D01*
X151287680Y-71978320D01*
X151287680Y-74579680D01*
G37*
G36*
X111663680Y-74579680D02*
G01*
X109062320Y-74579680D01*
X109062320Y-71978320D01*
X111663680Y-71978320D01*
X111663680Y-74579680D01*
G37*
M02*
