G04 #@! TF.GenerationSoftware,KiCad,Pcbnew,(5.1.5)-3*
G04 #@! TF.CreationDate,2020-04-09T15:05:06+03:00*
G04 #@! TF.ProjectId,DCDimmer,44434469-6d6d-4657-922e-6b696361645f,rev?*
G04 #@! TF.SameCoordinates,Original*
G04 #@! TF.FileFunction,Copper,L1,Top*
G04 #@! TF.FilePolarity,Positive*
%FSLAX46Y46*%
G04 Gerber Fmt 4.6, Leading zero omitted, Abs format (unit mm)*
G04 Created by KiCad (PCBNEW (5.1.5)-3) date 2020-04-09 15:05:06*
%MOMM*%
%LPD*%
G04 APERTURE LIST*
%ADD10C,2.000000*%
%ADD11R,1.600000X1.600000*%
%ADD12O,1.600000X1.600000*%
%ADD13R,1.800000X1.800000*%
%ADD14O,1.800000X1.800000*%
%ADD15C,3.000000*%
%ADD16R,3.000000X3.000000*%
%ADD17R,2.499360X2.499360*%
%ADD18R,1.700000X1.700000*%
%ADD19O,1.700000X1.700000*%
%ADD20R,1.250000X1.500000*%
%ADD21R,1.500000X1.300000*%
%ADD22R,1.000000X2.500000*%
%ADD23R,1.800000X1.000000*%
%ADD24C,0.800000*%
%ADD25C,0.250000*%
%ADD26C,0.500000*%
%ADD27C,1.500000*%
%ADD28C,0.254000*%
G04 APERTURE END LIST*
D10*
X132080000Y-99115000D03*
X132080000Y-94615000D03*
X138580000Y-99115000D03*
X138580000Y-94615000D03*
D11*
X133350000Y-103505000D03*
D12*
X140970000Y-111125000D03*
X133350000Y-106045000D03*
X140970000Y-108585000D03*
X133350000Y-108585000D03*
X140970000Y-106045000D03*
X133350000Y-111125000D03*
X140970000Y-103505000D03*
D13*
X144145000Y-96520000D03*
D14*
X146685000Y-96520000D03*
X149225000Y-96520000D03*
D15*
X156210000Y-95250000D03*
X156210000Y-100330000D03*
D16*
X156210000Y-90170000D03*
D15*
X156210000Y-105410000D03*
X156210000Y-110490000D03*
D16*
X156210000Y-78740000D03*
D15*
X156210000Y-83820000D03*
D17*
X110363000Y-73279000D03*
X110363000Y-90551000D03*
X149987000Y-73279000D03*
X149987000Y-90551000D03*
D18*
X119888000Y-118364000D03*
D19*
X117348000Y-118364000D03*
X114808000Y-118364000D03*
X112268000Y-118364000D03*
X109728000Y-118364000D03*
X107188000Y-118364000D03*
D18*
X117856000Y-94996000D03*
D19*
X115316000Y-94996000D03*
X112776000Y-94996000D03*
X110236000Y-94996000D03*
D18*
X123952000Y-118364000D03*
D19*
X126492000Y-118364000D03*
D20*
X132588000Y-116098000D03*
X132588000Y-118598000D03*
D21*
X123665000Y-94615000D03*
X126365000Y-94615000D03*
D20*
X144780000Y-103485000D03*
X144780000Y-100985000D03*
X129540000Y-115276000D03*
X129540000Y-112776000D03*
D18*
X105156000Y-85852000D03*
D19*
X105156000Y-83312000D03*
D18*
X136652000Y-118745000D03*
D19*
X136652000Y-116205000D03*
X139192000Y-118745000D03*
X139192000Y-116205000D03*
X141732000Y-118745000D03*
X141732000Y-116205000D03*
D13*
X149860000Y-107315000D03*
D14*
X149860000Y-104775000D03*
X149860000Y-102235000D03*
D13*
X149860000Y-118110000D03*
D14*
X149860000Y-115570000D03*
X149860000Y-113030000D03*
D22*
X110650000Y-114260000D03*
X112650000Y-114260000D03*
X114650000Y-114260000D03*
X116650000Y-114260000D03*
X118650000Y-114260000D03*
X120650000Y-114260000D03*
X122650000Y-114260000D03*
X124650000Y-114260000D03*
D23*
X126150000Y-111660000D03*
X126150000Y-109660000D03*
X126150000Y-107660000D03*
X126150000Y-105660000D03*
X126150000Y-103660000D03*
X126150000Y-101660000D03*
D22*
X124650000Y-99060000D03*
X122650000Y-99060000D03*
X120650000Y-99060000D03*
X118650000Y-99060000D03*
X116650000Y-99060000D03*
X114650000Y-99060000D03*
X112650000Y-99060000D03*
X110650000Y-99060000D03*
D24*
X110744000Y-111252000D03*
X114808000Y-110744000D03*
X130175000Y-107315000D03*
X122555000Y-102870000D03*
X123444000Y-111760000D03*
X118872000Y-102108000D03*
X120904000Y-110744000D03*
X118745000Y-110490000D03*
X116840000Y-111125000D03*
D25*
X110744000Y-114166000D02*
X110650000Y-114260000D01*
X110744000Y-111252000D02*
X110744000Y-114166000D01*
X110650000Y-114902000D02*
X110650000Y-114260000D01*
X110650000Y-114260000D02*
X110650000Y-116045000D01*
X110650000Y-116045000D02*
X109855000Y-116840000D01*
X108712000Y-116840000D02*
X107188000Y-118364000D01*
X109855000Y-116840000D02*
X108712000Y-116840000D01*
X114808000Y-114102000D02*
X114650000Y-114260000D01*
X114808000Y-110744000D02*
X114808000Y-114102000D01*
D26*
X105156000Y-83312000D02*
X112776000Y-83312000D01*
X117856000Y-88392000D02*
X117856000Y-94996000D01*
X112776000Y-83312000D02*
X117856000Y-88392000D01*
X144760000Y-103505000D02*
X144780000Y-103485000D01*
X140970000Y-103505000D02*
X144760000Y-103505000D01*
X144780000Y-115697000D02*
X141732000Y-118745000D01*
X144780000Y-103485000D02*
X144780000Y-115697000D01*
X124690000Y-114300000D02*
X124650000Y-114260000D01*
X124650000Y-117666000D02*
X123952000Y-118364000D01*
X124650000Y-114260000D02*
X124650000Y-117666000D01*
X129540000Y-112901000D02*
X129540000Y-112776000D01*
X128181000Y-114260000D02*
X129540000Y-112901000D01*
X124650000Y-114260000D02*
X128181000Y-114260000D01*
X139065000Y-101600000D02*
X140970000Y-103505000D01*
X130175000Y-107315000D02*
X130810000Y-106680000D01*
X132844998Y-101600000D02*
X139065000Y-101600000D01*
X130810000Y-103634998D02*
X132844998Y-101600000D01*
X130810000Y-106680000D02*
X130810000Y-103634998D01*
X130175000Y-112141000D02*
X129540000Y-112776000D01*
X130175000Y-107315000D02*
X130175000Y-112141000D01*
X136271000Y-118364000D02*
X136652000Y-118745000D01*
X140450000Y-100985000D02*
X138580000Y-99115000D01*
X144780000Y-100985000D02*
X140450000Y-100985000D01*
X148610000Y-100985000D02*
X149860000Y-102235000D01*
X144780000Y-100985000D02*
X148610000Y-100985000D01*
X144780000Y-100985000D02*
X144780000Y-101110000D01*
X132080000Y-99115000D02*
X138580000Y-99115000D01*
X129540000Y-116526000D02*
X127702000Y-118364000D01*
X127694081Y-118364000D02*
X126492000Y-118364000D01*
X127702000Y-118364000D02*
X127694081Y-118364000D01*
X131612000Y-118598000D02*
X132588000Y-118598000D01*
X129540000Y-116526000D02*
X131612000Y-118598000D01*
X129540000Y-115276000D02*
X129540000Y-116526000D01*
X136505000Y-118598000D02*
X136652000Y-118745000D01*
X132588000Y-118598000D02*
X136505000Y-118598000D01*
X129540000Y-114935000D02*
X129540000Y-115276000D01*
X133350000Y-111125000D02*
X129540000Y-114935000D01*
X125650000Y-99060000D02*
X124650000Y-99060000D01*
X126365000Y-98345000D02*
X125650000Y-99060000D01*
X126365000Y-94615000D02*
X126365000Y-98345000D01*
X127580000Y-94615000D02*
X126365000Y-94615000D01*
X132080000Y-99115000D02*
X127580000Y-94615000D01*
D25*
X120650000Y-99060000D02*
X120650000Y-100965000D01*
X120650000Y-100965000D02*
X122555000Y-102870000D01*
D26*
X108613320Y-90551000D02*
X110363000Y-90551000D01*
X105156000Y-87202000D02*
X108505000Y-90551000D01*
X108505000Y-90551000D02*
X108613320Y-90551000D01*
X105156000Y-85852000D02*
X105156000Y-87202000D01*
D25*
X136545000Y-116098000D02*
X136652000Y-116205000D01*
X132588000Y-116098000D02*
X136545000Y-116098000D01*
X136652000Y-115002919D02*
X136652000Y-116205000D01*
X136652000Y-105757000D02*
X136652000Y-115002919D01*
X134400000Y-103505000D02*
X136652000Y-105757000D01*
X133350000Y-103505000D02*
X134400000Y-103505000D01*
X133270000Y-103425000D02*
X133350000Y-103505000D01*
D27*
X155829000Y-90551000D02*
X156210000Y-90170000D01*
X149987000Y-90551000D02*
X155829000Y-90551000D01*
X156210000Y-90170000D02*
X156210000Y-83820000D01*
X156210000Y-90170000D02*
X156210000Y-95250000D01*
D25*
X140970000Y-111125000D02*
X140970000Y-113538000D01*
X140041999Y-117895001D02*
X139192000Y-118745000D01*
X140367001Y-117569999D02*
X140041999Y-117895001D01*
X140367001Y-114140999D02*
X140367001Y-117569999D01*
X140970000Y-113538000D02*
X140367001Y-114140999D01*
X123190000Y-113890000D02*
X122800000Y-114280000D01*
X122650000Y-114260000D02*
X122650000Y-112554000D01*
X122650000Y-112554000D02*
X123444000Y-111760000D01*
X142581999Y-109065629D02*
X142581999Y-115355001D01*
X142101370Y-108585000D02*
X142581999Y-109065629D01*
X142581999Y-115355001D02*
X141732000Y-116205000D01*
X140970000Y-108585000D02*
X142101370Y-108585000D01*
X122665000Y-94615000D02*
X123665000Y-94615000D01*
X122650000Y-94630000D02*
X122665000Y-94615000D01*
X122650000Y-99060000D02*
X122650000Y-94630000D01*
X118872000Y-99282000D02*
X118650000Y-99060000D01*
X118872000Y-102108000D02*
X118872000Y-99282000D01*
X118650000Y-97560000D02*
X120650000Y-95560000D01*
X118650000Y-99060000D02*
X118650000Y-97560000D01*
X120650000Y-95560000D02*
X120650000Y-94615000D01*
X120650000Y-94615000D02*
X122555000Y-92710000D01*
X130175000Y-92710000D02*
X132080000Y-94615000D01*
X122555000Y-92710000D02*
X130175000Y-92710000D01*
X132080000Y-94615000D02*
X138580000Y-94615000D01*
X120904000Y-114006000D02*
X120650000Y-114260000D01*
X120904000Y-110744000D02*
X120904000Y-114006000D01*
X115214000Y-94996000D02*
X115316000Y-94996000D01*
X112650000Y-97560000D02*
X115214000Y-94996000D01*
X112650000Y-99060000D02*
X112650000Y-97560000D01*
X110650000Y-97122000D02*
X112776000Y-94996000D01*
X110650000Y-99060000D02*
X110650000Y-97122000D01*
X112650000Y-115442000D02*
X112650000Y-114260000D01*
X109728000Y-118364000D02*
X112650000Y-115442000D01*
X116650000Y-99060000D02*
X116650000Y-103315000D01*
X116650000Y-103315000D02*
X118745000Y-105410000D01*
X118745000Y-105410000D02*
X118745000Y-110490000D01*
X114650000Y-99060000D02*
X114650000Y-103220000D01*
X116840000Y-105410000D02*
X116840000Y-111125000D01*
X114650000Y-103220000D02*
X116840000Y-105410000D01*
X118650000Y-114522000D02*
X118650000Y-114260000D01*
X114808000Y-118364000D02*
X118650000Y-114522000D01*
X116650000Y-115010000D02*
X116650000Y-114260000D01*
X115900000Y-115760000D02*
X116650000Y-115010000D01*
X115485002Y-115760000D02*
X115900000Y-115760000D01*
X113731001Y-117514001D02*
X115485002Y-115760000D01*
X113117999Y-117514001D02*
X113731001Y-117514001D01*
X112268000Y-118364000D02*
X113117999Y-117514001D01*
D27*
X154088680Y-100330000D02*
X156210000Y-100330000D01*
X150296998Y-100330000D02*
X154088680Y-100330000D01*
X146685000Y-96718002D02*
X150296998Y-100330000D01*
X146685000Y-96520000D02*
X146685000Y-96718002D01*
X155575000Y-104775000D02*
X156210000Y-105410000D01*
X149860000Y-104775000D02*
X155575000Y-104775000D01*
X151130000Y-115570000D02*
X156210000Y-110490000D01*
X149860000Y-115570000D02*
X151130000Y-115570000D01*
D28*
G36*
X108523818Y-71785140D02*
G01*
X108487508Y-71904838D01*
X108475248Y-72029320D01*
X108478320Y-72993250D01*
X108637070Y-73152000D01*
X110236000Y-73152000D01*
X110236000Y-73132000D01*
X110490000Y-73132000D01*
X110490000Y-73152000D01*
X112088930Y-73152000D01*
X112247680Y-72993250D01*
X112250752Y-72029320D01*
X112238492Y-71904838D01*
X112202182Y-71785140D01*
X112188744Y-71760000D01*
X148161256Y-71760000D01*
X148147818Y-71785140D01*
X148111508Y-71904838D01*
X148099248Y-72029320D01*
X148102320Y-72993250D01*
X148261070Y-73152000D01*
X149860000Y-73152000D01*
X149860000Y-73132000D01*
X150114000Y-73132000D01*
X150114000Y-73152000D01*
X151712930Y-73152000D01*
X151871680Y-72993250D01*
X151874752Y-72029320D01*
X151862492Y-71904838D01*
X151826182Y-71785140D01*
X151812744Y-71760000D01*
X160940000Y-71760000D01*
X160940001Y-120480000D01*
X102240000Y-120480000D01*
X102240000Y-116332000D01*
X108145197Y-116332000D01*
X107554407Y-116922790D01*
X107334260Y-116879000D01*
X107041740Y-116879000D01*
X106754842Y-116936068D01*
X106484589Y-117048010D01*
X106241368Y-117210525D01*
X106034525Y-117417368D01*
X105872010Y-117660589D01*
X105760068Y-117930842D01*
X105703000Y-118217740D01*
X105703000Y-118510260D01*
X105760068Y-118797158D01*
X105872010Y-119067411D01*
X106034525Y-119310632D01*
X106241368Y-119517475D01*
X106484589Y-119679990D01*
X106754842Y-119791932D01*
X107041740Y-119849000D01*
X107334260Y-119849000D01*
X107621158Y-119791932D01*
X107891411Y-119679990D01*
X108134632Y-119517475D01*
X108341475Y-119310632D01*
X108458000Y-119136240D01*
X108574525Y-119310632D01*
X108781368Y-119517475D01*
X109024589Y-119679990D01*
X109294842Y-119791932D01*
X109581740Y-119849000D01*
X109874260Y-119849000D01*
X110161158Y-119791932D01*
X110431411Y-119679990D01*
X110674632Y-119517475D01*
X110881475Y-119310632D01*
X110998000Y-119136240D01*
X111114525Y-119310632D01*
X111321368Y-119517475D01*
X111564589Y-119679990D01*
X111834842Y-119791932D01*
X112121740Y-119849000D01*
X112414260Y-119849000D01*
X112701158Y-119791932D01*
X112971411Y-119679990D01*
X113214632Y-119517475D01*
X113421475Y-119310632D01*
X113538000Y-119136240D01*
X113654525Y-119310632D01*
X113861368Y-119517475D01*
X114104589Y-119679990D01*
X114374842Y-119791932D01*
X114661740Y-119849000D01*
X114954260Y-119849000D01*
X115241158Y-119791932D01*
X115511411Y-119679990D01*
X115754632Y-119517475D01*
X115961475Y-119310632D01*
X116078000Y-119136240D01*
X116194525Y-119310632D01*
X116401368Y-119517475D01*
X116644589Y-119679990D01*
X116914842Y-119791932D01*
X117201740Y-119849000D01*
X117494260Y-119849000D01*
X117781158Y-119791932D01*
X118051411Y-119679990D01*
X118294632Y-119517475D01*
X118426487Y-119385620D01*
X118448498Y-119458180D01*
X118507463Y-119568494D01*
X118586815Y-119665185D01*
X118683506Y-119744537D01*
X118793820Y-119803502D01*
X118913518Y-119839812D01*
X119038000Y-119852072D01*
X120738000Y-119852072D01*
X120862482Y-119839812D01*
X120982180Y-119803502D01*
X121092494Y-119744537D01*
X121189185Y-119665185D01*
X121268537Y-119568494D01*
X121327502Y-119458180D01*
X121363812Y-119338482D01*
X121376072Y-119214000D01*
X121376072Y-117514000D01*
X121363812Y-117389518D01*
X121327502Y-117269820D01*
X121268537Y-117159506D01*
X121189185Y-117062815D01*
X121092494Y-116983463D01*
X120982180Y-116924498D01*
X120862482Y-116888188D01*
X120738000Y-116875928D01*
X119038000Y-116875928D01*
X118913518Y-116888188D01*
X118793820Y-116924498D01*
X118683506Y-116983463D01*
X118586815Y-117062815D01*
X118507463Y-117159506D01*
X118448498Y-117269820D01*
X118426487Y-117342380D01*
X118294632Y-117210525D01*
X118051411Y-117048010D01*
X117781158Y-116936068D01*
X117494260Y-116879000D01*
X117367802Y-116879000D01*
X117914802Y-116332000D01*
X123765001Y-116332000D01*
X123765001Y-116875928D01*
X123102000Y-116875928D01*
X122977518Y-116888188D01*
X122857820Y-116924498D01*
X122747506Y-116983463D01*
X122650815Y-117062815D01*
X122571463Y-117159506D01*
X122512498Y-117269820D01*
X122476188Y-117389518D01*
X122463928Y-117514000D01*
X122463928Y-119214000D01*
X122476188Y-119338482D01*
X122512498Y-119458180D01*
X122571463Y-119568494D01*
X122650815Y-119665185D01*
X122747506Y-119744537D01*
X122857820Y-119803502D01*
X122977518Y-119839812D01*
X123102000Y-119852072D01*
X124802000Y-119852072D01*
X124926482Y-119839812D01*
X125046180Y-119803502D01*
X125156494Y-119744537D01*
X125253185Y-119665185D01*
X125332537Y-119568494D01*
X125391502Y-119458180D01*
X125415966Y-119377534D01*
X125491731Y-119461588D01*
X125725080Y-119635641D01*
X125987901Y-119760825D01*
X126135110Y-119805476D01*
X126365000Y-119684155D01*
X126365000Y-118491000D01*
X126619000Y-118491000D01*
X126619000Y-119684155D01*
X126848890Y-119805476D01*
X126996099Y-119760825D01*
X127258920Y-119635641D01*
X127492269Y-119461588D01*
X127594655Y-119348000D01*
X131324928Y-119348000D01*
X131337188Y-119472482D01*
X131373498Y-119592180D01*
X131432463Y-119702494D01*
X131511815Y-119799185D01*
X131608506Y-119878537D01*
X131718820Y-119937502D01*
X131838518Y-119973812D01*
X131963000Y-119986072D01*
X132302250Y-119983000D01*
X132461000Y-119824250D01*
X132461000Y-118725000D01*
X132715000Y-118725000D01*
X132715000Y-119824250D01*
X132873750Y-119983000D01*
X133213000Y-119986072D01*
X133337482Y-119973812D01*
X133457180Y-119937502D01*
X133567494Y-119878537D01*
X133664185Y-119799185D01*
X133743537Y-119702494D01*
X133800994Y-119595000D01*
X135163928Y-119595000D01*
X135176188Y-119719482D01*
X135212498Y-119839180D01*
X135271463Y-119949494D01*
X135350815Y-120046185D01*
X135447506Y-120125537D01*
X135557820Y-120184502D01*
X135677518Y-120220812D01*
X135802000Y-120233072D01*
X136366250Y-120230000D01*
X136525000Y-120071250D01*
X136525000Y-118872000D01*
X135325750Y-118872000D01*
X135167000Y-119030750D01*
X135163928Y-119595000D01*
X133800994Y-119595000D01*
X133802502Y-119592180D01*
X133838812Y-119472482D01*
X133851072Y-119348000D01*
X133848000Y-118883750D01*
X133689250Y-118725000D01*
X132715000Y-118725000D01*
X132461000Y-118725000D01*
X131486750Y-118725000D01*
X131328000Y-118883750D01*
X131324928Y-119348000D01*
X127594655Y-119348000D01*
X127687178Y-119245355D01*
X127836157Y-118995252D01*
X127933481Y-118720891D01*
X127812814Y-118491000D01*
X126619000Y-118491000D01*
X126365000Y-118491000D01*
X126345000Y-118491000D01*
X126345000Y-118237000D01*
X126365000Y-118237000D01*
X126365000Y-117043845D01*
X126619000Y-117043845D01*
X126619000Y-118237000D01*
X127812814Y-118237000D01*
X127933481Y-118007109D01*
X127836157Y-117732748D01*
X127687178Y-117482645D01*
X127492269Y-117266412D01*
X127258920Y-117092359D01*
X126996099Y-116967175D01*
X126848890Y-116922524D01*
X126619000Y-117043845D01*
X126365000Y-117043845D01*
X126135110Y-116922524D01*
X125987901Y-116967175D01*
X125725080Y-117092359D01*
X125535000Y-117234138D01*
X125535000Y-116332000D01*
X128358542Y-116332000D01*
X128384463Y-116380494D01*
X128463815Y-116477185D01*
X128560506Y-116556537D01*
X128670820Y-116615502D01*
X128790518Y-116651812D01*
X128915000Y-116664072D01*
X129254250Y-116661000D01*
X129413000Y-116502250D01*
X129413000Y-115403000D01*
X129667000Y-115403000D01*
X129667000Y-116502250D01*
X129825750Y-116661000D01*
X130165000Y-116664072D01*
X130289482Y-116651812D01*
X130409180Y-116615502D01*
X130519494Y-116556537D01*
X130616185Y-116477185D01*
X130695537Y-116380494D01*
X130754502Y-116270180D01*
X130790812Y-116150482D01*
X130803072Y-116026000D01*
X130800000Y-115561750D01*
X130641250Y-115403000D01*
X129667000Y-115403000D01*
X129413000Y-115403000D01*
X129393000Y-115403000D01*
X129393000Y-115149000D01*
X129413000Y-115149000D01*
X129413000Y-115129000D01*
X129667000Y-115129000D01*
X129667000Y-115149000D01*
X130641250Y-115149000D01*
X130800000Y-114990250D01*
X130803072Y-114526000D01*
X130793322Y-114427000D01*
X135892001Y-114427000D01*
X135892001Y-114926821D01*
X135705368Y-115051525D01*
X135498525Y-115258368D01*
X135445317Y-115338000D01*
X133850087Y-115338000D01*
X133838812Y-115223518D01*
X133802502Y-115103820D01*
X133743537Y-114993506D01*
X133664185Y-114896815D01*
X133567494Y-114817463D01*
X133457180Y-114758498D01*
X133337482Y-114722188D01*
X133213000Y-114709928D01*
X131963000Y-114709928D01*
X131838518Y-114722188D01*
X131718820Y-114758498D01*
X131608506Y-114817463D01*
X131511815Y-114896815D01*
X131432463Y-114993506D01*
X131373498Y-115103820D01*
X131337188Y-115223518D01*
X131324928Y-115348000D01*
X131324928Y-116848000D01*
X131337188Y-116972482D01*
X131373498Y-117092180D01*
X131432463Y-117202494D01*
X131511815Y-117299185D01*
X131571296Y-117348000D01*
X131511815Y-117396815D01*
X131432463Y-117493506D01*
X131373498Y-117603820D01*
X131337188Y-117723518D01*
X131324928Y-117848000D01*
X131328000Y-118312250D01*
X131486750Y-118471000D01*
X132461000Y-118471000D01*
X132461000Y-118451000D01*
X132715000Y-118451000D01*
X132715000Y-118471000D01*
X133689250Y-118471000D01*
X133848000Y-118312250D01*
X133851072Y-117848000D01*
X133838812Y-117723518D01*
X133802502Y-117603820D01*
X133743537Y-117493506D01*
X133664185Y-117396815D01*
X133604704Y-117348000D01*
X133664185Y-117299185D01*
X133743537Y-117202494D01*
X133802502Y-117092180D01*
X133838812Y-116972482D01*
X133850087Y-116858000D01*
X135315129Y-116858000D01*
X135336010Y-116908411D01*
X135498525Y-117151632D01*
X135630380Y-117283487D01*
X135557820Y-117305498D01*
X135447506Y-117364463D01*
X135350815Y-117443815D01*
X135271463Y-117540506D01*
X135212498Y-117650820D01*
X135176188Y-117770518D01*
X135163928Y-117895000D01*
X135167000Y-118459250D01*
X135325750Y-118618000D01*
X136525000Y-118618000D01*
X136525000Y-118598000D01*
X136779000Y-118598000D01*
X136779000Y-118618000D01*
X136799000Y-118618000D01*
X136799000Y-118872000D01*
X136779000Y-118872000D01*
X136779000Y-120071250D01*
X136937750Y-120230000D01*
X137502000Y-120233072D01*
X137626482Y-120220812D01*
X137746180Y-120184502D01*
X137856494Y-120125537D01*
X137953185Y-120046185D01*
X138032537Y-119949494D01*
X138091502Y-119839180D01*
X138113513Y-119766620D01*
X138245368Y-119898475D01*
X138488589Y-120060990D01*
X138758842Y-120172932D01*
X139045740Y-120230000D01*
X139338260Y-120230000D01*
X139625158Y-120172932D01*
X139895411Y-120060990D01*
X140138632Y-119898475D01*
X140345475Y-119691632D01*
X140462000Y-119517240D01*
X140578525Y-119691632D01*
X140785368Y-119898475D01*
X141028589Y-120060990D01*
X141298842Y-120172932D01*
X141585740Y-120230000D01*
X141878260Y-120230000D01*
X142165158Y-120172932D01*
X142435411Y-120060990D01*
X142678632Y-119898475D01*
X142885475Y-119691632D01*
X143047990Y-119448411D01*
X143159932Y-119178158D01*
X143217000Y-118891260D01*
X143217000Y-118598740D01*
X143202539Y-118526039D01*
X144518578Y-117210000D01*
X148321928Y-117210000D01*
X148321928Y-119010000D01*
X148334188Y-119134482D01*
X148370498Y-119254180D01*
X148429463Y-119364494D01*
X148508815Y-119461185D01*
X148605506Y-119540537D01*
X148715820Y-119599502D01*
X148835518Y-119635812D01*
X148960000Y-119648072D01*
X150760000Y-119648072D01*
X150884482Y-119635812D01*
X151004180Y-119599502D01*
X151114494Y-119540537D01*
X151211185Y-119461185D01*
X151290537Y-119364494D01*
X151349502Y-119254180D01*
X151385812Y-119134482D01*
X151398072Y-119010000D01*
X151398072Y-117210000D01*
X151385812Y-117085518D01*
X151349502Y-116965820D01*
X151336433Y-116941369D01*
X151401507Y-116934960D01*
X151662581Y-116855764D01*
X151903188Y-116727157D01*
X152114081Y-116554081D01*
X152157454Y-116501231D01*
X152639341Y-116019344D01*
X154325000Y-116019344D01*
X154325000Y-116390656D01*
X154397439Y-116754834D01*
X154539534Y-117097882D01*
X154745825Y-117406618D01*
X155008382Y-117669175D01*
X155317118Y-117875466D01*
X155660166Y-118017561D01*
X156024344Y-118090000D01*
X156395656Y-118090000D01*
X156759834Y-118017561D01*
X157102882Y-117875466D01*
X157411618Y-117669175D01*
X157674175Y-117406618D01*
X157880466Y-117097882D01*
X158022561Y-116754834D01*
X158095000Y-116390656D01*
X158095000Y-116019344D01*
X158022561Y-115655166D01*
X157880466Y-115312118D01*
X157674175Y-115003382D01*
X157411618Y-114740825D01*
X157102882Y-114534534D01*
X156759834Y-114392439D01*
X156395656Y-114320000D01*
X156024344Y-114320000D01*
X155660166Y-114392439D01*
X155317118Y-114534534D01*
X155008382Y-114740825D01*
X154745825Y-115003382D01*
X154539534Y-115312118D01*
X154397439Y-115655166D01*
X154325000Y-116019344D01*
X152639341Y-116019344D01*
X156033686Y-112625000D01*
X156420279Y-112625000D01*
X156832756Y-112542953D01*
X157221302Y-112382012D01*
X157570983Y-112148363D01*
X157868363Y-111850983D01*
X158102012Y-111501302D01*
X158262953Y-111112756D01*
X158345000Y-110700279D01*
X158345000Y-110279721D01*
X158262953Y-109867244D01*
X158102012Y-109478698D01*
X157868363Y-109129017D01*
X157570983Y-108831637D01*
X157221302Y-108597988D01*
X156832756Y-108437047D01*
X156420279Y-108355000D01*
X155999721Y-108355000D01*
X155587244Y-108437047D01*
X155198698Y-108597988D01*
X154849017Y-108831637D01*
X154551637Y-109129017D01*
X154317988Y-109478698D01*
X154157047Y-109867244D01*
X154075000Y-110279721D01*
X154075000Y-110666314D01*
X151349542Y-113391773D01*
X151230992Y-113157000D01*
X149987000Y-113157000D01*
X149987000Y-113177000D01*
X149733000Y-113177000D01*
X149733000Y-113157000D01*
X148489008Y-113157000D01*
X148368959Y-113394741D01*
X148468766Y-113678620D01*
X148622038Y-113937573D01*
X148822884Y-114161649D01*
X149002802Y-114296633D01*
X148881495Y-114377688D01*
X148667688Y-114591495D01*
X148499701Y-114842905D01*
X148383989Y-115122257D01*
X148325000Y-115418816D01*
X148325000Y-115721184D01*
X148383989Y-116017743D01*
X148499701Y-116297095D01*
X148667688Y-116548505D01*
X148734127Y-116614944D01*
X148715820Y-116620498D01*
X148605506Y-116679463D01*
X148508815Y-116758815D01*
X148429463Y-116855506D01*
X148370498Y-116965820D01*
X148334188Y-117085518D01*
X148321928Y-117210000D01*
X144518578Y-117210000D01*
X145375049Y-116353530D01*
X145408817Y-116325817D01*
X145519411Y-116191059D01*
X145601589Y-116037313D01*
X145640517Y-115908986D01*
X145652195Y-115870491D01*
X145653652Y-115855694D01*
X145665000Y-115740477D01*
X145665000Y-115740469D01*
X145669281Y-115697000D01*
X145665000Y-115653531D01*
X145665000Y-112665259D01*
X148368959Y-112665259D01*
X148489008Y-112903000D01*
X149733000Y-112903000D01*
X149733000Y-111659622D01*
X149987000Y-111659622D01*
X149987000Y-112903000D01*
X151230992Y-112903000D01*
X151351041Y-112665259D01*
X151251234Y-112381380D01*
X151097962Y-112122427D01*
X150897116Y-111898351D01*
X150656414Y-111717764D01*
X150385107Y-111587606D01*
X150224740Y-111538964D01*
X149987000Y-111659622D01*
X149733000Y-111659622D01*
X149495260Y-111538964D01*
X149334893Y-111587606D01*
X149063586Y-111717764D01*
X148822884Y-111898351D01*
X148622038Y-112122427D01*
X148468766Y-112381380D01*
X148368959Y-112665259D01*
X145665000Y-112665259D01*
X145665000Y-106415000D01*
X148321928Y-106415000D01*
X148321928Y-108215000D01*
X148334188Y-108339482D01*
X148370498Y-108459180D01*
X148429463Y-108569494D01*
X148508815Y-108666185D01*
X148605506Y-108745537D01*
X148715820Y-108804502D01*
X148835518Y-108840812D01*
X148960000Y-108853072D01*
X150760000Y-108853072D01*
X150884482Y-108840812D01*
X151004180Y-108804502D01*
X151114494Y-108745537D01*
X151211185Y-108666185D01*
X151290537Y-108569494D01*
X151349502Y-108459180D01*
X151385812Y-108339482D01*
X151398072Y-108215000D01*
X151398072Y-106415000D01*
X151385812Y-106290518D01*
X151349502Y-106170820D01*
X151343718Y-106160000D01*
X154209753Y-106160000D01*
X154317988Y-106421302D01*
X154551637Y-106770983D01*
X154849017Y-107068363D01*
X155198698Y-107302012D01*
X155587244Y-107462953D01*
X155999721Y-107545000D01*
X156420279Y-107545000D01*
X156832756Y-107462953D01*
X157221302Y-107302012D01*
X157570983Y-107068363D01*
X157868363Y-106770983D01*
X158102012Y-106421302D01*
X158262953Y-106032756D01*
X158345000Y-105620279D01*
X158345000Y-105199721D01*
X158262953Y-104787244D01*
X158102012Y-104398698D01*
X157868363Y-104049017D01*
X157570983Y-103751637D01*
X157221302Y-103517988D01*
X156832756Y-103357047D01*
X156420279Y-103275000D01*
X155999721Y-103275000D01*
X155587244Y-103357047D01*
X155507912Y-103389907D01*
X155506971Y-103390000D01*
X150865992Y-103390000D01*
X150897116Y-103366649D01*
X151097962Y-103142573D01*
X151251234Y-102883620D01*
X151351041Y-102599741D01*
X151230992Y-102362000D01*
X149987000Y-102362000D01*
X149987000Y-102382000D01*
X149733000Y-102382000D01*
X149733000Y-102362000D01*
X148489008Y-102362000D01*
X148368959Y-102599741D01*
X148468766Y-102883620D01*
X148622038Y-103142573D01*
X148822884Y-103366649D01*
X149002802Y-103501633D01*
X148881495Y-103582688D01*
X148667688Y-103796495D01*
X148499701Y-104047905D01*
X148383989Y-104327257D01*
X148325000Y-104623816D01*
X148325000Y-104926184D01*
X148383989Y-105222743D01*
X148499701Y-105502095D01*
X148667688Y-105753505D01*
X148734127Y-105819944D01*
X148715820Y-105825498D01*
X148605506Y-105884463D01*
X148508815Y-105963815D01*
X148429463Y-106060506D01*
X148370498Y-106170820D01*
X148334188Y-106290518D01*
X148321928Y-106415000D01*
X145665000Y-106415000D01*
X145665000Y-104816046D01*
X145759494Y-104765537D01*
X145856185Y-104686185D01*
X145935537Y-104589494D01*
X145994502Y-104479180D01*
X146030812Y-104359482D01*
X146043072Y-104235000D01*
X146043072Y-102735000D01*
X146030812Y-102610518D01*
X145994502Y-102490820D01*
X145935537Y-102380506D01*
X145856185Y-102283815D01*
X145796704Y-102235000D01*
X145856185Y-102186185D01*
X145935537Y-102089494D01*
X145994502Y-101979180D01*
X146030812Y-101859482D01*
X146043072Y-101735000D01*
X146040000Y-101270750D01*
X145881250Y-101112000D01*
X144907000Y-101112000D01*
X144907000Y-101132000D01*
X144653000Y-101132000D01*
X144653000Y-101112000D01*
X143678750Y-101112000D01*
X143520000Y-101270750D01*
X143516928Y-101735000D01*
X143529188Y-101859482D01*
X143565498Y-101979180D01*
X143624463Y-102089494D01*
X143703815Y-102186185D01*
X143763296Y-102235000D01*
X143703815Y-102283815D01*
X143624463Y-102380506D01*
X143565498Y-102490820D01*
X143529188Y-102610518D01*
X143528254Y-102620000D01*
X142367000Y-102620000D01*
X142367000Y-101600000D01*
X142364560Y-101575224D01*
X142357333Y-101551399D01*
X142345597Y-101529443D01*
X142329803Y-101510197D01*
X142310557Y-101494403D01*
X142288601Y-101482667D01*
X142264776Y-101475440D01*
X142240000Y-101473000D01*
X140189578Y-101473000D01*
X139721534Y-101004956D01*
X139693817Y-100971183D01*
X139559059Y-100860589D01*
X139405313Y-100778411D01*
X139238490Y-100727805D01*
X139108477Y-100715000D01*
X139108469Y-100715000D01*
X139065000Y-100710719D01*
X139021531Y-100715000D01*
X138946806Y-100715000D01*
X138961675Y-100712961D01*
X139266088Y-100607795D01*
X139440044Y-100514814D01*
X139535808Y-100250413D01*
X139520395Y-100235000D01*
X143516928Y-100235000D01*
X143520000Y-100699250D01*
X143678750Y-100858000D01*
X144653000Y-100858000D01*
X144653000Y-99758750D01*
X144907000Y-99758750D01*
X144907000Y-100858000D01*
X145881250Y-100858000D01*
X146040000Y-100699250D01*
X146043072Y-100235000D01*
X146030812Y-100110518D01*
X145994502Y-99990820D01*
X145935537Y-99880506D01*
X145856185Y-99783815D01*
X145759494Y-99704463D01*
X145649180Y-99645498D01*
X145529482Y-99609188D01*
X145405000Y-99596928D01*
X145065750Y-99600000D01*
X144907000Y-99758750D01*
X144653000Y-99758750D01*
X144494250Y-99600000D01*
X144155000Y-99596928D01*
X144030518Y-99609188D01*
X143910820Y-99645498D01*
X143800506Y-99704463D01*
X143703815Y-99783815D01*
X143624463Y-99880506D01*
X143565498Y-99990820D01*
X143529188Y-100110518D01*
X143516928Y-100235000D01*
X139520395Y-100235000D01*
X138580000Y-99294605D01*
X137624192Y-100250413D01*
X137719956Y-100514814D01*
X138009571Y-100655704D01*
X138235733Y-100715000D01*
X132888467Y-100715000D01*
X132844998Y-100710719D01*
X132801529Y-100715000D01*
X132801521Y-100715000D01*
X132671508Y-100727805D01*
X132504685Y-100778411D01*
X132388454Y-100840537D01*
X132350939Y-100860589D01*
X132249951Y-100943468D01*
X132249949Y-100943470D01*
X132216181Y-100971183D01*
X132188468Y-101004951D01*
X131720419Y-101473000D01*
X129032000Y-101473000D01*
X129032000Y-100250413D01*
X131124192Y-100250413D01*
X131219956Y-100514814D01*
X131509571Y-100655704D01*
X131821108Y-100737384D01*
X132142595Y-100756718D01*
X132461675Y-100712961D01*
X132766088Y-100607795D01*
X132940044Y-100514814D01*
X133035808Y-100250413D01*
X132080000Y-99294605D01*
X131124192Y-100250413D01*
X129032000Y-100250413D01*
X129032000Y-99177595D01*
X130438282Y-99177595D01*
X130482039Y-99496675D01*
X130587205Y-99801088D01*
X130680186Y-99975044D01*
X130944587Y-100070808D01*
X131900395Y-99115000D01*
X132259605Y-99115000D01*
X133215413Y-100070808D01*
X133479814Y-99975044D01*
X133620704Y-99685429D01*
X133702384Y-99373892D01*
X133714189Y-99177595D01*
X136938282Y-99177595D01*
X136982039Y-99496675D01*
X137087205Y-99801088D01*
X137180186Y-99975044D01*
X137444587Y-100070808D01*
X138400395Y-99115000D01*
X138759605Y-99115000D01*
X139715413Y-100070808D01*
X139979814Y-99975044D01*
X140120704Y-99685429D01*
X140202384Y-99373892D01*
X140221718Y-99052405D01*
X140177961Y-98733325D01*
X140072795Y-98428912D01*
X139979814Y-98254956D01*
X139715413Y-98159192D01*
X138759605Y-99115000D01*
X138400395Y-99115000D01*
X137444587Y-98159192D01*
X137180186Y-98254956D01*
X137039296Y-98544571D01*
X136957616Y-98856108D01*
X136938282Y-99177595D01*
X133714189Y-99177595D01*
X133721718Y-99052405D01*
X133677961Y-98733325D01*
X133572795Y-98428912D01*
X133479814Y-98254956D01*
X133215413Y-98159192D01*
X132259605Y-99115000D01*
X131900395Y-99115000D01*
X130944587Y-98159192D01*
X130680186Y-98254956D01*
X130539296Y-98544571D01*
X130457616Y-98856108D01*
X130438282Y-99177595D01*
X129032000Y-99177595D01*
X129032000Y-97979587D01*
X131124192Y-97979587D01*
X132080000Y-98935395D01*
X133035808Y-97979587D01*
X137624192Y-97979587D01*
X138580000Y-98935395D01*
X139535808Y-97979587D01*
X139440044Y-97715186D01*
X139150429Y-97574296D01*
X138838892Y-97492616D01*
X138517405Y-97473282D01*
X138198325Y-97517039D01*
X137893912Y-97622205D01*
X137719956Y-97715186D01*
X137624192Y-97979587D01*
X133035808Y-97979587D01*
X132940044Y-97715186D01*
X132650429Y-97574296D01*
X132338892Y-97492616D01*
X132017405Y-97473282D01*
X131698325Y-97517039D01*
X131393912Y-97622205D01*
X131219956Y-97715186D01*
X131124192Y-97979587D01*
X129032000Y-97979587D01*
X129032000Y-97155000D01*
X129029560Y-97130224D01*
X129022333Y-97106399D01*
X129010597Y-97084443D01*
X128994803Y-97065197D01*
X128975557Y-97049403D01*
X128953601Y-97037667D01*
X128929776Y-97030440D01*
X128905000Y-97028000D01*
X123410000Y-97028000D01*
X123410000Y-95903072D01*
X124415000Y-95903072D01*
X124539482Y-95890812D01*
X124659180Y-95854502D01*
X124769494Y-95795537D01*
X124866185Y-95716185D01*
X124945537Y-95619494D01*
X125004502Y-95509180D01*
X125015000Y-95474573D01*
X125025498Y-95509180D01*
X125084463Y-95619494D01*
X125163815Y-95716185D01*
X125260506Y-95795537D01*
X125370820Y-95854502D01*
X125490518Y-95890812D01*
X125615000Y-95903072D01*
X126079250Y-95900000D01*
X126238000Y-95741250D01*
X126238000Y-94742000D01*
X126492000Y-94742000D01*
X126492000Y-95741250D01*
X126650750Y-95900000D01*
X127115000Y-95903072D01*
X127239482Y-95890812D01*
X127359180Y-95854502D01*
X127469494Y-95795537D01*
X127566185Y-95716185D01*
X127645537Y-95619494D01*
X127704502Y-95509180D01*
X127740812Y-95389482D01*
X127753072Y-95265000D01*
X127750000Y-94900750D01*
X127591250Y-94742000D01*
X126492000Y-94742000D01*
X126238000Y-94742000D01*
X126218000Y-94742000D01*
X126218000Y-94488000D01*
X126238000Y-94488000D01*
X126238000Y-94468000D01*
X126492000Y-94468000D01*
X126492000Y-94488000D01*
X127591250Y-94488000D01*
X127750000Y-94329250D01*
X127753072Y-93965000D01*
X127740812Y-93840518D01*
X127704502Y-93720820D01*
X127645537Y-93610506D01*
X127566185Y-93513815D01*
X127512796Y-93470000D01*
X129860199Y-93470000D01*
X130513823Y-94123624D01*
X130507832Y-94138088D01*
X130445000Y-94453967D01*
X130445000Y-94776033D01*
X130507832Y-95091912D01*
X130631082Y-95389463D01*
X130810013Y-95657252D01*
X131037748Y-95884987D01*
X131305537Y-96063918D01*
X131603088Y-96187168D01*
X131918967Y-96250000D01*
X132241033Y-96250000D01*
X132556912Y-96187168D01*
X132854463Y-96063918D01*
X133122252Y-95884987D01*
X133349987Y-95657252D01*
X133528918Y-95389463D01*
X133534909Y-95375000D01*
X137125091Y-95375000D01*
X137131082Y-95389463D01*
X137310013Y-95657252D01*
X137537748Y-95884987D01*
X137805537Y-96063918D01*
X138103088Y-96187168D01*
X138418967Y-96250000D01*
X138741033Y-96250000D01*
X139056912Y-96187168D01*
X139354463Y-96063918D01*
X139622252Y-95884987D01*
X139849987Y-95657252D01*
X139874878Y-95620000D01*
X142606928Y-95620000D01*
X142606928Y-97420000D01*
X142619188Y-97544482D01*
X142655498Y-97664180D01*
X142714463Y-97774494D01*
X142793815Y-97871185D01*
X142890506Y-97950537D01*
X143000820Y-98009502D01*
X143120518Y-98045812D01*
X143245000Y-98058072D01*
X145045000Y-98058072D01*
X145169482Y-98045812D01*
X145289180Y-98009502D01*
X145399494Y-97950537D01*
X145496185Y-97871185D01*
X145575537Y-97774494D01*
X145634502Y-97664180D01*
X145640056Y-97645873D01*
X145706495Y-97712312D01*
X145743568Y-97737083D01*
X145753764Y-97745451D01*
X148987877Y-100979565D01*
X148822884Y-101103351D01*
X148622038Y-101327427D01*
X148468766Y-101586380D01*
X148368959Y-101870259D01*
X148489008Y-102108000D01*
X149733000Y-102108000D01*
X149733000Y-102088000D01*
X149987000Y-102088000D01*
X149987000Y-102108000D01*
X151230992Y-102108000D01*
X151351041Y-101870259D01*
X151296455Y-101715000D01*
X154575654Y-101715000D01*
X154849017Y-101988363D01*
X155198698Y-102222012D01*
X155587244Y-102382953D01*
X155999721Y-102465000D01*
X156420279Y-102465000D01*
X156832756Y-102382953D01*
X157221302Y-102222012D01*
X157570983Y-101988363D01*
X157868363Y-101690983D01*
X158102012Y-101341302D01*
X158262953Y-100952756D01*
X158345000Y-100540279D01*
X158345000Y-100119721D01*
X158262953Y-99707244D01*
X158102012Y-99318698D01*
X157868363Y-98969017D01*
X157570983Y-98671637D01*
X157221302Y-98437988D01*
X156832756Y-98277047D01*
X156420279Y-98195000D01*
X155999721Y-98195000D01*
X155587244Y-98277047D01*
X155198698Y-98437988D01*
X154849017Y-98671637D01*
X154575654Y-98945000D01*
X150870684Y-98945000D01*
X149846465Y-97920781D01*
X149873620Y-97911234D01*
X150132573Y-97757962D01*
X150356649Y-97557116D01*
X150537236Y-97316414D01*
X150667394Y-97045107D01*
X150716036Y-96884740D01*
X150595378Y-96647000D01*
X149352000Y-96647000D01*
X149352000Y-96667000D01*
X149098000Y-96667000D01*
X149098000Y-96647000D01*
X149078000Y-96647000D01*
X149078000Y-96393000D01*
X149098000Y-96393000D01*
X149098000Y-95149008D01*
X149352000Y-95149008D01*
X149352000Y-96393000D01*
X150595378Y-96393000D01*
X150716036Y-96155260D01*
X150667394Y-95994893D01*
X150537236Y-95723586D01*
X150356649Y-95482884D01*
X150132573Y-95282038D01*
X149873620Y-95128766D01*
X149589741Y-95028959D01*
X149352000Y-95149008D01*
X149098000Y-95149008D01*
X148860259Y-95028959D01*
X148576380Y-95128766D01*
X148317427Y-95282038D01*
X148093351Y-95482884D01*
X147958367Y-95662802D01*
X147877312Y-95541495D01*
X147663505Y-95327688D01*
X147412095Y-95159701D01*
X147132743Y-95043989D01*
X146836184Y-94985000D01*
X146533816Y-94985000D01*
X146237257Y-95043989D01*
X145957905Y-95159701D01*
X145706495Y-95327688D01*
X145640056Y-95394127D01*
X145634502Y-95375820D01*
X145575537Y-95265506D01*
X145496185Y-95168815D01*
X145399494Y-95089463D01*
X145289180Y-95030498D01*
X145169482Y-94994188D01*
X145045000Y-94981928D01*
X143245000Y-94981928D01*
X143120518Y-94994188D01*
X143000820Y-95030498D01*
X142890506Y-95089463D01*
X142793815Y-95168815D01*
X142714463Y-95265506D01*
X142655498Y-95375820D01*
X142619188Y-95495518D01*
X142606928Y-95620000D01*
X139874878Y-95620000D01*
X140028918Y-95389463D01*
X140152168Y-95091912D01*
X140215000Y-94776033D01*
X140215000Y-94453967D01*
X140152168Y-94138088D01*
X140028918Y-93840537D01*
X139849987Y-93572748D01*
X139622252Y-93345013D01*
X139354463Y-93166082D01*
X139056912Y-93042832D01*
X138741033Y-92980000D01*
X138418967Y-92980000D01*
X138103088Y-93042832D01*
X137805537Y-93166082D01*
X137537748Y-93345013D01*
X137310013Y-93572748D01*
X137131082Y-93840537D01*
X137125091Y-93855000D01*
X133534909Y-93855000D01*
X133528918Y-93840537D01*
X133349987Y-93572748D01*
X133122252Y-93345013D01*
X132854463Y-93166082D01*
X132556912Y-93042832D01*
X132241033Y-92980000D01*
X131918967Y-92980000D01*
X131603088Y-93042832D01*
X131588624Y-93048823D01*
X130738804Y-92199003D01*
X130715001Y-92169999D01*
X130599276Y-92075026D01*
X130467247Y-92004454D01*
X130323986Y-91960997D01*
X130212333Y-91950000D01*
X130212322Y-91950000D01*
X130175000Y-91946324D01*
X130137678Y-91950000D01*
X122592323Y-91950000D01*
X122555000Y-91946324D01*
X122517677Y-91950000D01*
X122517667Y-91950000D01*
X122406014Y-91960997D01*
X122262753Y-92004454D01*
X122130724Y-92075026D01*
X122014999Y-92169999D01*
X121991201Y-92198997D01*
X120138998Y-94051201D01*
X120110000Y-94074999D01*
X120086202Y-94103997D01*
X120086201Y-94103998D01*
X120015026Y-94190724D01*
X119944454Y-94322754D01*
X119932845Y-94361026D01*
X119904653Y-94453967D01*
X119900998Y-94466015D01*
X119886324Y-94615000D01*
X119890001Y-94652332D01*
X119890000Y-95245198D01*
X119344072Y-95791126D01*
X119344072Y-94146000D01*
X119331812Y-94021518D01*
X119295502Y-93901820D01*
X119236537Y-93791506D01*
X119157185Y-93694815D01*
X119060494Y-93615463D01*
X118950180Y-93556498D01*
X118830482Y-93520188D01*
X118741000Y-93511375D01*
X118741000Y-89301320D01*
X148099248Y-89301320D01*
X148099248Y-91800680D01*
X148111508Y-91925162D01*
X148147818Y-92044860D01*
X148206783Y-92155174D01*
X148286135Y-92251865D01*
X148382826Y-92331217D01*
X148493140Y-92390182D01*
X148612838Y-92426492D01*
X148737320Y-92438752D01*
X151236680Y-92438752D01*
X151361162Y-92426492D01*
X151480860Y-92390182D01*
X151591174Y-92331217D01*
X151687865Y-92251865D01*
X151767217Y-92155174D01*
X151826182Y-92044860D01*
X151859204Y-91936000D01*
X154132161Y-91936000D01*
X154179463Y-92024494D01*
X154258815Y-92121185D01*
X154355506Y-92200537D01*
X154465820Y-92259502D01*
X154585518Y-92295812D01*
X154710000Y-92308072D01*
X154825000Y-92308072D01*
X154825001Y-93615653D01*
X154551637Y-93889017D01*
X154317988Y-94238698D01*
X154157047Y-94627244D01*
X154075000Y-95039721D01*
X154075000Y-95460279D01*
X154157047Y-95872756D01*
X154317988Y-96261302D01*
X154551637Y-96610983D01*
X154849017Y-96908363D01*
X155198698Y-97142012D01*
X155587244Y-97302953D01*
X155999721Y-97385000D01*
X156420279Y-97385000D01*
X156832756Y-97302953D01*
X157221302Y-97142012D01*
X157570983Y-96908363D01*
X157868363Y-96610983D01*
X158102012Y-96261302D01*
X158262953Y-95872756D01*
X158345000Y-95460279D01*
X158345000Y-95039721D01*
X158262953Y-94627244D01*
X158102012Y-94238698D01*
X157868363Y-93889017D01*
X157595000Y-93615654D01*
X157595000Y-92308072D01*
X157710000Y-92308072D01*
X157834482Y-92295812D01*
X157954180Y-92259502D01*
X158064494Y-92200537D01*
X158161185Y-92121185D01*
X158240537Y-92024494D01*
X158299502Y-91914180D01*
X158335812Y-91794482D01*
X158348072Y-91670000D01*
X158348072Y-88670000D01*
X158335812Y-88545518D01*
X158299502Y-88425820D01*
X158240537Y-88315506D01*
X158161185Y-88218815D01*
X158064494Y-88139463D01*
X157954180Y-88080498D01*
X157834482Y-88044188D01*
X157710000Y-88031928D01*
X157595000Y-88031928D01*
X157595000Y-85454346D01*
X157868363Y-85180983D01*
X158102012Y-84831302D01*
X158262953Y-84442756D01*
X158345000Y-84030279D01*
X158345000Y-83609721D01*
X158262953Y-83197244D01*
X158102012Y-82808698D01*
X157868363Y-82459017D01*
X157570983Y-82161637D01*
X157221302Y-81927988D01*
X156832756Y-81767047D01*
X156420279Y-81685000D01*
X155999721Y-81685000D01*
X155587244Y-81767047D01*
X155198698Y-81927988D01*
X154849017Y-82161637D01*
X154551637Y-82459017D01*
X154317988Y-82808698D01*
X154157047Y-83197244D01*
X154075000Y-83609721D01*
X154075000Y-84030279D01*
X154157047Y-84442756D01*
X154317988Y-84831302D01*
X154551637Y-85180983D01*
X154825001Y-85454347D01*
X154825000Y-88031928D01*
X154710000Y-88031928D01*
X154585518Y-88044188D01*
X154465820Y-88080498D01*
X154355506Y-88139463D01*
X154258815Y-88218815D01*
X154179463Y-88315506D01*
X154120498Y-88425820D01*
X154084188Y-88545518D01*
X154071928Y-88670000D01*
X154071928Y-89166000D01*
X151859204Y-89166000D01*
X151826182Y-89057140D01*
X151767217Y-88946826D01*
X151687865Y-88850135D01*
X151591174Y-88770783D01*
X151480860Y-88711818D01*
X151361162Y-88675508D01*
X151236680Y-88663248D01*
X148737320Y-88663248D01*
X148612838Y-88675508D01*
X148493140Y-88711818D01*
X148382826Y-88770783D01*
X148286135Y-88850135D01*
X148206783Y-88946826D01*
X148147818Y-89057140D01*
X148111508Y-89176838D01*
X148099248Y-89301320D01*
X118741000Y-89301320D01*
X118741000Y-88435469D01*
X118745281Y-88392000D01*
X118741000Y-88348531D01*
X118741000Y-88348523D01*
X118728195Y-88218510D01*
X118677589Y-88051687D01*
X118595411Y-87897941D01*
X118512532Y-87796953D01*
X118512530Y-87796951D01*
X118484817Y-87763183D01*
X118451051Y-87735472D01*
X113432534Y-82716956D01*
X113404817Y-82683183D01*
X113270059Y-82572589D01*
X113116313Y-82490411D01*
X112949490Y-82439805D01*
X112819477Y-82427000D01*
X112819469Y-82427000D01*
X112776000Y-82422719D01*
X112732531Y-82427000D01*
X106350656Y-82427000D01*
X106309475Y-82365368D01*
X106102632Y-82158525D01*
X105859411Y-81996010D01*
X105589158Y-81884068D01*
X105302260Y-81827000D01*
X105009740Y-81827000D01*
X104722842Y-81884068D01*
X104452589Y-81996010D01*
X104209368Y-82158525D01*
X104002525Y-82365368D01*
X103840010Y-82608589D01*
X103728068Y-82878842D01*
X103671000Y-83165740D01*
X103671000Y-83458260D01*
X103728068Y-83745158D01*
X103840010Y-84015411D01*
X104002525Y-84258632D01*
X104134380Y-84390487D01*
X104061820Y-84412498D01*
X103951506Y-84471463D01*
X103854815Y-84550815D01*
X103775463Y-84647506D01*
X103716498Y-84757820D01*
X103680188Y-84877518D01*
X103667928Y-85002000D01*
X103667928Y-86702000D01*
X103680188Y-86826482D01*
X103716498Y-86946180D01*
X103775463Y-87056494D01*
X103854815Y-87153185D01*
X103951506Y-87232537D01*
X104061820Y-87291502D01*
X104181518Y-87327812D01*
X104280065Y-87337518D01*
X104283805Y-87375490D01*
X104334412Y-87542313D01*
X104416590Y-87696059D01*
X104499468Y-87797046D01*
X104499471Y-87797049D01*
X104527184Y-87830817D01*
X104560951Y-87858529D01*
X107848470Y-91146049D01*
X107876183Y-91179817D01*
X107909951Y-91207530D01*
X107909953Y-91207532D01*
X107981452Y-91266210D01*
X108010941Y-91290411D01*
X108164687Y-91372589D01*
X108331510Y-91423195D01*
X108461523Y-91436000D01*
X108461533Y-91436000D01*
X108475248Y-91437351D01*
X108475248Y-91800680D01*
X108487508Y-91925162D01*
X108523818Y-92044860D01*
X108582783Y-92155174D01*
X108662135Y-92251865D01*
X108758826Y-92331217D01*
X108869140Y-92390182D01*
X108988838Y-92426492D01*
X109113320Y-92438752D01*
X111612680Y-92438752D01*
X111737162Y-92426492D01*
X111856860Y-92390182D01*
X111967174Y-92331217D01*
X112063865Y-92251865D01*
X112143217Y-92155174D01*
X112202182Y-92044860D01*
X112238492Y-91925162D01*
X112250752Y-91800680D01*
X112250752Y-89301320D01*
X112238492Y-89176838D01*
X112202182Y-89057140D01*
X112143217Y-88946826D01*
X112063865Y-88850135D01*
X111967174Y-88770783D01*
X111856860Y-88711818D01*
X111737162Y-88675508D01*
X111612680Y-88663248D01*
X109113320Y-88663248D01*
X108988838Y-88675508D01*
X108869140Y-88711818D01*
X108758826Y-88770783D01*
X108662135Y-88850135D01*
X108582783Y-88946826D01*
X108523818Y-89057140D01*
X108487508Y-89176838D01*
X108478086Y-89272507D01*
X106403127Y-87197549D01*
X106457185Y-87153185D01*
X106536537Y-87056494D01*
X106595502Y-86946180D01*
X106631812Y-86826482D01*
X106644072Y-86702000D01*
X106644072Y-85002000D01*
X106631812Y-84877518D01*
X106595502Y-84757820D01*
X106536537Y-84647506D01*
X106457185Y-84550815D01*
X106360494Y-84471463D01*
X106250180Y-84412498D01*
X106177620Y-84390487D01*
X106309475Y-84258632D01*
X106350656Y-84197000D01*
X112409422Y-84197000D01*
X116971000Y-88758579D01*
X116971001Y-93511375D01*
X116881518Y-93520188D01*
X116761820Y-93556498D01*
X116651506Y-93615463D01*
X116554815Y-93694815D01*
X116475463Y-93791506D01*
X116416498Y-93901820D01*
X116394487Y-93974380D01*
X116262632Y-93842525D01*
X116019411Y-93680010D01*
X115749158Y-93568068D01*
X115462260Y-93511000D01*
X115169740Y-93511000D01*
X114882842Y-93568068D01*
X114612589Y-93680010D01*
X114369368Y-93842525D01*
X114162525Y-94049368D01*
X114046000Y-94223760D01*
X113929475Y-94049368D01*
X113722632Y-93842525D01*
X113479411Y-93680010D01*
X113209158Y-93568068D01*
X112922260Y-93511000D01*
X112629740Y-93511000D01*
X112342842Y-93568068D01*
X112072589Y-93680010D01*
X111829368Y-93842525D01*
X111622525Y-94049368D01*
X111500805Y-94231534D01*
X111431178Y-94114645D01*
X111236269Y-93898412D01*
X111002920Y-93724359D01*
X110740099Y-93599175D01*
X110592890Y-93554524D01*
X110363000Y-93675845D01*
X110363000Y-94869000D01*
X110383000Y-94869000D01*
X110383000Y-95123000D01*
X110363000Y-95123000D01*
X110363000Y-95143000D01*
X110109000Y-95143000D01*
X110109000Y-95123000D01*
X108915186Y-95123000D01*
X108794519Y-95352891D01*
X108891843Y-95627252D01*
X109040822Y-95877355D01*
X109235731Y-96093588D01*
X109469080Y-96267641D01*
X109731901Y-96392825D01*
X109879110Y-96437476D01*
X110108998Y-96316156D01*
X110108998Y-96481000D01*
X110216199Y-96481000D01*
X110138998Y-96558201D01*
X110110000Y-96581999D01*
X110086202Y-96610997D01*
X110086201Y-96610998D01*
X110015026Y-96697724D01*
X109944454Y-96829754D01*
X109936962Y-96854454D01*
X109900998Y-96973014D01*
X109899373Y-96989509D01*
X109895582Y-97028000D01*
X102240000Y-97028000D01*
X102240000Y-94639109D01*
X108794519Y-94639109D01*
X108915186Y-94869000D01*
X110109000Y-94869000D01*
X110109000Y-93675845D01*
X109879110Y-93554524D01*
X109731901Y-93599175D01*
X109469080Y-93724359D01*
X109235731Y-93898412D01*
X109040822Y-94114645D01*
X108891843Y-94364748D01*
X108794519Y-94639109D01*
X102240000Y-94639109D01*
X102240000Y-80240000D01*
X154071928Y-80240000D01*
X154084188Y-80364482D01*
X154120498Y-80484180D01*
X154179463Y-80594494D01*
X154258815Y-80691185D01*
X154355506Y-80770537D01*
X154465820Y-80829502D01*
X154585518Y-80865812D01*
X154710000Y-80878072D01*
X155924250Y-80875000D01*
X156083000Y-80716250D01*
X156083000Y-78867000D01*
X156337000Y-78867000D01*
X156337000Y-80716250D01*
X156495750Y-80875000D01*
X157710000Y-80878072D01*
X157834482Y-80865812D01*
X157954180Y-80829502D01*
X158064494Y-80770537D01*
X158161185Y-80691185D01*
X158240537Y-80594494D01*
X158299502Y-80484180D01*
X158335812Y-80364482D01*
X158348072Y-80240000D01*
X158345000Y-79025750D01*
X158186250Y-78867000D01*
X156337000Y-78867000D01*
X156083000Y-78867000D01*
X154233750Y-78867000D01*
X154075000Y-79025750D01*
X154071928Y-80240000D01*
X102240000Y-80240000D01*
X102240000Y-76014344D01*
X104795000Y-76014344D01*
X104795000Y-76385656D01*
X104867439Y-76749834D01*
X105009534Y-77092882D01*
X105215825Y-77401618D01*
X105478382Y-77664175D01*
X105787118Y-77870466D01*
X106130166Y-78012561D01*
X106494344Y-78085000D01*
X106865656Y-78085000D01*
X107229834Y-78012561D01*
X107572882Y-77870466D01*
X107881618Y-77664175D01*
X108144175Y-77401618D01*
X108252164Y-77240000D01*
X154071928Y-77240000D01*
X154075000Y-78454250D01*
X154233750Y-78613000D01*
X156083000Y-78613000D01*
X156083000Y-76763750D01*
X156337000Y-76763750D01*
X156337000Y-78613000D01*
X158186250Y-78613000D01*
X158345000Y-78454250D01*
X158348072Y-77240000D01*
X158335812Y-77115518D01*
X158299502Y-76995820D01*
X158240537Y-76885506D01*
X158161185Y-76788815D01*
X158064494Y-76709463D01*
X157954180Y-76650498D01*
X157834482Y-76614188D01*
X157710000Y-76601928D01*
X156495750Y-76605000D01*
X156337000Y-76763750D01*
X156083000Y-76763750D01*
X155924250Y-76605000D01*
X154710000Y-76601928D01*
X154585518Y-76614188D01*
X154465820Y-76650498D01*
X154355506Y-76709463D01*
X154258815Y-76788815D01*
X154179463Y-76885506D01*
X154120498Y-76995820D01*
X154084188Y-77115518D01*
X154071928Y-77240000D01*
X108252164Y-77240000D01*
X108350466Y-77092882D01*
X108492561Y-76749834D01*
X108565000Y-76385656D01*
X108565000Y-76014344D01*
X108492561Y-75650166D01*
X108350466Y-75307118D01*
X108144175Y-74998382D01*
X107881618Y-74735825D01*
X107572882Y-74529534D01*
X107570821Y-74528680D01*
X108475248Y-74528680D01*
X108487508Y-74653162D01*
X108523818Y-74772860D01*
X108582783Y-74883174D01*
X108662135Y-74979865D01*
X108758826Y-75059217D01*
X108869140Y-75118182D01*
X108988838Y-75154492D01*
X109113320Y-75166752D01*
X110077250Y-75163680D01*
X110236000Y-75004930D01*
X110236000Y-73406000D01*
X110490000Y-73406000D01*
X110490000Y-75004930D01*
X110648750Y-75163680D01*
X111612680Y-75166752D01*
X111737162Y-75154492D01*
X111856860Y-75118182D01*
X111967174Y-75059217D01*
X112063865Y-74979865D01*
X112143217Y-74883174D01*
X112202182Y-74772860D01*
X112238492Y-74653162D01*
X112250752Y-74528680D01*
X148099248Y-74528680D01*
X148111508Y-74653162D01*
X148147818Y-74772860D01*
X148206783Y-74883174D01*
X148286135Y-74979865D01*
X148382826Y-75059217D01*
X148493140Y-75118182D01*
X148612838Y-75154492D01*
X148737320Y-75166752D01*
X149701250Y-75163680D01*
X149860000Y-75004930D01*
X149860000Y-73406000D01*
X150114000Y-73406000D01*
X150114000Y-75004930D01*
X150272750Y-75163680D01*
X151236680Y-75166752D01*
X151361162Y-75154492D01*
X151480860Y-75118182D01*
X151591174Y-75059217D01*
X151687865Y-74979865D01*
X151767217Y-74883174D01*
X151826182Y-74772860D01*
X151862492Y-74653162D01*
X151874752Y-74528680D01*
X151871680Y-73564750D01*
X151712930Y-73406000D01*
X150114000Y-73406000D01*
X149860000Y-73406000D01*
X148261070Y-73406000D01*
X148102320Y-73564750D01*
X148099248Y-74528680D01*
X112250752Y-74528680D01*
X112247680Y-73564750D01*
X112088930Y-73406000D01*
X110490000Y-73406000D01*
X110236000Y-73406000D01*
X108637070Y-73406000D01*
X108478320Y-73564750D01*
X108475248Y-74528680D01*
X107570821Y-74528680D01*
X107229834Y-74387439D01*
X106865656Y-74315000D01*
X106494344Y-74315000D01*
X106130166Y-74387439D01*
X105787118Y-74529534D01*
X105478382Y-74735825D01*
X105215825Y-74998382D01*
X105009534Y-75307118D01*
X104867439Y-75650166D01*
X104795000Y-76014344D01*
X102240000Y-76014344D01*
X102240000Y-71760000D01*
X108537256Y-71760000D01*
X108523818Y-71785140D01*
G37*
X108523818Y-71785140D02*
X108487508Y-71904838D01*
X108475248Y-72029320D01*
X108478320Y-72993250D01*
X108637070Y-73152000D01*
X110236000Y-73152000D01*
X110236000Y-73132000D01*
X110490000Y-73132000D01*
X110490000Y-73152000D01*
X112088930Y-73152000D01*
X112247680Y-72993250D01*
X112250752Y-72029320D01*
X112238492Y-71904838D01*
X112202182Y-71785140D01*
X112188744Y-71760000D01*
X148161256Y-71760000D01*
X148147818Y-71785140D01*
X148111508Y-71904838D01*
X148099248Y-72029320D01*
X148102320Y-72993250D01*
X148261070Y-73152000D01*
X149860000Y-73152000D01*
X149860000Y-73132000D01*
X150114000Y-73132000D01*
X150114000Y-73152000D01*
X151712930Y-73152000D01*
X151871680Y-72993250D01*
X151874752Y-72029320D01*
X151862492Y-71904838D01*
X151826182Y-71785140D01*
X151812744Y-71760000D01*
X160940000Y-71760000D01*
X160940001Y-120480000D01*
X102240000Y-120480000D01*
X102240000Y-116332000D01*
X108145197Y-116332000D01*
X107554407Y-116922790D01*
X107334260Y-116879000D01*
X107041740Y-116879000D01*
X106754842Y-116936068D01*
X106484589Y-117048010D01*
X106241368Y-117210525D01*
X106034525Y-117417368D01*
X105872010Y-117660589D01*
X105760068Y-117930842D01*
X105703000Y-118217740D01*
X105703000Y-118510260D01*
X105760068Y-118797158D01*
X105872010Y-119067411D01*
X106034525Y-119310632D01*
X106241368Y-119517475D01*
X106484589Y-119679990D01*
X106754842Y-119791932D01*
X107041740Y-119849000D01*
X107334260Y-119849000D01*
X107621158Y-119791932D01*
X107891411Y-119679990D01*
X108134632Y-119517475D01*
X108341475Y-119310632D01*
X108458000Y-119136240D01*
X108574525Y-119310632D01*
X108781368Y-119517475D01*
X109024589Y-119679990D01*
X109294842Y-119791932D01*
X109581740Y-119849000D01*
X109874260Y-119849000D01*
X110161158Y-119791932D01*
X110431411Y-119679990D01*
X110674632Y-119517475D01*
X110881475Y-119310632D01*
X110998000Y-119136240D01*
X111114525Y-119310632D01*
X111321368Y-119517475D01*
X111564589Y-119679990D01*
X111834842Y-119791932D01*
X112121740Y-119849000D01*
X112414260Y-119849000D01*
X112701158Y-119791932D01*
X112971411Y-119679990D01*
X113214632Y-119517475D01*
X113421475Y-119310632D01*
X113538000Y-119136240D01*
X113654525Y-119310632D01*
X113861368Y-119517475D01*
X114104589Y-119679990D01*
X114374842Y-119791932D01*
X114661740Y-119849000D01*
X114954260Y-119849000D01*
X115241158Y-119791932D01*
X115511411Y-119679990D01*
X115754632Y-119517475D01*
X115961475Y-119310632D01*
X116078000Y-119136240D01*
X116194525Y-119310632D01*
X116401368Y-119517475D01*
X116644589Y-119679990D01*
X116914842Y-119791932D01*
X117201740Y-119849000D01*
X117494260Y-119849000D01*
X117781158Y-119791932D01*
X118051411Y-119679990D01*
X118294632Y-119517475D01*
X118426487Y-119385620D01*
X118448498Y-119458180D01*
X118507463Y-119568494D01*
X118586815Y-119665185D01*
X118683506Y-119744537D01*
X118793820Y-119803502D01*
X118913518Y-119839812D01*
X119038000Y-119852072D01*
X120738000Y-119852072D01*
X120862482Y-119839812D01*
X120982180Y-119803502D01*
X121092494Y-119744537D01*
X121189185Y-119665185D01*
X121268537Y-119568494D01*
X121327502Y-119458180D01*
X121363812Y-119338482D01*
X121376072Y-119214000D01*
X121376072Y-117514000D01*
X121363812Y-117389518D01*
X121327502Y-117269820D01*
X121268537Y-117159506D01*
X121189185Y-117062815D01*
X121092494Y-116983463D01*
X120982180Y-116924498D01*
X120862482Y-116888188D01*
X120738000Y-116875928D01*
X119038000Y-116875928D01*
X118913518Y-116888188D01*
X118793820Y-116924498D01*
X118683506Y-116983463D01*
X118586815Y-117062815D01*
X118507463Y-117159506D01*
X118448498Y-117269820D01*
X118426487Y-117342380D01*
X118294632Y-117210525D01*
X118051411Y-117048010D01*
X117781158Y-116936068D01*
X117494260Y-116879000D01*
X117367802Y-116879000D01*
X117914802Y-116332000D01*
X123765001Y-116332000D01*
X123765001Y-116875928D01*
X123102000Y-116875928D01*
X122977518Y-116888188D01*
X122857820Y-116924498D01*
X122747506Y-116983463D01*
X122650815Y-117062815D01*
X122571463Y-117159506D01*
X122512498Y-117269820D01*
X122476188Y-117389518D01*
X122463928Y-117514000D01*
X122463928Y-119214000D01*
X122476188Y-119338482D01*
X122512498Y-119458180D01*
X122571463Y-119568494D01*
X122650815Y-119665185D01*
X122747506Y-119744537D01*
X122857820Y-119803502D01*
X122977518Y-119839812D01*
X123102000Y-119852072D01*
X124802000Y-119852072D01*
X124926482Y-119839812D01*
X125046180Y-119803502D01*
X125156494Y-119744537D01*
X125253185Y-119665185D01*
X125332537Y-119568494D01*
X125391502Y-119458180D01*
X125415966Y-119377534D01*
X125491731Y-119461588D01*
X125725080Y-119635641D01*
X125987901Y-119760825D01*
X126135110Y-119805476D01*
X126365000Y-119684155D01*
X126365000Y-118491000D01*
X126619000Y-118491000D01*
X126619000Y-119684155D01*
X126848890Y-119805476D01*
X126996099Y-119760825D01*
X127258920Y-119635641D01*
X127492269Y-119461588D01*
X127594655Y-119348000D01*
X131324928Y-119348000D01*
X131337188Y-119472482D01*
X131373498Y-119592180D01*
X131432463Y-119702494D01*
X131511815Y-119799185D01*
X131608506Y-119878537D01*
X131718820Y-119937502D01*
X131838518Y-119973812D01*
X131963000Y-119986072D01*
X132302250Y-119983000D01*
X132461000Y-119824250D01*
X132461000Y-118725000D01*
X132715000Y-118725000D01*
X132715000Y-119824250D01*
X132873750Y-119983000D01*
X133213000Y-119986072D01*
X133337482Y-119973812D01*
X133457180Y-119937502D01*
X133567494Y-119878537D01*
X133664185Y-119799185D01*
X133743537Y-119702494D01*
X133800994Y-119595000D01*
X135163928Y-119595000D01*
X135176188Y-119719482D01*
X135212498Y-119839180D01*
X135271463Y-119949494D01*
X135350815Y-120046185D01*
X135447506Y-120125537D01*
X135557820Y-120184502D01*
X135677518Y-120220812D01*
X135802000Y-120233072D01*
X136366250Y-120230000D01*
X136525000Y-120071250D01*
X136525000Y-118872000D01*
X135325750Y-118872000D01*
X135167000Y-119030750D01*
X135163928Y-119595000D01*
X133800994Y-119595000D01*
X133802502Y-119592180D01*
X133838812Y-119472482D01*
X133851072Y-119348000D01*
X133848000Y-118883750D01*
X133689250Y-118725000D01*
X132715000Y-118725000D01*
X132461000Y-118725000D01*
X131486750Y-118725000D01*
X131328000Y-118883750D01*
X131324928Y-119348000D01*
X127594655Y-119348000D01*
X127687178Y-119245355D01*
X127836157Y-118995252D01*
X127933481Y-118720891D01*
X127812814Y-118491000D01*
X126619000Y-118491000D01*
X126365000Y-118491000D01*
X126345000Y-118491000D01*
X126345000Y-118237000D01*
X126365000Y-118237000D01*
X126365000Y-117043845D01*
X126619000Y-117043845D01*
X126619000Y-118237000D01*
X127812814Y-118237000D01*
X127933481Y-118007109D01*
X127836157Y-117732748D01*
X127687178Y-117482645D01*
X127492269Y-117266412D01*
X127258920Y-117092359D01*
X126996099Y-116967175D01*
X126848890Y-116922524D01*
X126619000Y-117043845D01*
X126365000Y-117043845D01*
X126135110Y-116922524D01*
X125987901Y-116967175D01*
X125725080Y-117092359D01*
X125535000Y-117234138D01*
X125535000Y-116332000D01*
X128358542Y-116332000D01*
X128384463Y-116380494D01*
X128463815Y-116477185D01*
X128560506Y-116556537D01*
X128670820Y-116615502D01*
X128790518Y-116651812D01*
X128915000Y-116664072D01*
X129254250Y-116661000D01*
X129413000Y-116502250D01*
X129413000Y-115403000D01*
X129667000Y-115403000D01*
X129667000Y-116502250D01*
X129825750Y-116661000D01*
X130165000Y-116664072D01*
X130289482Y-116651812D01*
X130409180Y-116615502D01*
X130519494Y-116556537D01*
X130616185Y-116477185D01*
X130695537Y-116380494D01*
X130754502Y-116270180D01*
X130790812Y-116150482D01*
X130803072Y-116026000D01*
X130800000Y-115561750D01*
X130641250Y-115403000D01*
X129667000Y-115403000D01*
X129413000Y-115403000D01*
X129393000Y-115403000D01*
X129393000Y-115149000D01*
X129413000Y-115149000D01*
X129413000Y-115129000D01*
X129667000Y-115129000D01*
X129667000Y-115149000D01*
X130641250Y-115149000D01*
X130800000Y-114990250D01*
X130803072Y-114526000D01*
X130793322Y-114427000D01*
X135892001Y-114427000D01*
X135892001Y-114926821D01*
X135705368Y-115051525D01*
X135498525Y-115258368D01*
X135445317Y-115338000D01*
X133850087Y-115338000D01*
X133838812Y-115223518D01*
X133802502Y-115103820D01*
X133743537Y-114993506D01*
X133664185Y-114896815D01*
X133567494Y-114817463D01*
X133457180Y-114758498D01*
X133337482Y-114722188D01*
X133213000Y-114709928D01*
X131963000Y-114709928D01*
X131838518Y-114722188D01*
X131718820Y-114758498D01*
X131608506Y-114817463D01*
X131511815Y-114896815D01*
X131432463Y-114993506D01*
X131373498Y-115103820D01*
X131337188Y-115223518D01*
X131324928Y-115348000D01*
X131324928Y-116848000D01*
X131337188Y-116972482D01*
X131373498Y-117092180D01*
X131432463Y-117202494D01*
X131511815Y-117299185D01*
X131571296Y-117348000D01*
X131511815Y-117396815D01*
X131432463Y-117493506D01*
X131373498Y-117603820D01*
X131337188Y-117723518D01*
X131324928Y-117848000D01*
X131328000Y-118312250D01*
X131486750Y-118471000D01*
X132461000Y-118471000D01*
X132461000Y-118451000D01*
X132715000Y-118451000D01*
X132715000Y-118471000D01*
X133689250Y-118471000D01*
X133848000Y-118312250D01*
X133851072Y-117848000D01*
X133838812Y-117723518D01*
X133802502Y-117603820D01*
X133743537Y-117493506D01*
X133664185Y-117396815D01*
X133604704Y-117348000D01*
X133664185Y-117299185D01*
X133743537Y-117202494D01*
X133802502Y-117092180D01*
X133838812Y-116972482D01*
X133850087Y-116858000D01*
X135315129Y-116858000D01*
X135336010Y-116908411D01*
X135498525Y-117151632D01*
X135630380Y-117283487D01*
X135557820Y-117305498D01*
X135447506Y-117364463D01*
X135350815Y-117443815D01*
X135271463Y-117540506D01*
X135212498Y-117650820D01*
X135176188Y-117770518D01*
X135163928Y-117895000D01*
X135167000Y-118459250D01*
X135325750Y-118618000D01*
X136525000Y-118618000D01*
X136525000Y-118598000D01*
X136779000Y-118598000D01*
X136779000Y-118618000D01*
X136799000Y-118618000D01*
X136799000Y-118872000D01*
X136779000Y-118872000D01*
X136779000Y-120071250D01*
X136937750Y-120230000D01*
X137502000Y-120233072D01*
X137626482Y-120220812D01*
X137746180Y-120184502D01*
X137856494Y-120125537D01*
X137953185Y-120046185D01*
X138032537Y-119949494D01*
X138091502Y-119839180D01*
X138113513Y-119766620D01*
X138245368Y-119898475D01*
X138488589Y-120060990D01*
X138758842Y-120172932D01*
X139045740Y-120230000D01*
X139338260Y-120230000D01*
X139625158Y-120172932D01*
X139895411Y-120060990D01*
X140138632Y-119898475D01*
X140345475Y-119691632D01*
X140462000Y-119517240D01*
X140578525Y-119691632D01*
X140785368Y-119898475D01*
X141028589Y-120060990D01*
X141298842Y-120172932D01*
X141585740Y-120230000D01*
X141878260Y-120230000D01*
X142165158Y-120172932D01*
X142435411Y-120060990D01*
X142678632Y-119898475D01*
X142885475Y-119691632D01*
X143047990Y-119448411D01*
X143159932Y-119178158D01*
X143217000Y-118891260D01*
X143217000Y-118598740D01*
X143202539Y-118526039D01*
X144518578Y-117210000D01*
X148321928Y-117210000D01*
X148321928Y-119010000D01*
X148334188Y-119134482D01*
X148370498Y-119254180D01*
X148429463Y-119364494D01*
X148508815Y-119461185D01*
X148605506Y-119540537D01*
X148715820Y-119599502D01*
X148835518Y-119635812D01*
X148960000Y-119648072D01*
X150760000Y-119648072D01*
X150884482Y-119635812D01*
X151004180Y-119599502D01*
X151114494Y-119540537D01*
X151211185Y-119461185D01*
X151290537Y-119364494D01*
X151349502Y-119254180D01*
X151385812Y-119134482D01*
X151398072Y-119010000D01*
X151398072Y-117210000D01*
X151385812Y-117085518D01*
X151349502Y-116965820D01*
X151336433Y-116941369D01*
X151401507Y-116934960D01*
X151662581Y-116855764D01*
X151903188Y-116727157D01*
X152114081Y-116554081D01*
X152157454Y-116501231D01*
X152639341Y-116019344D01*
X154325000Y-116019344D01*
X154325000Y-116390656D01*
X154397439Y-116754834D01*
X154539534Y-117097882D01*
X154745825Y-117406618D01*
X155008382Y-117669175D01*
X155317118Y-117875466D01*
X155660166Y-118017561D01*
X156024344Y-118090000D01*
X156395656Y-118090000D01*
X156759834Y-118017561D01*
X157102882Y-117875466D01*
X157411618Y-117669175D01*
X157674175Y-117406618D01*
X157880466Y-117097882D01*
X158022561Y-116754834D01*
X158095000Y-116390656D01*
X158095000Y-116019344D01*
X158022561Y-115655166D01*
X157880466Y-115312118D01*
X157674175Y-115003382D01*
X157411618Y-114740825D01*
X157102882Y-114534534D01*
X156759834Y-114392439D01*
X156395656Y-114320000D01*
X156024344Y-114320000D01*
X155660166Y-114392439D01*
X155317118Y-114534534D01*
X155008382Y-114740825D01*
X154745825Y-115003382D01*
X154539534Y-115312118D01*
X154397439Y-115655166D01*
X154325000Y-116019344D01*
X152639341Y-116019344D01*
X156033686Y-112625000D01*
X156420279Y-112625000D01*
X156832756Y-112542953D01*
X157221302Y-112382012D01*
X157570983Y-112148363D01*
X157868363Y-111850983D01*
X158102012Y-111501302D01*
X158262953Y-111112756D01*
X158345000Y-110700279D01*
X158345000Y-110279721D01*
X158262953Y-109867244D01*
X158102012Y-109478698D01*
X157868363Y-109129017D01*
X157570983Y-108831637D01*
X157221302Y-108597988D01*
X156832756Y-108437047D01*
X156420279Y-108355000D01*
X155999721Y-108355000D01*
X155587244Y-108437047D01*
X155198698Y-108597988D01*
X154849017Y-108831637D01*
X154551637Y-109129017D01*
X154317988Y-109478698D01*
X154157047Y-109867244D01*
X154075000Y-110279721D01*
X154075000Y-110666314D01*
X151349542Y-113391773D01*
X151230992Y-113157000D01*
X149987000Y-113157000D01*
X149987000Y-113177000D01*
X149733000Y-113177000D01*
X149733000Y-113157000D01*
X148489008Y-113157000D01*
X148368959Y-113394741D01*
X148468766Y-113678620D01*
X148622038Y-113937573D01*
X148822884Y-114161649D01*
X149002802Y-114296633D01*
X148881495Y-114377688D01*
X148667688Y-114591495D01*
X148499701Y-114842905D01*
X148383989Y-115122257D01*
X148325000Y-115418816D01*
X148325000Y-115721184D01*
X148383989Y-116017743D01*
X148499701Y-116297095D01*
X148667688Y-116548505D01*
X148734127Y-116614944D01*
X148715820Y-116620498D01*
X148605506Y-116679463D01*
X148508815Y-116758815D01*
X148429463Y-116855506D01*
X148370498Y-116965820D01*
X148334188Y-117085518D01*
X148321928Y-117210000D01*
X144518578Y-117210000D01*
X145375049Y-116353530D01*
X145408817Y-116325817D01*
X145519411Y-116191059D01*
X145601589Y-116037313D01*
X145640517Y-115908986D01*
X145652195Y-115870491D01*
X145653652Y-115855694D01*
X145665000Y-115740477D01*
X145665000Y-115740469D01*
X145669281Y-115697000D01*
X145665000Y-115653531D01*
X145665000Y-112665259D01*
X148368959Y-112665259D01*
X148489008Y-112903000D01*
X149733000Y-112903000D01*
X149733000Y-111659622D01*
X149987000Y-111659622D01*
X149987000Y-112903000D01*
X151230992Y-112903000D01*
X151351041Y-112665259D01*
X151251234Y-112381380D01*
X151097962Y-112122427D01*
X150897116Y-111898351D01*
X150656414Y-111717764D01*
X150385107Y-111587606D01*
X150224740Y-111538964D01*
X149987000Y-111659622D01*
X149733000Y-111659622D01*
X149495260Y-111538964D01*
X149334893Y-111587606D01*
X149063586Y-111717764D01*
X148822884Y-111898351D01*
X148622038Y-112122427D01*
X148468766Y-112381380D01*
X148368959Y-112665259D01*
X145665000Y-112665259D01*
X145665000Y-106415000D01*
X148321928Y-106415000D01*
X148321928Y-108215000D01*
X148334188Y-108339482D01*
X148370498Y-108459180D01*
X148429463Y-108569494D01*
X148508815Y-108666185D01*
X148605506Y-108745537D01*
X148715820Y-108804502D01*
X148835518Y-108840812D01*
X148960000Y-108853072D01*
X150760000Y-108853072D01*
X150884482Y-108840812D01*
X151004180Y-108804502D01*
X151114494Y-108745537D01*
X151211185Y-108666185D01*
X151290537Y-108569494D01*
X151349502Y-108459180D01*
X151385812Y-108339482D01*
X151398072Y-108215000D01*
X151398072Y-106415000D01*
X151385812Y-106290518D01*
X151349502Y-106170820D01*
X151343718Y-106160000D01*
X154209753Y-106160000D01*
X154317988Y-106421302D01*
X154551637Y-106770983D01*
X154849017Y-107068363D01*
X155198698Y-107302012D01*
X155587244Y-107462953D01*
X155999721Y-107545000D01*
X156420279Y-107545000D01*
X156832756Y-107462953D01*
X157221302Y-107302012D01*
X157570983Y-107068363D01*
X157868363Y-106770983D01*
X158102012Y-106421302D01*
X158262953Y-106032756D01*
X158345000Y-105620279D01*
X158345000Y-105199721D01*
X158262953Y-104787244D01*
X158102012Y-104398698D01*
X157868363Y-104049017D01*
X157570983Y-103751637D01*
X157221302Y-103517988D01*
X156832756Y-103357047D01*
X156420279Y-103275000D01*
X155999721Y-103275000D01*
X155587244Y-103357047D01*
X155507912Y-103389907D01*
X155506971Y-103390000D01*
X150865992Y-103390000D01*
X150897116Y-103366649D01*
X151097962Y-103142573D01*
X151251234Y-102883620D01*
X151351041Y-102599741D01*
X151230992Y-102362000D01*
X149987000Y-102362000D01*
X149987000Y-102382000D01*
X149733000Y-102382000D01*
X149733000Y-102362000D01*
X148489008Y-102362000D01*
X148368959Y-102599741D01*
X148468766Y-102883620D01*
X148622038Y-103142573D01*
X148822884Y-103366649D01*
X149002802Y-103501633D01*
X148881495Y-103582688D01*
X148667688Y-103796495D01*
X148499701Y-104047905D01*
X148383989Y-104327257D01*
X148325000Y-104623816D01*
X148325000Y-104926184D01*
X148383989Y-105222743D01*
X148499701Y-105502095D01*
X148667688Y-105753505D01*
X148734127Y-105819944D01*
X148715820Y-105825498D01*
X148605506Y-105884463D01*
X148508815Y-105963815D01*
X148429463Y-106060506D01*
X148370498Y-106170820D01*
X148334188Y-106290518D01*
X148321928Y-106415000D01*
X145665000Y-106415000D01*
X145665000Y-104816046D01*
X145759494Y-104765537D01*
X145856185Y-104686185D01*
X145935537Y-104589494D01*
X145994502Y-104479180D01*
X146030812Y-104359482D01*
X146043072Y-104235000D01*
X146043072Y-102735000D01*
X146030812Y-102610518D01*
X145994502Y-102490820D01*
X145935537Y-102380506D01*
X145856185Y-102283815D01*
X145796704Y-102235000D01*
X145856185Y-102186185D01*
X145935537Y-102089494D01*
X145994502Y-101979180D01*
X146030812Y-101859482D01*
X146043072Y-101735000D01*
X146040000Y-101270750D01*
X145881250Y-101112000D01*
X144907000Y-101112000D01*
X144907000Y-101132000D01*
X144653000Y-101132000D01*
X144653000Y-101112000D01*
X143678750Y-101112000D01*
X143520000Y-101270750D01*
X143516928Y-101735000D01*
X143529188Y-101859482D01*
X143565498Y-101979180D01*
X143624463Y-102089494D01*
X143703815Y-102186185D01*
X143763296Y-102235000D01*
X143703815Y-102283815D01*
X143624463Y-102380506D01*
X143565498Y-102490820D01*
X143529188Y-102610518D01*
X143528254Y-102620000D01*
X142367000Y-102620000D01*
X142367000Y-101600000D01*
X142364560Y-101575224D01*
X142357333Y-101551399D01*
X142345597Y-101529443D01*
X142329803Y-101510197D01*
X142310557Y-101494403D01*
X142288601Y-101482667D01*
X142264776Y-101475440D01*
X142240000Y-101473000D01*
X140189578Y-101473000D01*
X139721534Y-101004956D01*
X139693817Y-100971183D01*
X139559059Y-100860589D01*
X139405313Y-100778411D01*
X139238490Y-100727805D01*
X139108477Y-100715000D01*
X139108469Y-100715000D01*
X139065000Y-100710719D01*
X139021531Y-100715000D01*
X138946806Y-100715000D01*
X138961675Y-100712961D01*
X139266088Y-100607795D01*
X139440044Y-100514814D01*
X139535808Y-100250413D01*
X139520395Y-100235000D01*
X143516928Y-100235000D01*
X143520000Y-100699250D01*
X143678750Y-100858000D01*
X144653000Y-100858000D01*
X144653000Y-99758750D01*
X144907000Y-99758750D01*
X144907000Y-100858000D01*
X145881250Y-100858000D01*
X146040000Y-100699250D01*
X146043072Y-100235000D01*
X146030812Y-100110518D01*
X145994502Y-99990820D01*
X145935537Y-99880506D01*
X145856185Y-99783815D01*
X145759494Y-99704463D01*
X145649180Y-99645498D01*
X145529482Y-99609188D01*
X145405000Y-99596928D01*
X145065750Y-99600000D01*
X144907000Y-99758750D01*
X144653000Y-99758750D01*
X144494250Y-99600000D01*
X144155000Y-99596928D01*
X144030518Y-99609188D01*
X143910820Y-99645498D01*
X143800506Y-99704463D01*
X143703815Y-99783815D01*
X143624463Y-99880506D01*
X143565498Y-99990820D01*
X143529188Y-100110518D01*
X143516928Y-100235000D01*
X139520395Y-100235000D01*
X138580000Y-99294605D01*
X137624192Y-100250413D01*
X137719956Y-100514814D01*
X138009571Y-100655704D01*
X138235733Y-100715000D01*
X132888467Y-100715000D01*
X132844998Y-100710719D01*
X132801529Y-100715000D01*
X132801521Y-100715000D01*
X132671508Y-100727805D01*
X132504685Y-100778411D01*
X132388454Y-100840537D01*
X132350939Y-100860589D01*
X132249951Y-100943468D01*
X132249949Y-100943470D01*
X132216181Y-100971183D01*
X132188468Y-101004951D01*
X131720419Y-101473000D01*
X129032000Y-101473000D01*
X129032000Y-100250413D01*
X131124192Y-100250413D01*
X131219956Y-100514814D01*
X131509571Y-100655704D01*
X131821108Y-100737384D01*
X132142595Y-100756718D01*
X132461675Y-100712961D01*
X132766088Y-100607795D01*
X132940044Y-100514814D01*
X133035808Y-100250413D01*
X132080000Y-99294605D01*
X131124192Y-100250413D01*
X129032000Y-100250413D01*
X129032000Y-99177595D01*
X130438282Y-99177595D01*
X130482039Y-99496675D01*
X130587205Y-99801088D01*
X130680186Y-99975044D01*
X130944587Y-100070808D01*
X131900395Y-99115000D01*
X132259605Y-99115000D01*
X133215413Y-100070808D01*
X133479814Y-99975044D01*
X133620704Y-99685429D01*
X133702384Y-99373892D01*
X133714189Y-99177595D01*
X136938282Y-99177595D01*
X136982039Y-99496675D01*
X137087205Y-99801088D01*
X137180186Y-99975044D01*
X137444587Y-100070808D01*
X138400395Y-99115000D01*
X138759605Y-99115000D01*
X139715413Y-100070808D01*
X139979814Y-99975044D01*
X140120704Y-99685429D01*
X140202384Y-99373892D01*
X140221718Y-99052405D01*
X140177961Y-98733325D01*
X140072795Y-98428912D01*
X139979814Y-98254956D01*
X139715413Y-98159192D01*
X138759605Y-99115000D01*
X138400395Y-99115000D01*
X137444587Y-98159192D01*
X137180186Y-98254956D01*
X137039296Y-98544571D01*
X136957616Y-98856108D01*
X136938282Y-99177595D01*
X133714189Y-99177595D01*
X133721718Y-99052405D01*
X133677961Y-98733325D01*
X133572795Y-98428912D01*
X133479814Y-98254956D01*
X133215413Y-98159192D01*
X132259605Y-99115000D01*
X131900395Y-99115000D01*
X130944587Y-98159192D01*
X130680186Y-98254956D01*
X130539296Y-98544571D01*
X130457616Y-98856108D01*
X130438282Y-99177595D01*
X129032000Y-99177595D01*
X129032000Y-97979587D01*
X131124192Y-97979587D01*
X132080000Y-98935395D01*
X133035808Y-97979587D01*
X137624192Y-97979587D01*
X138580000Y-98935395D01*
X139535808Y-97979587D01*
X139440044Y-97715186D01*
X139150429Y-97574296D01*
X138838892Y-97492616D01*
X138517405Y-97473282D01*
X138198325Y-97517039D01*
X137893912Y-97622205D01*
X137719956Y-97715186D01*
X137624192Y-97979587D01*
X133035808Y-97979587D01*
X132940044Y-97715186D01*
X132650429Y-97574296D01*
X132338892Y-97492616D01*
X132017405Y-97473282D01*
X131698325Y-97517039D01*
X131393912Y-97622205D01*
X131219956Y-97715186D01*
X131124192Y-97979587D01*
X129032000Y-97979587D01*
X129032000Y-97155000D01*
X129029560Y-97130224D01*
X129022333Y-97106399D01*
X129010597Y-97084443D01*
X128994803Y-97065197D01*
X128975557Y-97049403D01*
X128953601Y-97037667D01*
X128929776Y-97030440D01*
X128905000Y-97028000D01*
X123410000Y-97028000D01*
X123410000Y-95903072D01*
X124415000Y-95903072D01*
X124539482Y-95890812D01*
X124659180Y-95854502D01*
X124769494Y-95795537D01*
X124866185Y-95716185D01*
X124945537Y-95619494D01*
X125004502Y-95509180D01*
X125015000Y-95474573D01*
X125025498Y-95509180D01*
X125084463Y-95619494D01*
X125163815Y-95716185D01*
X125260506Y-95795537D01*
X125370820Y-95854502D01*
X125490518Y-95890812D01*
X125615000Y-95903072D01*
X126079250Y-95900000D01*
X126238000Y-95741250D01*
X126238000Y-94742000D01*
X126492000Y-94742000D01*
X126492000Y-95741250D01*
X126650750Y-95900000D01*
X127115000Y-95903072D01*
X127239482Y-95890812D01*
X127359180Y-95854502D01*
X127469494Y-95795537D01*
X127566185Y-95716185D01*
X127645537Y-95619494D01*
X127704502Y-95509180D01*
X127740812Y-95389482D01*
X127753072Y-95265000D01*
X127750000Y-94900750D01*
X127591250Y-94742000D01*
X126492000Y-94742000D01*
X126238000Y-94742000D01*
X126218000Y-94742000D01*
X126218000Y-94488000D01*
X126238000Y-94488000D01*
X126238000Y-94468000D01*
X126492000Y-94468000D01*
X126492000Y-94488000D01*
X127591250Y-94488000D01*
X127750000Y-94329250D01*
X127753072Y-93965000D01*
X127740812Y-93840518D01*
X127704502Y-93720820D01*
X127645537Y-93610506D01*
X127566185Y-93513815D01*
X127512796Y-93470000D01*
X129860199Y-93470000D01*
X130513823Y-94123624D01*
X130507832Y-94138088D01*
X130445000Y-94453967D01*
X130445000Y-94776033D01*
X130507832Y-95091912D01*
X130631082Y-95389463D01*
X130810013Y-95657252D01*
X131037748Y-95884987D01*
X131305537Y-96063918D01*
X131603088Y-96187168D01*
X131918967Y-96250000D01*
X132241033Y-96250000D01*
X132556912Y-96187168D01*
X132854463Y-96063918D01*
X133122252Y-95884987D01*
X133349987Y-95657252D01*
X133528918Y-95389463D01*
X133534909Y-95375000D01*
X137125091Y-95375000D01*
X137131082Y-95389463D01*
X137310013Y-95657252D01*
X137537748Y-95884987D01*
X137805537Y-96063918D01*
X138103088Y-96187168D01*
X138418967Y-96250000D01*
X138741033Y-96250000D01*
X139056912Y-96187168D01*
X139354463Y-96063918D01*
X139622252Y-95884987D01*
X139849987Y-95657252D01*
X139874878Y-95620000D01*
X142606928Y-95620000D01*
X142606928Y-97420000D01*
X142619188Y-97544482D01*
X142655498Y-97664180D01*
X142714463Y-97774494D01*
X142793815Y-97871185D01*
X142890506Y-97950537D01*
X143000820Y-98009502D01*
X143120518Y-98045812D01*
X143245000Y-98058072D01*
X145045000Y-98058072D01*
X145169482Y-98045812D01*
X145289180Y-98009502D01*
X145399494Y-97950537D01*
X145496185Y-97871185D01*
X145575537Y-97774494D01*
X145634502Y-97664180D01*
X145640056Y-97645873D01*
X145706495Y-97712312D01*
X145743568Y-97737083D01*
X145753764Y-97745451D01*
X148987877Y-100979565D01*
X148822884Y-101103351D01*
X148622038Y-101327427D01*
X148468766Y-101586380D01*
X148368959Y-101870259D01*
X148489008Y-102108000D01*
X149733000Y-102108000D01*
X149733000Y-102088000D01*
X149987000Y-102088000D01*
X149987000Y-102108000D01*
X151230992Y-102108000D01*
X151351041Y-101870259D01*
X151296455Y-101715000D01*
X154575654Y-101715000D01*
X154849017Y-101988363D01*
X155198698Y-102222012D01*
X155587244Y-102382953D01*
X155999721Y-102465000D01*
X156420279Y-102465000D01*
X156832756Y-102382953D01*
X157221302Y-102222012D01*
X157570983Y-101988363D01*
X157868363Y-101690983D01*
X158102012Y-101341302D01*
X158262953Y-100952756D01*
X158345000Y-100540279D01*
X158345000Y-100119721D01*
X158262953Y-99707244D01*
X158102012Y-99318698D01*
X157868363Y-98969017D01*
X157570983Y-98671637D01*
X157221302Y-98437988D01*
X156832756Y-98277047D01*
X156420279Y-98195000D01*
X155999721Y-98195000D01*
X155587244Y-98277047D01*
X155198698Y-98437988D01*
X154849017Y-98671637D01*
X154575654Y-98945000D01*
X150870684Y-98945000D01*
X149846465Y-97920781D01*
X149873620Y-97911234D01*
X150132573Y-97757962D01*
X150356649Y-97557116D01*
X150537236Y-97316414D01*
X150667394Y-97045107D01*
X150716036Y-96884740D01*
X150595378Y-96647000D01*
X149352000Y-96647000D01*
X149352000Y-96667000D01*
X149098000Y-96667000D01*
X149098000Y-96647000D01*
X149078000Y-96647000D01*
X149078000Y-96393000D01*
X149098000Y-96393000D01*
X149098000Y-95149008D01*
X149352000Y-95149008D01*
X149352000Y-96393000D01*
X150595378Y-96393000D01*
X150716036Y-96155260D01*
X150667394Y-95994893D01*
X150537236Y-95723586D01*
X150356649Y-95482884D01*
X150132573Y-95282038D01*
X149873620Y-95128766D01*
X149589741Y-95028959D01*
X149352000Y-95149008D01*
X149098000Y-95149008D01*
X148860259Y-95028959D01*
X148576380Y-95128766D01*
X148317427Y-95282038D01*
X148093351Y-95482884D01*
X147958367Y-95662802D01*
X147877312Y-95541495D01*
X147663505Y-95327688D01*
X147412095Y-95159701D01*
X147132743Y-95043989D01*
X146836184Y-94985000D01*
X146533816Y-94985000D01*
X146237257Y-95043989D01*
X145957905Y-95159701D01*
X145706495Y-95327688D01*
X145640056Y-95394127D01*
X145634502Y-95375820D01*
X145575537Y-95265506D01*
X145496185Y-95168815D01*
X145399494Y-95089463D01*
X145289180Y-95030498D01*
X145169482Y-94994188D01*
X145045000Y-94981928D01*
X143245000Y-94981928D01*
X143120518Y-94994188D01*
X143000820Y-95030498D01*
X142890506Y-95089463D01*
X142793815Y-95168815D01*
X142714463Y-95265506D01*
X142655498Y-95375820D01*
X142619188Y-95495518D01*
X142606928Y-95620000D01*
X139874878Y-95620000D01*
X140028918Y-95389463D01*
X140152168Y-95091912D01*
X140215000Y-94776033D01*
X140215000Y-94453967D01*
X140152168Y-94138088D01*
X140028918Y-93840537D01*
X139849987Y-93572748D01*
X139622252Y-93345013D01*
X139354463Y-93166082D01*
X139056912Y-93042832D01*
X138741033Y-92980000D01*
X138418967Y-92980000D01*
X138103088Y-93042832D01*
X137805537Y-93166082D01*
X137537748Y-93345013D01*
X137310013Y-93572748D01*
X137131082Y-93840537D01*
X137125091Y-93855000D01*
X133534909Y-93855000D01*
X133528918Y-93840537D01*
X133349987Y-93572748D01*
X133122252Y-93345013D01*
X132854463Y-93166082D01*
X132556912Y-93042832D01*
X132241033Y-92980000D01*
X131918967Y-92980000D01*
X131603088Y-93042832D01*
X131588624Y-93048823D01*
X130738804Y-92199003D01*
X130715001Y-92169999D01*
X130599276Y-92075026D01*
X130467247Y-92004454D01*
X130323986Y-91960997D01*
X130212333Y-91950000D01*
X130212322Y-91950000D01*
X130175000Y-91946324D01*
X130137678Y-91950000D01*
X122592323Y-91950000D01*
X122555000Y-91946324D01*
X122517677Y-91950000D01*
X122517667Y-91950000D01*
X122406014Y-91960997D01*
X122262753Y-92004454D01*
X122130724Y-92075026D01*
X122014999Y-92169999D01*
X121991201Y-92198997D01*
X120138998Y-94051201D01*
X120110000Y-94074999D01*
X120086202Y-94103997D01*
X120086201Y-94103998D01*
X120015026Y-94190724D01*
X119944454Y-94322754D01*
X119932845Y-94361026D01*
X119904653Y-94453967D01*
X119900998Y-94466015D01*
X119886324Y-94615000D01*
X119890001Y-94652332D01*
X119890000Y-95245198D01*
X119344072Y-95791126D01*
X119344072Y-94146000D01*
X119331812Y-94021518D01*
X119295502Y-93901820D01*
X119236537Y-93791506D01*
X119157185Y-93694815D01*
X119060494Y-93615463D01*
X118950180Y-93556498D01*
X118830482Y-93520188D01*
X118741000Y-93511375D01*
X118741000Y-89301320D01*
X148099248Y-89301320D01*
X148099248Y-91800680D01*
X148111508Y-91925162D01*
X148147818Y-92044860D01*
X148206783Y-92155174D01*
X148286135Y-92251865D01*
X148382826Y-92331217D01*
X148493140Y-92390182D01*
X148612838Y-92426492D01*
X148737320Y-92438752D01*
X151236680Y-92438752D01*
X151361162Y-92426492D01*
X151480860Y-92390182D01*
X151591174Y-92331217D01*
X151687865Y-92251865D01*
X151767217Y-92155174D01*
X151826182Y-92044860D01*
X151859204Y-91936000D01*
X154132161Y-91936000D01*
X154179463Y-92024494D01*
X154258815Y-92121185D01*
X154355506Y-92200537D01*
X154465820Y-92259502D01*
X154585518Y-92295812D01*
X154710000Y-92308072D01*
X154825000Y-92308072D01*
X154825001Y-93615653D01*
X154551637Y-93889017D01*
X154317988Y-94238698D01*
X154157047Y-94627244D01*
X154075000Y-95039721D01*
X154075000Y-95460279D01*
X154157047Y-95872756D01*
X154317988Y-96261302D01*
X154551637Y-96610983D01*
X154849017Y-96908363D01*
X155198698Y-97142012D01*
X155587244Y-97302953D01*
X155999721Y-97385000D01*
X156420279Y-97385000D01*
X156832756Y-97302953D01*
X157221302Y-97142012D01*
X157570983Y-96908363D01*
X157868363Y-96610983D01*
X158102012Y-96261302D01*
X158262953Y-95872756D01*
X158345000Y-95460279D01*
X158345000Y-95039721D01*
X158262953Y-94627244D01*
X158102012Y-94238698D01*
X157868363Y-93889017D01*
X157595000Y-93615654D01*
X157595000Y-92308072D01*
X157710000Y-92308072D01*
X157834482Y-92295812D01*
X157954180Y-92259502D01*
X158064494Y-92200537D01*
X158161185Y-92121185D01*
X158240537Y-92024494D01*
X158299502Y-91914180D01*
X158335812Y-91794482D01*
X158348072Y-91670000D01*
X158348072Y-88670000D01*
X158335812Y-88545518D01*
X158299502Y-88425820D01*
X158240537Y-88315506D01*
X158161185Y-88218815D01*
X158064494Y-88139463D01*
X157954180Y-88080498D01*
X157834482Y-88044188D01*
X157710000Y-88031928D01*
X157595000Y-88031928D01*
X157595000Y-85454346D01*
X157868363Y-85180983D01*
X158102012Y-84831302D01*
X158262953Y-84442756D01*
X158345000Y-84030279D01*
X158345000Y-83609721D01*
X158262953Y-83197244D01*
X158102012Y-82808698D01*
X157868363Y-82459017D01*
X157570983Y-82161637D01*
X157221302Y-81927988D01*
X156832756Y-81767047D01*
X156420279Y-81685000D01*
X155999721Y-81685000D01*
X155587244Y-81767047D01*
X155198698Y-81927988D01*
X154849017Y-82161637D01*
X154551637Y-82459017D01*
X154317988Y-82808698D01*
X154157047Y-83197244D01*
X154075000Y-83609721D01*
X154075000Y-84030279D01*
X154157047Y-84442756D01*
X154317988Y-84831302D01*
X154551637Y-85180983D01*
X154825001Y-85454347D01*
X154825000Y-88031928D01*
X154710000Y-88031928D01*
X154585518Y-88044188D01*
X154465820Y-88080498D01*
X154355506Y-88139463D01*
X154258815Y-88218815D01*
X154179463Y-88315506D01*
X154120498Y-88425820D01*
X154084188Y-88545518D01*
X154071928Y-88670000D01*
X154071928Y-89166000D01*
X151859204Y-89166000D01*
X151826182Y-89057140D01*
X151767217Y-88946826D01*
X151687865Y-88850135D01*
X151591174Y-88770783D01*
X151480860Y-88711818D01*
X151361162Y-88675508D01*
X151236680Y-88663248D01*
X148737320Y-88663248D01*
X148612838Y-88675508D01*
X148493140Y-88711818D01*
X148382826Y-88770783D01*
X148286135Y-88850135D01*
X148206783Y-88946826D01*
X148147818Y-89057140D01*
X148111508Y-89176838D01*
X148099248Y-89301320D01*
X118741000Y-89301320D01*
X118741000Y-88435469D01*
X118745281Y-88392000D01*
X118741000Y-88348531D01*
X118741000Y-88348523D01*
X118728195Y-88218510D01*
X118677589Y-88051687D01*
X118595411Y-87897941D01*
X118512532Y-87796953D01*
X118512530Y-87796951D01*
X118484817Y-87763183D01*
X118451051Y-87735472D01*
X113432534Y-82716956D01*
X113404817Y-82683183D01*
X113270059Y-82572589D01*
X113116313Y-82490411D01*
X112949490Y-82439805D01*
X112819477Y-82427000D01*
X112819469Y-82427000D01*
X112776000Y-82422719D01*
X112732531Y-82427000D01*
X106350656Y-82427000D01*
X106309475Y-82365368D01*
X106102632Y-82158525D01*
X105859411Y-81996010D01*
X105589158Y-81884068D01*
X105302260Y-81827000D01*
X105009740Y-81827000D01*
X104722842Y-81884068D01*
X104452589Y-81996010D01*
X104209368Y-82158525D01*
X104002525Y-82365368D01*
X103840010Y-82608589D01*
X103728068Y-82878842D01*
X103671000Y-83165740D01*
X103671000Y-83458260D01*
X103728068Y-83745158D01*
X103840010Y-84015411D01*
X104002525Y-84258632D01*
X104134380Y-84390487D01*
X104061820Y-84412498D01*
X103951506Y-84471463D01*
X103854815Y-84550815D01*
X103775463Y-84647506D01*
X103716498Y-84757820D01*
X103680188Y-84877518D01*
X103667928Y-85002000D01*
X103667928Y-86702000D01*
X103680188Y-86826482D01*
X103716498Y-86946180D01*
X103775463Y-87056494D01*
X103854815Y-87153185D01*
X103951506Y-87232537D01*
X104061820Y-87291502D01*
X104181518Y-87327812D01*
X104280065Y-87337518D01*
X104283805Y-87375490D01*
X104334412Y-87542313D01*
X104416590Y-87696059D01*
X104499468Y-87797046D01*
X104499471Y-87797049D01*
X104527184Y-87830817D01*
X104560951Y-87858529D01*
X107848470Y-91146049D01*
X107876183Y-91179817D01*
X107909951Y-91207530D01*
X107909953Y-91207532D01*
X107981452Y-91266210D01*
X108010941Y-91290411D01*
X108164687Y-91372589D01*
X108331510Y-91423195D01*
X108461523Y-91436000D01*
X108461533Y-91436000D01*
X108475248Y-91437351D01*
X108475248Y-91800680D01*
X108487508Y-91925162D01*
X108523818Y-92044860D01*
X108582783Y-92155174D01*
X108662135Y-92251865D01*
X108758826Y-92331217D01*
X108869140Y-92390182D01*
X108988838Y-92426492D01*
X109113320Y-92438752D01*
X111612680Y-92438752D01*
X111737162Y-92426492D01*
X111856860Y-92390182D01*
X111967174Y-92331217D01*
X112063865Y-92251865D01*
X112143217Y-92155174D01*
X112202182Y-92044860D01*
X112238492Y-91925162D01*
X112250752Y-91800680D01*
X112250752Y-89301320D01*
X112238492Y-89176838D01*
X112202182Y-89057140D01*
X112143217Y-88946826D01*
X112063865Y-88850135D01*
X111967174Y-88770783D01*
X111856860Y-88711818D01*
X111737162Y-88675508D01*
X111612680Y-88663248D01*
X109113320Y-88663248D01*
X108988838Y-88675508D01*
X108869140Y-88711818D01*
X108758826Y-88770783D01*
X108662135Y-88850135D01*
X108582783Y-88946826D01*
X108523818Y-89057140D01*
X108487508Y-89176838D01*
X108478086Y-89272507D01*
X106403127Y-87197549D01*
X106457185Y-87153185D01*
X106536537Y-87056494D01*
X106595502Y-86946180D01*
X106631812Y-86826482D01*
X106644072Y-86702000D01*
X106644072Y-85002000D01*
X106631812Y-84877518D01*
X106595502Y-84757820D01*
X106536537Y-84647506D01*
X106457185Y-84550815D01*
X106360494Y-84471463D01*
X106250180Y-84412498D01*
X106177620Y-84390487D01*
X106309475Y-84258632D01*
X106350656Y-84197000D01*
X112409422Y-84197000D01*
X116971000Y-88758579D01*
X116971001Y-93511375D01*
X116881518Y-93520188D01*
X116761820Y-93556498D01*
X116651506Y-93615463D01*
X116554815Y-93694815D01*
X116475463Y-93791506D01*
X116416498Y-93901820D01*
X116394487Y-93974380D01*
X116262632Y-93842525D01*
X116019411Y-93680010D01*
X115749158Y-93568068D01*
X115462260Y-93511000D01*
X115169740Y-93511000D01*
X114882842Y-93568068D01*
X114612589Y-93680010D01*
X114369368Y-93842525D01*
X114162525Y-94049368D01*
X114046000Y-94223760D01*
X113929475Y-94049368D01*
X113722632Y-93842525D01*
X113479411Y-93680010D01*
X113209158Y-93568068D01*
X112922260Y-93511000D01*
X112629740Y-93511000D01*
X112342842Y-93568068D01*
X112072589Y-93680010D01*
X111829368Y-93842525D01*
X111622525Y-94049368D01*
X111500805Y-94231534D01*
X111431178Y-94114645D01*
X111236269Y-93898412D01*
X111002920Y-93724359D01*
X110740099Y-93599175D01*
X110592890Y-93554524D01*
X110363000Y-93675845D01*
X110363000Y-94869000D01*
X110383000Y-94869000D01*
X110383000Y-95123000D01*
X110363000Y-95123000D01*
X110363000Y-95143000D01*
X110109000Y-95143000D01*
X110109000Y-95123000D01*
X108915186Y-95123000D01*
X108794519Y-95352891D01*
X108891843Y-95627252D01*
X109040822Y-95877355D01*
X109235731Y-96093588D01*
X109469080Y-96267641D01*
X109731901Y-96392825D01*
X109879110Y-96437476D01*
X110108998Y-96316156D01*
X110108998Y-96481000D01*
X110216199Y-96481000D01*
X110138998Y-96558201D01*
X110110000Y-96581999D01*
X110086202Y-96610997D01*
X110086201Y-96610998D01*
X110015026Y-96697724D01*
X109944454Y-96829754D01*
X109936962Y-96854454D01*
X109900998Y-96973014D01*
X109899373Y-96989509D01*
X109895582Y-97028000D01*
X102240000Y-97028000D01*
X102240000Y-94639109D01*
X108794519Y-94639109D01*
X108915186Y-94869000D01*
X110109000Y-94869000D01*
X110109000Y-93675845D01*
X109879110Y-93554524D01*
X109731901Y-93599175D01*
X109469080Y-93724359D01*
X109235731Y-93898412D01*
X109040822Y-94114645D01*
X108891843Y-94364748D01*
X108794519Y-94639109D01*
X102240000Y-94639109D01*
X102240000Y-80240000D01*
X154071928Y-80240000D01*
X154084188Y-80364482D01*
X154120498Y-80484180D01*
X154179463Y-80594494D01*
X154258815Y-80691185D01*
X154355506Y-80770537D01*
X154465820Y-80829502D01*
X154585518Y-80865812D01*
X154710000Y-80878072D01*
X155924250Y-80875000D01*
X156083000Y-80716250D01*
X156083000Y-78867000D01*
X156337000Y-78867000D01*
X156337000Y-80716250D01*
X156495750Y-80875000D01*
X157710000Y-80878072D01*
X157834482Y-80865812D01*
X157954180Y-80829502D01*
X158064494Y-80770537D01*
X158161185Y-80691185D01*
X158240537Y-80594494D01*
X158299502Y-80484180D01*
X158335812Y-80364482D01*
X158348072Y-80240000D01*
X158345000Y-79025750D01*
X158186250Y-78867000D01*
X156337000Y-78867000D01*
X156083000Y-78867000D01*
X154233750Y-78867000D01*
X154075000Y-79025750D01*
X154071928Y-80240000D01*
X102240000Y-80240000D01*
X102240000Y-76014344D01*
X104795000Y-76014344D01*
X104795000Y-76385656D01*
X104867439Y-76749834D01*
X105009534Y-77092882D01*
X105215825Y-77401618D01*
X105478382Y-77664175D01*
X105787118Y-77870466D01*
X106130166Y-78012561D01*
X106494344Y-78085000D01*
X106865656Y-78085000D01*
X107229834Y-78012561D01*
X107572882Y-77870466D01*
X107881618Y-77664175D01*
X108144175Y-77401618D01*
X108252164Y-77240000D01*
X154071928Y-77240000D01*
X154075000Y-78454250D01*
X154233750Y-78613000D01*
X156083000Y-78613000D01*
X156083000Y-76763750D01*
X156337000Y-76763750D01*
X156337000Y-78613000D01*
X158186250Y-78613000D01*
X158345000Y-78454250D01*
X158348072Y-77240000D01*
X158335812Y-77115518D01*
X158299502Y-76995820D01*
X158240537Y-76885506D01*
X158161185Y-76788815D01*
X158064494Y-76709463D01*
X157954180Y-76650498D01*
X157834482Y-76614188D01*
X157710000Y-76601928D01*
X156495750Y-76605000D01*
X156337000Y-76763750D01*
X156083000Y-76763750D01*
X155924250Y-76605000D01*
X154710000Y-76601928D01*
X154585518Y-76614188D01*
X154465820Y-76650498D01*
X154355506Y-76709463D01*
X154258815Y-76788815D01*
X154179463Y-76885506D01*
X154120498Y-76995820D01*
X154084188Y-77115518D01*
X154071928Y-77240000D01*
X108252164Y-77240000D01*
X108350466Y-77092882D01*
X108492561Y-76749834D01*
X108565000Y-76385656D01*
X108565000Y-76014344D01*
X108492561Y-75650166D01*
X108350466Y-75307118D01*
X108144175Y-74998382D01*
X107881618Y-74735825D01*
X107572882Y-74529534D01*
X107570821Y-74528680D01*
X108475248Y-74528680D01*
X108487508Y-74653162D01*
X108523818Y-74772860D01*
X108582783Y-74883174D01*
X108662135Y-74979865D01*
X108758826Y-75059217D01*
X108869140Y-75118182D01*
X108988838Y-75154492D01*
X109113320Y-75166752D01*
X110077250Y-75163680D01*
X110236000Y-75004930D01*
X110236000Y-73406000D01*
X110490000Y-73406000D01*
X110490000Y-75004930D01*
X110648750Y-75163680D01*
X111612680Y-75166752D01*
X111737162Y-75154492D01*
X111856860Y-75118182D01*
X111967174Y-75059217D01*
X112063865Y-74979865D01*
X112143217Y-74883174D01*
X112202182Y-74772860D01*
X112238492Y-74653162D01*
X112250752Y-74528680D01*
X148099248Y-74528680D01*
X148111508Y-74653162D01*
X148147818Y-74772860D01*
X148206783Y-74883174D01*
X148286135Y-74979865D01*
X148382826Y-75059217D01*
X148493140Y-75118182D01*
X148612838Y-75154492D01*
X148737320Y-75166752D01*
X149701250Y-75163680D01*
X149860000Y-75004930D01*
X149860000Y-73406000D01*
X150114000Y-73406000D01*
X150114000Y-75004930D01*
X150272750Y-75163680D01*
X151236680Y-75166752D01*
X151361162Y-75154492D01*
X151480860Y-75118182D01*
X151591174Y-75059217D01*
X151687865Y-74979865D01*
X151767217Y-74883174D01*
X151826182Y-74772860D01*
X151862492Y-74653162D01*
X151874752Y-74528680D01*
X151871680Y-73564750D01*
X151712930Y-73406000D01*
X150114000Y-73406000D01*
X149860000Y-73406000D01*
X148261070Y-73406000D01*
X148102320Y-73564750D01*
X148099248Y-74528680D01*
X112250752Y-74528680D01*
X112247680Y-73564750D01*
X112088930Y-73406000D01*
X110490000Y-73406000D01*
X110236000Y-73406000D01*
X108637070Y-73406000D01*
X108478320Y-73564750D01*
X108475248Y-74528680D01*
X107570821Y-74528680D01*
X107229834Y-74387439D01*
X106865656Y-74315000D01*
X106494344Y-74315000D01*
X106130166Y-74387439D01*
X105787118Y-74529534D01*
X105478382Y-74735825D01*
X105215825Y-74998382D01*
X105009534Y-75307118D01*
X104867439Y-75650166D01*
X104795000Y-76014344D01*
X102240000Y-76014344D01*
X102240000Y-71760000D01*
X108537256Y-71760000D01*
X108523818Y-71785140D01*
M02*
