G04 #@! TF.GenerationSoftware,KiCad,Pcbnew,(5.1.5)-3*
G04 #@! TF.CreationDate,2020-04-09T15:05:06+03:00*
G04 #@! TF.ProjectId,DCDimmer,44434469-6d6d-4657-922e-6b696361645f,rev?*
G04 #@! TF.SameCoordinates,Original*
G04 #@! TF.FileFunction,Copper,L2,Bot*
G04 #@! TF.FilePolarity,Positive*
%FSLAX46Y46*%
G04 Gerber Fmt 4.6, Leading zero omitted, Abs format (unit mm)*
G04 Created by KiCad (PCBNEW (5.1.5)-3) date 2020-04-09 15:05:06*
%MOMM*%
%LPD*%
G04 APERTURE LIST*
%ADD10R,1.300000X1.500000*%
%ADD11C,2.000000*%
%ADD12R,1.600000X1.600000*%
%ADD13O,1.600000X1.600000*%
%ADD14R,1.800000X1.800000*%
%ADD15O,1.800000X1.800000*%
%ADD16C,3.000000*%
%ADD17R,3.000000X3.000000*%
%ADD18R,2.499360X2.499360*%
%ADD19R,1.700000X1.700000*%
%ADD20O,1.700000X1.700000*%
%ADD21R,1.250000X1.500000*%
%ADD22C,0.800000*%
%ADD23C,0.250000*%
%ADD24C,0.500000*%
%ADD25C,1.500000*%
%ADD26C,0.254000*%
G04 APERTURE END LIST*
D10*
X129540000Y-105410000D03*
X129540000Y-102710000D03*
D11*
X132080000Y-99115000D03*
X132080000Y-94615000D03*
X138580000Y-99115000D03*
X138580000Y-94615000D03*
D12*
X133350000Y-103505000D03*
D13*
X140970000Y-111125000D03*
X133350000Y-106045000D03*
X140970000Y-108585000D03*
X133350000Y-108585000D03*
X140970000Y-106045000D03*
X133350000Y-111125000D03*
X140970000Y-103505000D03*
D14*
X144145000Y-96520000D03*
D15*
X146685000Y-96520000D03*
X149225000Y-96520000D03*
D16*
X156210000Y-95250000D03*
X156210000Y-100330000D03*
D17*
X156210000Y-90170000D03*
D16*
X156210000Y-105410000D03*
X156210000Y-110490000D03*
D17*
X156210000Y-78740000D03*
D16*
X156210000Y-83820000D03*
D18*
X110363000Y-73279000D03*
X110363000Y-90551000D03*
X149987000Y-73279000D03*
X149987000Y-90551000D03*
D19*
X119888000Y-118364000D03*
D20*
X117348000Y-118364000D03*
X114808000Y-118364000D03*
X112268000Y-118364000D03*
X109728000Y-118364000D03*
X107188000Y-118364000D03*
D19*
X117856000Y-94996000D03*
D20*
X115316000Y-94996000D03*
X112776000Y-94996000D03*
X110236000Y-94996000D03*
D19*
X123952000Y-118364000D03*
D20*
X126492000Y-118364000D03*
D10*
X121920000Y-105330000D03*
X121920000Y-108030000D03*
D21*
X111252000Y-107910000D03*
X111252000Y-105410000D03*
D19*
X105156000Y-85852000D03*
D20*
X105156000Y-83312000D03*
D19*
X136652000Y-118745000D03*
D20*
X136652000Y-116205000D03*
X139192000Y-118745000D03*
X139192000Y-116205000D03*
X141732000Y-118745000D03*
X141732000Y-116205000D03*
D10*
X118364000Y-107950000D03*
X118364000Y-105250000D03*
D14*
X149860000Y-107315000D03*
D15*
X149860000Y-104775000D03*
X149860000Y-102235000D03*
D14*
X149860000Y-118110000D03*
D15*
X149860000Y-115570000D03*
X149860000Y-113030000D03*
D10*
X125476000Y-105250000D03*
X125476000Y-107950000D03*
X114808000Y-105330000D03*
X114808000Y-108030000D03*
D22*
X110744000Y-111252000D03*
X114808000Y-110744000D03*
X130175000Y-107315000D03*
X122555000Y-102870000D03*
X123444000Y-111760000D03*
X118872000Y-102108000D03*
X120904000Y-110744000D03*
X118745000Y-110490000D03*
X116840000Y-111125000D03*
D23*
X111252000Y-107910000D02*
X111252000Y-110744000D01*
X111252000Y-110744000D02*
X110744000Y-111252000D01*
X114688000Y-107910000D02*
X114808000Y-108030000D01*
X111252000Y-107910000D02*
X114688000Y-107910000D01*
X117602000Y-107950000D02*
X118364000Y-107950000D01*
X114808000Y-110744000D02*
X117602000Y-107950000D01*
D24*
X119140000Y-105250000D02*
X121920000Y-108030000D01*
X118364000Y-105250000D02*
X119140000Y-105250000D01*
X125396000Y-108030000D02*
X125476000Y-107950000D01*
X121920000Y-108030000D02*
X125396000Y-108030000D01*
X118284000Y-105330000D02*
X118364000Y-105250000D01*
X114808000Y-105330000D02*
X118284000Y-105330000D01*
X117856000Y-94996000D02*
X117856000Y-99314000D01*
X114808000Y-102362000D02*
X114808000Y-105330000D01*
X117856000Y-99314000D02*
X114808000Y-102362000D01*
X128390000Y-105410000D02*
X129540000Y-105410000D01*
X127916000Y-105410000D02*
X128390000Y-105410000D01*
X125476000Y-107850000D02*
X127916000Y-105410000D01*
X125476000Y-107950000D02*
X125476000Y-107850000D01*
X129540000Y-105410000D02*
X129540000Y-106680000D01*
X129540000Y-106680000D02*
X130175000Y-107315000D01*
D25*
X150749000Y-73279000D02*
X156210000Y-78740000D01*
X149987000Y-73279000D02*
X150749000Y-73279000D01*
D24*
X110363000Y-75028680D02*
X115090320Y-79756000D01*
X110363000Y-73279000D02*
X110363000Y-75028680D01*
X115090320Y-79756000D02*
X130556000Y-79756000D01*
X130556000Y-79756000D02*
X135128000Y-84328000D01*
X135128000Y-96067000D02*
X132080000Y-99115000D01*
X135128000Y-84328000D02*
X135128000Y-96067000D01*
X111252000Y-96012000D02*
X110236000Y-94996000D01*
X111252000Y-105410000D02*
X111252000Y-96012000D01*
D25*
X153210000Y-78740000D02*
X146304000Y-85646000D01*
X156210000Y-78740000D02*
X153210000Y-78740000D01*
X146304000Y-92326208D02*
X149225000Y-95247208D01*
X149225000Y-95247208D02*
X149225000Y-96520000D01*
X146304000Y-85646000D02*
X146304000Y-92326208D01*
X149860000Y-97155000D02*
X149225000Y-96520000D01*
X149860000Y-102235000D02*
X149860000Y-97155000D01*
X151511000Y-102235000D02*
X152908000Y-103632000D01*
X149860000Y-102235000D02*
X151511000Y-102235000D01*
X152908000Y-109982000D02*
X149860000Y-113030000D01*
X152908000Y-103632000D02*
X152908000Y-109982000D01*
D24*
X136505000Y-118598000D02*
X136652000Y-118745000D01*
X138580000Y-100529213D02*
X136652000Y-102457213D01*
X138580000Y-99115000D02*
X138580000Y-100529213D01*
X136652000Y-107823000D02*
X133350000Y-111125000D01*
X136652000Y-102457213D02*
X136652000Y-107823000D01*
X112112680Y-73279000D02*
X113030000Y-74196320D01*
X110363000Y-73279000D02*
X112112680Y-73279000D01*
X113030000Y-92202000D02*
X110236000Y-94996000D01*
X113030000Y-74196320D02*
X113030000Y-92202000D01*
D23*
X124935000Y-105250000D02*
X125476000Y-105250000D01*
X122555000Y-102870000D02*
X124935000Y-105250000D01*
X132555000Y-102710000D02*
X133350000Y-103505000D01*
X129540000Y-102710000D02*
X132555000Y-102710000D01*
X142875000Y-111125000D02*
X149860000Y-118110000D01*
X140970000Y-111125000D02*
X142875000Y-111125000D01*
X139192000Y-113792000D02*
X139192000Y-116205000D01*
X138684000Y-113284000D02*
X139192000Y-113792000D01*
X140970000Y-106045000D02*
X138684000Y-108331000D01*
X138684000Y-108331000D02*
X138684000Y-113284000D01*
X123444000Y-111760000D02*
X130556000Y-111760000D01*
X132080000Y-113284000D02*
X138684000Y-113284000D01*
X130556000Y-111760000D02*
X132080000Y-113284000D01*
X142240000Y-107315000D02*
X149860000Y-107315000D01*
X140970000Y-108585000D02*
X142240000Y-107315000D01*
X133350000Y-108585000D02*
X135128000Y-106807000D01*
X135128000Y-106807000D02*
X135128000Y-99060000D01*
X137668000Y-96520000D02*
X144145000Y-96520000D01*
X135128000Y-99060000D02*
X137668000Y-96520000D01*
X118872000Y-103182000D02*
X118872000Y-102108000D01*
X121920000Y-105330000D02*
X121020000Y-105330000D01*
X121020000Y-105330000D02*
X118872000Y-103182000D01*
X133350000Y-106314002D02*
X131064000Y-108600002D01*
X133350000Y-106045000D02*
X133350000Y-106314002D01*
X131064000Y-108600002D02*
X128920002Y-110744000D01*
X128920002Y-110744000D02*
X120904000Y-110744000D01*
X119888000Y-118364000D02*
X119888000Y-111633000D01*
X119888000Y-111633000D02*
X118745000Y-110490000D01*
X117348000Y-118364000D02*
X117348000Y-111633000D01*
X117348000Y-111633000D02*
X116840000Y-111125000D01*
D26*
G36*
X108523818Y-71785140D02*
G01*
X108487508Y-71904838D01*
X108475248Y-72029320D01*
X108478320Y-72993250D01*
X108637070Y-73152000D01*
X110236000Y-73152000D01*
X110236000Y-73132000D01*
X110490000Y-73132000D01*
X110490000Y-73152000D01*
X112088930Y-73152000D01*
X112247680Y-72993250D01*
X112250752Y-72029320D01*
X112238492Y-71904838D01*
X112202182Y-71785140D01*
X112188744Y-71760000D01*
X148161256Y-71760000D01*
X148147818Y-71785140D01*
X148111508Y-71904838D01*
X148099248Y-72029320D01*
X148102320Y-72993250D01*
X148261070Y-73152000D01*
X149860000Y-73152000D01*
X149860000Y-73132000D01*
X150114000Y-73132000D01*
X150114000Y-73152000D01*
X151712930Y-73152000D01*
X151871680Y-72993250D01*
X151874752Y-72029320D01*
X151862492Y-71904838D01*
X151826182Y-71785140D01*
X151812744Y-71760000D01*
X160940000Y-71760000D01*
X160940001Y-120480000D01*
X102240000Y-120480000D01*
X102240000Y-116332000D01*
X109855000Y-116332000D01*
X109879776Y-116329560D01*
X109903601Y-116322333D01*
X109925557Y-116310597D01*
X109944803Y-116294803D01*
X109960597Y-116275557D01*
X109972333Y-116253601D01*
X109979560Y-116229776D01*
X109982000Y-116205000D01*
X109982000Y-111953711D01*
X110084226Y-112055937D01*
X110253744Y-112169205D01*
X110442102Y-112247226D01*
X110642061Y-112287000D01*
X110845939Y-112287000D01*
X111045898Y-112247226D01*
X111234256Y-112169205D01*
X111403774Y-112055937D01*
X111547937Y-111911774D01*
X111661205Y-111742256D01*
X111739226Y-111553898D01*
X111779000Y-111353939D01*
X111779000Y-111294671D01*
X111792001Y-111284001D01*
X111886974Y-111168276D01*
X111957546Y-111036247D01*
X112001003Y-110892986D01*
X112012000Y-110781333D01*
X112012000Y-110781324D01*
X112015676Y-110744001D01*
X112012000Y-110706678D01*
X112012000Y-109282621D01*
X112121180Y-109249502D01*
X112231494Y-109190537D01*
X112328185Y-109111185D01*
X112407537Y-109014494D01*
X112466502Y-108904180D01*
X112502812Y-108784482D01*
X112514087Y-108670000D01*
X113519928Y-108670000D01*
X113519928Y-108780000D01*
X113532188Y-108904482D01*
X113568498Y-109024180D01*
X113627463Y-109134494D01*
X113706815Y-109231185D01*
X113803506Y-109310537D01*
X113913820Y-109369502D01*
X114033518Y-109405812D01*
X114158000Y-109418072D01*
X115059127Y-109418072D01*
X114768199Y-109709000D01*
X114706061Y-109709000D01*
X114506102Y-109748774D01*
X114317744Y-109826795D01*
X114148226Y-109940063D01*
X114004063Y-110084226D01*
X113890795Y-110253744D01*
X113812774Y-110442102D01*
X113773000Y-110642061D01*
X113773000Y-110845939D01*
X113812774Y-111045898D01*
X113890795Y-111234256D01*
X114004063Y-111403774D01*
X114148226Y-111547937D01*
X114317744Y-111661205D01*
X114506102Y-111739226D01*
X114706061Y-111779000D01*
X114909939Y-111779000D01*
X115109898Y-111739226D01*
X115298256Y-111661205D01*
X115467774Y-111547937D01*
X115611937Y-111403774D01*
X115725205Y-111234256D01*
X115803226Y-111045898D01*
X115805000Y-111036979D01*
X115805000Y-111226939D01*
X115844774Y-111426898D01*
X115922795Y-111615256D01*
X116036063Y-111784774D01*
X116180226Y-111928937D01*
X116349744Y-112042205D01*
X116538102Y-112120226D01*
X116588001Y-112130151D01*
X116588000Y-117085821D01*
X116401368Y-117210525D01*
X116194525Y-117417368D01*
X116078000Y-117591760D01*
X115961475Y-117417368D01*
X115754632Y-117210525D01*
X115511411Y-117048010D01*
X115241158Y-116936068D01*
X114954260Y-116879000D01*
X114661740Y-116879000D01*
X114374842Y-116936068D01*
X114104589Y-117048010D01*
X113861368Y-117210525D01*
X113654525Y-117417368D01*
X113538000Y-117591760D01*
X113421475Y-117417368D01*
X113214632Y-117210525D01*
X112971411Y-117048010D01*
X112701158Y-116936068D01*
X112414260Y-116879000D01*
X112121740Y-116879000D01*
X111834842Y-116936068D01*
X111564589Y-117048010D01*
X111321368Y-117210525D01*
X111114525Y-117417368D01*
X110998000Y-117591760D01*
X110881475Y-117417368D01*
X110674632Y-117210525D01*
X110431411Y-117048010D01*
X110161158Y-116936068D01*
X109874260Y-116879000D01*
X109581740Y-116879000D01*
X109294842Y-116936068D01*
X109024589Y-117048010D01*
X108781368Y-117210525D01*
X108574525Y-117417368D01*
X108458000Y-117591760D01*
X108341475Y-117417368D01*
X108134632Y-117210525D01*
X107891411Y-117048010D01*
X107621158Y-116936068D01*
X107334260Y-116879000D01*
X107041740Y-116879000D01*
X106754842Y-116936068D01*
X106484589Y-117048010D01*
X106241368Y-117210525D01*
X106034525Y-117417368D01*
X105872010Y-117660589D01*
X105760068Y-117930842D01*
X105703000Y-118217740D01*
X105703000Y-118510260D01*
X105760068Y-118797158D01*
X105872010Y-119067411D01*
X106034525Y-119310632D01*
X106241368Y-119517475D01*
X106484589Y-119679990D01*
X106754842Y-119791932D01*
X107041740Y-119849000D01*
X107334260Y-119849000D01*
X107621158Y-119791932D01*
X107891411Y-119679990D01*
X108134632Y-119517475D01*
X108341475Y-119310632D01*
X108458000Y-119136240D01*
X108574525Y-119310632D01*
X108781368Y-119517475D01*
X109024589Y-119679990D01*
X109294842Y-119791932D01*
X109581740Y-119849000D01*
X109874260Y-119849000D01*
X110161158Y-119791932D01*
X110431411Y-119679990D01*
X110674632Y-119517475D01*
X110881475Y-119310632D01*
X110998000Y-119136240D01*
X111114525Y-119310632D01*
X111321368Y-119517475D01*
X111564589Y-119679990D01*
X111834842Y-119791932D01*
X112121740Y-119849000D01*
X112414260Y-119849000D01*
X112701158Y-119791932D01*
X112971411Y-119679990D01*
X113214632Y-119517475D01*
X113421475Y-119310632D01*
X113538000Y-119136240D01*
X113654525Y-119310632D01*
X113861368Y-119517475D01*
X114104589Y-119679990D01*
X114374842Y-119791932D01*
X114661740Y-119849000D01*
X114954260Y-119849000D01*
X115241158Y-119791932D01*
X115511411Y-119679990D01*
X115754632Y-119517475D01*
X115961475Y-119310632D01*
X116078000Y-119136240D01*
X116194525Y-119310632D01*
X116401368Y-119517475D01*
X116644589Y-119679990D01*
X116914842Y-119791932D01*
X117201740Y-119849000D01*
X117494260Y-119849000D01*
X117781158Y-119791932D01*
X118051411Y-119679990D01*
X118294632Y-119517475D01*
X118426487Y-119385620D01*
X118448498Y-119458180D01*
X118507463Y-119568494D01*
X118586815Y-119665185D01*
X118683506Y-119744537D01*
X118793820Y-119803502D01*
X118913518Y-119839812D01*
X119038000Y-119852072D01*
X120738000Y-119852072D01*
X120862482Y-119839812D01*
X120982180Y-119803502D01*
X121092494Y-119744537D01*
X121189185Y-119665185D01*
X121268537Y-119568494D01*
X121327502Y-119458180D01*
X121363812Y-119338482D01*
X121376072Y-119214000D01*
X121376072Y-117514000D01*
X122463928Y-117514000D01*
X122463928Y-119214000D01*
X122476188Y-119338482D01*
X122512498Y-119458180D01*
X122571463Y-119568494D01*
X122650815Y-119665185D01*
X122747506Y-119744537D01*
X122857820Y-119803502D01*
X122977518Y-119839812D01*
X123102000Y-119852072D01*
X124802000Y-119852072D01*
X124926482Y-119839812D01*
X125046180Y-119803502D01*
X125156494Y-119744537D01*
X125253185Y-119665185D01*
X125332537Y-119568494D01*
X125391502Y-119458180D01*
X125415966Y-119377534D01*
X125491731Y-119461588D01*
X125725080Y-119635641D01*
X125987901Y-119760825D01*
X126135110Y-119805476D01*
X126365000Y-119684155D01*
X126365000Y-118491000D01*
X126619000Y-118491000D01*
X126619000Y-119684155D01*
X126848890Y-119805476D01*
X126996099Y-119760825D01*
X127258920Y-119635641D01*
X127313406Y-119595000D01*
X135163928Y-119595000D01*
X135176188Y-119719482D01*
X135212498Y-119839180D01*
X135271463Y-119949494D01*
X135350815Y-120046185D01*
X135447506Y-120125537D01*
X135557820Y-120184502D01*
X135677518Y-120220812D01*
X135802000Y-120233072D01*
X136366250Y-120230000D01*
X136525000Y-120071250D01*
X136525000Y-118872000D01*
X135325750Y-118872000D01*
X135167000Y-119030750D01*
X135163928Y-119595000D01*
X127313406Y-119595000D01*
X127492269Y-119461588D01*
X127687178Y-119245355D01*
X127836157Y-118995252D01*
X127933481Y-118720891D01*
X127812814Y-118491000D01*
X126619000Y-118491000D01*
X126365000Y-118491000D01*
X126345000Y-118491000D01*
X126345000Y-118237000D01*
X126365000Y-118237000D01*
X126365000Y-117043845D01*
X126619000Y-117043845D01*
X126619000Y-118237000D01*
X127812814Y-118237000D01*
X127933481Y-118007109D01*
X127836157Y-117732748D01*
X127687178Y-117482645D01*
X127492269Y-117266412D01*
X127258920Y-117092359D01*
X126996099Y-116967175D01*
X126848890Y-116922524D01*
X126619000Y-117043845D01*
X126365000Y-117043845D01*
X126135110Y-116922524D01*
X125987901Y-116967175D01*
X125725080Y-117092359D01*
X125491731Y-117266412D01*
X125415966Y-117350466D01*
X125391502Y-117269820D01*
X125332537Y-117159506D01*
X125253185Y-117062815D01*
X125156494Y-116983463D01*
X125046180Y-116924498D01*
X124926482Y-116888188D01*
X124802000Y-116875928D01*
X123102000Y-116875928D01*
X122977518Y-116888188D01*
X122857820Y-116924498D01*
X122747506Y-116983463D01*
X122650815Y-117062815D01*
X122571463Y-117159506D01*
X122512498Y-117269820D01*
X122476188Y-117389518D01*
X122463928Y-117514000D01*
X121376072Y-117514000D01*
X121363812Y-117389518D01*
X121327502Y-117269820D01*
X121268537Y-117159506D01*
X121189185Y-117062815D01*
X121092494Y-116983463D01*
X120982180Y-116924498D01*
X120862482Y-116888188D01*
X120738000Y-116875928D01*
X120648000Y-116875928D01*
X120648000Y-111748356D01*
X120802061Y-111779000D01*
X121005939Y-111779000D01*
X121205898Y-111739226D01*
X121394256Y-111661205D01*
X121563774Y-111547937D01*
X121607711Y-111504000D01*
X122439644Y-111504000D01*
X122409000Y-111658061D01*
X122409000Y-111861939D01*
X122448774Y-112061898D01*
X122526795Y-112250256D01*
X122640063Y-112419774D01*
X122784226Y-112563937D01*
X122953744Y-112677205D01*
X123142102Y-112755226D01*
X123342061Y-112795000D01*
X123545939Y-112795000D01*
X123745898Y-112755226D01*
X123934256Y-112677205D01*
X124103774Y-112563937D01*
X124147711Y-112520000D01*
X130241199Y-112520000D01*
X131516205Y-113795008D01*
X131539999Y-113824001D01*
X131568992Y-113847795D01*
X131568996Y-113847799D01*
X131639685Y-113905811D01*
X131655724Y-113918974D01*
X131787753Y-113989546D01*
X131931014Y-114033003D01*
X132042667Y-114044000D01*
X132042676Y-114044000D01*
X132079999Y-114047676D01*
X132117322Y-114044000D01*
X138369199Y-114044000D01*
X138432000Y-114106802D01*
X138432000Y-114926821D01*
X138245368Y-115051525D01*
X138038525Y-115258368D01*
X137922000Y-115432760D01*
X137805475Y-115258368D01*
X137598632Y-115051525D01*
X137355411Y-114889010D01*
X137085158Y-114777068D01*
X136798260Y-114720000D01*
X136505740Y-114720000D01*
X136218842Y-114777068D01*
X135948589Y-114889010D01*
X135705368Y-115051525D01*
X135498525Y-115258368D01*
X135336010Y-115501589D01*
X135224068Y-115771842D01*
X135167000Y-116058740D01*
X135167000Y-116351260D01*
X135224068Y-116638158D01*
X135336010Y-116908411D01*
X135498525Y-117151632D01*
X135630380Y-117283487D01*
X135557820Y-117305498D01*
X135447506Y-117364463D01*
X135350815Y-117443815D01*
X135271463Y-117540506D01*
X135212498Y-117650820D01*
X135176188Y-117770518D01*
X135163928Y-117895000D01*
X135167000Y-118459250D01*
X135325750Y-118618000D01*
X136525000Y-118618000D01*
X136525000Y-118598000D01*
X136779000Y-118598000D01*
X136779000Y-118618000D01*
X136799000Y-118618000D01*
X136799000Y-118872000D01*
X136779000Y-118872000D01*
X136779000Y-120071250D01*
X136937750Y-120230000D01*
X137502000Y-120233072D01*
X137626482Y-120220812D01*
X137746180Y-120184502D01*
X137856494Y-120125537D01*
X137953185Y-120046185D01*
X138032537Y-119949494D01*
X138091502Y-119839180D01*
X138113513Y-119766620D01*
X138245368Y-119898475D01*
X138488589Y-120060990D01*
X138758842Y-120172932D01*
X139045740Y-120230000D01*
X139338260Y-120230000D01*
X139625158Y-120172932D01*
X139895411Y-120060990D01*
X140138632Y-119898475D01*
X140345475Y-119691632D01*
X140462000Y-119517240D01*
X140578525Y-119691632D01*
X140785368Y-119898475D01*
X141028589Y-120060990D01*
X141298842Y-120172932D01*
X141585740Y-120230000D01*
X141878260Y-120230000D01*
X142165158Y-120172932D01*
X142435411Y-120060990D01*
X142678632Y-119898475D01*
X142885475Y-119691632D01*
X143047990Y-119448411D01*
X143159932Y-119178158D01*
X143217000Y-118891260D01*
X143217000Y-118598740D01*
X143159932Y-118311842D01*
X143047990Y-118041589D01*
X142885475Y-117798368D01*
X142678632Y-117591525D01*
X142504240Y-117475000D01*
X142678632Y-117358475D01*
X142885475Y-117151632D01*
X143047990Y-116908411D01*
X143159932Y-116638158D01*
X143217000Y-116351260D01*
X143217000Y-116058740D01*
X143159932Y-115771842D01*
X143047990Y-115501589D01*
X142885475Y-115258368D01*
X142678632Y-115051525D01*
X142435411Y-114889010D01*
X142165158Y-114777068D01*
X141878260Y-114720000D01*
X141585740Y-114720000D01*
X141298842Y-114777068D01*
X141028589Y-114889010D01*
X140785368Y-115051525D01*
X140578525Y-115258368D01*
X140462000Y-115432760D01*
X140345475Y-115258368D01*
X140138632Y-115051525D01*
X139952000Y-114926822D01*
X139952000Y-113829322D01*
X139955676Y-113791999D01*
X139952000Y-113754676D01*
X139952000Y-113754667D01*
X139941003Y-113643014D01*
X139897546Y-113499753D01*
X139826974Y-113367724D01*
X139732001Y-113251999D01*
X139703003Y-113228202D01*
X139444000Y-112969199D01*
X139444000Y-108645801D01*
X139535000Y-108554801D01*
X139535000Y-108726335D01*
X139590147Y-109003574D01*
X139698320Y-109264727D01*
X139855363Y-109499759D01*
X140055241Y-109699637D01*
X140287759Y-109855000D01*
X140055241Y-110010363D01*
X139855363Y-110210241D01*
X139698320Y-110445273D01*
X139590147Y-110706426D01*
X139535000Y-110983665D01*
X139535000Y-111266335D01*
X139590147Y-111543574D01*
X139698320Y-111804727D01*
X139855363Y-112039759D01*
X140055241Y-112239637D01*
X140290273Y-112396680D01*
X140551426Y-112504853D01*
X140828665Y-112560000D01*
X141111335Y-112560000D01*
X141388574Y-112504853D01*
X141649727Y-112396680D01*
X141884759Y-112239637D01*
X142084637Y-112039759D01*
X142188043Y-111885000D01*
X142560199Y-111885000D01*
X148321928Y-117646730D01*
X148321928Y-119010000D01*
X148334188Y-119134482D01*
X148370498Y-119254180D01*
X148429463Y-119364494D01*
X148508815Y-119461185D01*
X148605506Y-119540537D01*
X148715820Y-119599502D01*
X148835518Y-119635812D01*
X148960000Y-119648072D01*
X150760000Y-119648072D01*
X150884482Y-119635812D01*
X151004180Y-119599502D01*
X151114494Y-119540537D01*
X151211185Y-119461185D01*
X151290537Y-119364494D01*
X151349502Y-119254180D01*
X151385812Y-119134482D01*
X151398072Y-119010000D01*
X151398072Y-117210000D01*
X151385812Y-117085518D01*
X151349502Y-116965820D01*
X151290537Y-116855506D01*
X151211185Y-116758815D01*
X151114494Y-116679463D01*
X151004180Y-116620498D01*
X150985873Y-116614944D01*
X151052312Y-116548505D01*
X151220299Y-116297095D01*
X151335347Y-116019344D01*
X154325000Y-116019344D01*
X154325000Y-116390656D01*
X154397439Y-116754834D01*
X154539534Y-117097882D01*
X154745825Y-117406618D01*
X155008382Y-117669175D01*
X155317118Y-117875466D01*
X155660166Y-118017561D01*
X156024344Y-118090000D01*
X156395656Y-118090000D01*
X156759834Y-118017561D01*
X157102882Y-117875466D01*
X157411618Y-117669175D01*
X157674175Y-117406618D01*
X157880466Y-117097882D01*
X158022561Y-116754834D01*
X158095000Y-116390656D01*
X158095000Y-116019344D01*
X158022561Y-115655166D01*
X157880466Y-115312118D01*
X157674175Y-115003382D01*
X157411618Y-114740825D01*
X157102882Y-114534534D01*
X156759834Y-114392439D01*
X156395656Y-114320000D01*
X156024344Y-114320000D01*
X155660166Y-114392439D01*
X155317118Y-114534534D01*
X155008382Y-114740825D01*
X154745825Y-115003382D01*
X154539534Y-115312118D01*
X154397439Y-115655166D01*
X154325000Y-116019344D01*
X151335347Y-116019344D01*
X151336011Y-116017743D01*
X151395000Y-115721184D01*
X151395000Y-115418816D01*
X151336011Y-115122257D01*
X151220299Y-114842905D01*
X151052312Y-114591495D01*
X150838505Y-114377688D01*
X150717198Y-114296633D01*
X150897116Y-114161649D01*
X151097962Y-113937573D01*
X151251234Y-113678620D01*
X151351041Y-113394741D01*
X151230992Y-113157000D01*
X149987000Y-113157000D01*
X149987000Y-113177000D01*
X149733000Y-113177000D01*
X149733000Y-113157000D01*
X148489008Y-113157000D01*
X148368959Y-113394741D01*
X148468766Y-113678620D01*
X148622038Y-113937573D01*
X148822884Y-114161649D01*
X149002802Y-114296633D01*
X148881495Y-114377688D01*
X148667688Y-114591495D01*
X148499701Y-114842905D01*
X148383989Y-115122257D01*
X148325000Y-115418816D01*
X148325000Y-115500198D01*
X145490061Y-112665259D01*
X148368959Y-112665259D01*
X148489008Y-112903000D01*
X149733000Y-112903000D01*
X149733000Y-111659622D01*
X149987000Y-111659622D01*
X149987000Y-112903000D01*
X151230992Y-112903000D01*
X151351041Y-112665259D01*
X151251234Y-112381380D01*
X151097962Y-112122427D01*
X150897116Y-111898351D01*
X150656414Y-111717764D01*
X150385107Y-111587606D01*
X150224740Y-111538964D01*
X149987000Y-111659622D01*
X149733000Y-111659622D01*
X149495260Y-111538964D01*
X149334893Y-111587606D01*
X149063586Y-111717764D01*
X148822884Y-111898351D01*
X148622038Y-112122427D01*
X148468766Y-112381380D01*
X148368959Y-112665259D01*
X145490061Y-112665259D01*
X143438804Y-110614003D01*
X143415001Y-110584999D01*
X143299276Y-110490026D01*
X143167247Y-110419454D01*
X143023986Y-110375997D01*
X142912333Y-110365000D01*
X142912322Y-110365000D01*
X142875000Y-110361324D01*
X142837678Y-110365000D01*
X142188043Y-110365000D01*
X142131062Y-110279721D01*
X154075000Y-110279721D01*
X154075000Y-110700279D01*
X154157047Y-111112756D01*
X154317988Y-111501302D01*
X154551637Y-111850983D01*
X154849017Y-112148363D01*
X155198698Y-112382012D01*
X155587244Y-112542953D01*
X155999721Y-112625000D01*
X156420279Y-112625000D01*
X156832756Y-112542953D01*
X157221302Y-112382012D01*
X157570983Y-112148363D01*
X157868363Y-111850983D01*
X158102012Y-111501302D01*
X158262953Y-111112756D01*
X158345000Y-110700279D01*
X158345000Y-110279721D01*
X158262953Y-109867244D01*
X158102012Y-109478698D01*
X157868363Y-109129017D01*
X157570983Y-108831637D01*
X157221302Y-108597988D01*
X156832756Y-108437047D01*
X156420279Y-108355000D01*
X155999721Y-108355000D01*
X155587244Y-108437047D01*
X155198698Y-108597988D01*
X154849017Y-108831637D01*
X154551637Y-109129017D01*
X154317988Y-109478698D01*
X154157047Y-109867244D01*
X154075000Y-110279721D01*
X142131062Y-110279721D01*
X142084637Y-110210241D01*
X141884759Y-110010363D01*
X141652241Y-109855000D01*
X141884759Y-109699637D01*
X142084637Y-109499759D01*
X142241680Y-109264727D01*
X142349853Y-109003574D01*
X142405000Y-108726335D01*
X142405000Y-108443665D01*
X142368688Y-108261114D01*
X142554802Y-108075000D01*
X148321928Y-108075000D01*
X148321928Y-108215000D01*
X148334188Y-108339482D01*
X148370498Y-108459180D01*
X148429463Y-108569494D01*
X148508815Y-108666185D01*
X148605506Y-108745537D01*
X148715820Y-108804502D01*
X148835518Y-108840812D01*
X148960000Y-108853072D01*
X150760000Y-108853072D01*
X150884482Y-108840812D01*
X151004180Y-108804502D01*
X151114494Y-108745537D01*
X151211185Y-108666185D01*
X151290537Y-108569494D01*
X151349502Y-108459180D01*
X151385812Y-108339482D01*
X151398072Y-108215000D01*
X151398072Y-106415000D01*
X151385812Y-106290518D01*
X151349502Y-106170820D01*
X151290537Y-106060506D01*
X151211185Y-105963815D01*
X151114494Y-105884463D01*
X151004180Y-105825498D01*
X150985873Y-105819944D01*
X151052312Y-105753505D01*
X151220299Y-105502095D01*
X151336011Y-105222743D01*
X151340590Y-105199721D01*
X154075000Y-105199721D01*
X154075000Y-105620279D01*
X154157047Y-106032756D01*
X154317988Y-106421302D01*
X154551637Y-106770983D01*
X154849017Y-107068363D01*
X155198698Y-107302012D01*
X155587244Y-107462953D01*
X155999721Y-107545000D01*
X156420279Y-107545000D01*
X156832756Y-107462953D01*
X157221302Y-107302012D01*
X157570983Y-107068363D01*
X157868363Y-106770983D01*
X158102012Y-106421302D01*
X158262953Y-106032756D01*
X158345000Y-105620279D01*
X158345000Y-105199721D01*
X158262953Y-104787244D01*
X158102012Y-104398698D01*
X157868363Y-104049017D01*
X157570983Y-103751637D01*
X157221302Y-103517988D01*
X156832756Y-103357047D01*
X156420279Y-103275000D01*
X155999721Y-103275000D01*
X155587244Y-103357047D01*
X155198698Y-103517988D01*
X154849017Y-103751637D01*
X154551637Y-104049017D01*
X154317988Y-104398698D01*
X154157047Y-104787244D01*
X154075000Y-105199721D01*
X151340590Y-105199721D01*
X151395000Y-104926184D01*
X151395000Y-104623816D01*
X151336011Y-104327257D01*
X151220299Y-104047905D01*
X151052312Y-103796495D01*
X150838505Y-103582688D01*
X150717198Y-103501633D01*
X150897116Y-103366649D01*
X151097962Y-103142573D01*
X151251234Y-102883620D01*
X151351041Y-102599741D01*
X151230992Y-102362000D01*
X149987000Y-102362000D01*
X149987000Y-102382000D01*
X149733000Y-102382000D01*
X149733000Y-102362000D01*
X148489008Y-102362000D01*
X148368959Y-102599741D01*
X148468766Y-102883620D01*
X148622038Y-103142573D01*
X148822884Y-103366649D01*
X149002802Y-103501633D01*
X148881495Y-103582688D01*
X148667688Y-103796495D01*
X148499701Y-104047905D01*
X148383989Y-104327257D01*
X148325000Y-104623816D01*
X148325000Y-104926184D01*
X148383989Y-105222743D01*
X148499701Y-105502095D01*
X148667688Y-105753505D01*
X148734127Y-105819944D01*
X148715820Y-105825498D01*
X148605506Y-105884463D01*
X148508815Y-105963815D01*
X148429463Y-106060506D01*
X148370498Y-106170820D01*
X148334188Y-106290518D01*
X148321928Y-106415000D01*
X148321928Y-106555000D01*
X142311983Y-106555000D01*
X142349853Y-106463574D01*
X142405000Y-106186335D01*
X142405000Y-105903665D01*
X142349853Y-105626426D01*
X142241680Y-105365273D01*
X142084637Y-105130241D01*
X141884759Y-104930363D01*
X141652241Y-104775000D01*
X141884759Y-104619637D01*
X142084637Y-104419759D01*
X142241680Y-104184727D01*
X142349853Y-103923574D01*
X142405000Y-103646335D01*
X142405000Y-103363665D01*
X142349853Y-103086426D01*
X142241680Y-102825273D01*
X142084637Y-102590241D01*
X141884759Y-102390363D01*
X141649727Y-102233320D01*
X141388574Y-102125147D01*
X141111335Y-102070000D01*
X140828665Y-102070000D01*
X140551426Y-102125147D01*
X140290273Y-102233320D01*
X140055241Y-102390363D01*
X139855363Y-102590241D01*
X139698320Y-102825273D01*
X139590147Y-103086426D01*
X139535000Y-103363665D01*
X139535000Y-103646335D01*
X139590147Y-103923574D01*
X139698320Y-104184727D01*
X139855363Y-104419759D01*
X140055241Y-104619637D01*
X140287759Y-104775000D01*
X140055241Y-104930363D01*
X139855363Y-105130241D01*
X139698320Y-105365273D01*
X139590147Y-105626426D01*
X139535000Y-105903665D01*
X139535000Y-106186335D01*
X139571312Y-106368886D01*
X138173003Y-107767196D01*
X138143999Y-107790999D01*
X138095579Y-107850000D01*
X138049026Y-107906724D01*
X137986613Y-108023490D01*
X137978454Y-108038754D01*
X137934997Y-108182015D01*
X137924000Y-108293668D01*
X137924000Y-108293678D01*
X137920324Y-108331000D01*
X137924000Y-108368323D01*
X137924001Y-112524000D01*
X133477002Y-112524000D01*
X133477002Y-112395625D01*
X133699040Y-112516909D01*
X133963881Y-112422070D01*
X134205131Y-112277385D01*
X134413519Y-112088414D01*
X134581037Y-111862420D01*
X134701246Y-111608087D01*
X134741904Y-111474039D01*
X134619915Y-111252000D01*
X133477000Y-111252000D01*
X133477000Y-111272000D01*
X133223000Y-111272000D01*
X133223000Y-111252000D01*
X132080085Y-111252000D01*
X131958096Y-111474039D01*
X131998754Y-111608087D01*
X132118963Y-111862420D01*
X132286481Y-112088414D01*
X132494869Y-112277385D01*
X132736119Y-112422070D01*
X133000960Y-112516909D01*
X133222998Y-112395625D01*
X133222998Y-112524000D01*
X132394803Y-112524000D01*
X131119803Y-111249002D01*
X131096001Y-111219999D01*
X130980276Y-111125026D01*
X130848247Y-111054454D01*
X130704986Y-111010997D01*
X130593333Y-111000000D01*
X130593322Y-111000000D01*
X130556000Y-110996324D01*
X130518678Y-111000000D01*
X129738803Y-111000000D01*
X131627799Y-109111005D01*
X131627803Y-109111000D01*
X131931171Y-108807632D01*
X131970147Y-109003574D01*
X132078320Y-109264727D01*
X132235363Y-109499759D01*
X132435241Y-109699637D01*
X132670273Y-109856680D01*
X132680865Y-109861067D01*
X132494869Y-109972615D01*
X132286481Y-110161586D01*
X132118963Y-110387580D01*
X131998754Y-110641913D01*
X131958096Y-110775961D01*
X132080085Y-110998000D01*
X133223000Y-110998000D01*
X133223000Y-110978000D01*
X133477000Y-110978000D01*
X133477000Y-110998000D01*
X134619915Y-110998000D01*
X134741904Y-110775961D01*
X134701246Y-110641913D01*
X134581037Y-110387580D01*
X134413519Y-110161586D01*
X134205131Y-109972615D01*
X134019135Y-109861067D01*
X134029727Y-109856680D01*
X134264759Y-109699637D01*
X134464637Y-109499759D01*
X134621680Y-109264727D01*
X134729853Y-109003574D01*
X134785000Y-108726335D01*
X134785000Y-108443665D01*
X134748688Y-108261114D01*
X135639004Y-107370798D01*
X135668001Y-107347001D01*
X135762974Y-107231276D01*
X135833546Y-107099247D01*
X135877003Y-106955986D01*
X135888000Y-106844333D01*
X135888000Y-106844325D01*
X135891676Y-106807000D01*
X135888000Y-106769675D01*
X135888000Y-101870259D01*
X148368959Y-101870259D01*
X148489008Y-102108000D01*
X149733000Y-102108000D01*
X149733000Y-100864622D01*
X149987000Y-100864622D01*
X149987000Y-102108000D01*
X151230992Y-102108000D01*
X151351041Y-101870259D01*
X151251234Y-101586380D01*
X151097962Y-101327427D01*
X150897116Y-101103351D01*
X150656414Y-100922764D01*
X150385107Y-100792606D01*
X150224740Y-100743964D01*
X149987000Y-100864622D01*
X149733000Y-100864622D01*
X149495260Y-100743964D01*
X149334893Y-100792606D01*
X149063586Y-100922764D01*
X148822884Y-101103351D01*
X148622038Y-101327427D01*
X148468766Y-101586380D01*
X148368959Y-101870259D01*
X135888000Y-101870259D01*
X135888000Y-100250413D01*
X137624192Y-100250413D01*
X137719956Y-100514814D01*
X138009571Y-100655704D01*
X138321108Y-100737384D01*
X138642595Y-100756718D01*
X138961675Y-100712961D01*
X139266088Y-100607795D01*
X139440044Y-100514814D01*
X139535808Y-100250413D01*
X139405116Y-100119721D01*
X154075000Y-100119721D01*
X154075000Y-100540279D01*
X154157047Y-100952756D01*
X154317988Y-101341302D01*
X154551637Y-101690983D01*
X154849017Y-101988363D01*
X155198698Y-102222012D01*
X155587244Y-102382953D01*
X155999721Y-102465000D01*
X156420279Y-102465000D01*
X156832756Y-102382953D01*
X157221302Y-102222012D01*
X157570983Y-101988363D01*
X157868363Y-101690983D01*
X158102012Y-101341302D01*
X158262953Y-100952756D01*
X158345000Y-100540279D01*
X158345000Y-100119721D01*
X158262953Y-99707244D01*
X158102012Y-99318698D01*
X157868363Y-98969017D01*
X157570983Y-98671637D01*
X157221302Y-98437988D01*
X156832756Y-98277047D01*
X156420279Y-98195000D01*
X155999721Y-98195000D01*
X155587244Y-98277047D01*
X155198698Y-98437988D01*
X154849017Y-98671637D01*
X154551637Y-98969017D01*
X154317988Y-99318698D01*
X154157047Y-99707244D01*
X154075000Y-100119721D01*
X139405116Y-100119721D01*
X138580000Y-99294605D01*
X137624192Y-100250413D01*
X135888000Y-100250413D01*
X135888000Y-99374801D01*
X136085206Y-99177595D01*
X136938282Y-99177595D01*
X136982039Y-99496675D01*
X137087205Y-99801088D01*
X137180186Y-99975044D01*
X137444587Y-100070808D01*
X138400395Y-99115000D01*
X138759605Y-99115000D01*
X139715413Y-100070808D01*
X139979814Y-99975044D01*
X140120704Y-99685429D01*
X140202384Y-99373892D01*
X140221718Y-99052405D01*
X140177961Y-98733325D01*
X140072795Y-98428912D01*
X139979814Y-98254956D01*
X139715413Y-98159192D01*
X138759605Y-99115000D01*
X138400395Y-99115000D01*
X137444587Y-98159192D01*
X137180186Y-98254956D01*
X137039296Y-98544571D01*
X136957616Y-98856108D01*
X136938282Y-99177595D01*
X136085206Y-99177595D01*
X137283215Y-97979587D01*
X137624192Y-97979587D01*
X138580000Y-98935395D01*
X139535808Y-97979587D01*
X139440044Y-97715186D01*
X139150429Y-97574296D01*
X138838892Y-97492616D01*
X138517405Y-97473282D01*
X138198325Y-97517039D01*
X137893912Y-97622205D01*
X137719956Y-97715186D01*
X137624192Y-97979587D01*
X137283215Y-97979587D01*
X137982803Y-97280000D01*
X142606928Y-97280000D01*
X142606928Y-97420000D01*
X142619188Y-97544482D01*
X142655498Y-97664180D01*
X142714463Y-97774494D01*
X142793815Y-97871185D01*
X142890506Y-97950537D01*
X143000820Y-98009502D01*
X143120518Y-98045812D01*
X143245000Y-98058072D01*
X145045000Y-98058072D01*
X145169482Y-98045812D01*
X145289180Y-98009502D01*
X145399494Y-97950537D01*
X145496185Y-97871185D01*
X145575537Y-97774494D01*
X145634502Y-97664180D01*
X145640056Y-97645873D01*
X145706495Y-97712312D01*
X145957905Y-97880299D01*
X146237257Y-97996011D01*
X146533816Y-98055000D01*
X146836184Y-98055000D01*
X147132743Y-97996011D01*
X147412095Y-97880299D01*
X147663505Y-97712312D01*
X147877312Y-97498505D01*
X147958367Y-97377198D01*
X148093351Y-97557116D01*
X148317427Y-97757962D01*
X148576380Y-97911234D01*
X148860259Y-98011041D01*
X149098000Y-97890992D01*
X149098000Y-96647000D01*
X149352000Y-96647000D01*
X149352000Y-97890992D01*
X149589741Y-98011041D01*
X149873620Y-97911234D01*
X150132573Y-97757962D01*
X150356649Y-97557116D01*
X150537236Y-97316414D01*
X150667394Y-97045107D01*
X150716036Y-96884740D01*
X150595378Y-96647000D01*
X149352000Y-96647000D01*
X149098000Y-96647000D01*
X149078000Y-96647000D01*
X149078000Y-96393000D01*
X149098000Y-96393000D01*
X149098000Y-95149008D01*
X149352000Y-95149008D01*
X149352000Y-96393000D01*
X150595378Y-96393000D01*
X150716036Y-96155260D01*
X150667394Y-95994893D01*
X150537236Y-95723586D01*
X150356649Y-95482884D01*
X150132573Y-95282038D01*
X149873620Y-95128766D01*
X149620352Y-95039721D01*
X154075000Y-95039721D01*
X154075000Y-95460279D01*
X154157047Y-95872756D01*
X154317988Y-96261302D01*
X154551637Y-96610983D01*
X154849017Y-96908363D01*
X155198698Y-97142012D01*
X155587244Y-97302953D01*
X155999721Y-97385000D01*
X156420279Y-97385000D01*
X156832756Y-97302953D01*
X157221302Y-97142012D01*
X157570983Y-96908363D01*
X157868363Y-96610983D01*
X158102012Y-96261302D01*
X158262953Y-95872756D01*
X158345000Y-95460279D01*
X158345000Y-95039721D01*
X158262953Y-94627244D01*
X158102012Y-94238698D01*
X157868363Y-93889017D01*
X157570983Y-93591637D01*
X157221302Y-93357988D01*
X156832756Y-93197047D01*
X156420279Y-93115000D01*
X155999721Y-93115000D01*
X155587244Y-93197047D01*
X155198698Y-93357988D01*
X154849017Y-93591637D01*
X154551637Y-93889017D01*
X154317988Y-94238698D01*
X154157047Y-94627244D01*
X154075000Y-95039721D01*
X149620352Y-95039721D01*
X149589741Y-95028959D01*
X149352000Y-95149008D01*
X149098000Y-95149008D01*
X148860259Y-95028959D01*
X148576380Y-95128766D01*
X148317427Y-95282038D01*
X148093351Y-95482884D01*
X147958367Y-95662802D01*
X147877312Y-95541495D01*
X147663505Y-95327688D01*
X147412095Y-95159701D01*
X147132743Y-95043989D01*
X146836184Y-94985000D01*
X146533816Y-94985000D01*
X146237257Y-95043989D01*
X145957905Y-95159701D01*
X145706495Y-95327688D01*
X145640056Y-95394127D01*
X145634502Y-95375820D01*
X145575537Y-95265506D01*
X145496185Y-95168815D01*
X145399494Y-95089463D01*
X145289180Y-95030498D01*
X145169482Y-94994188D01*
X145045000Y-94981928D01*
X143245000Y-94981928D01*
X143120518Y-94994188D01*
X143000820Y-95030498D01*
X142890506Y-95089463D01*
X142793815Y-95168815D01*
X142714463Y-95265506D01*
X142655498Y-95375820D01*
X142619188Y-95495518D01*
X142606928Y-95620000D01*
X142606928Y-95760000D01*
X139747239Y-95760000D01*
X139849987Y-95657252D01*
X140028918Y-95389463D01*
X140152168Y-95091912D01*
X140215000Y-94776033D01*
X140215000Y-94453967D01*
X140152168Y-94138088D01*
X140028918Y-93840537D01*
X139849987Y-93572748D01*
X139622252Y-93345013D01*
X139354463Y-93166082D01*
X139056912Y-93042832D01*
X138741033Y-92980000D01*
X138418967Y-92980000D01*
X138103088Y-93042832D01*
X137805537Y-93166082D01*
X137537748Y-93345013D01*
X137310013Y-93572748D01*
X137131082Y-93840537D01*
X137007832Y-94138088D01*
X136945000Y-94453967D01*
X136945000Y-94776033D01*
X137007832Y-95091912D01*
X137131082Y-95389463D01*
X137310013Y-95657252D01*
X137445928Y-95793167D01*
X137375753Y-95814454D01*
X137243724Y-95885026D01*
X137243722Y-95885027D01*
X137243723Y-95885027D01*
X137156996Y-95956201D01*
X137156992Y-95956205D01*
X137127999Y-95979999D01*
X137104205Y-96008992D01*
X134616998Y-98496201D01*
X134588000Y-98519999D01*
X134564202Y-98548997D01*
X134564201Y-98548998D01*
X134493026Y-98635724D01*
X134422454Y-98767754D01*
X134378998Y-98911015D01*
X134364324Y-99060000D01*
X134368001Y-99097332D01*
X134368001Y-102107557D01*
X134274482Y-102079188D01*
X134150000Y-102066928D01*
X132964126Y-102066928D01*
X132847247Y-102004454D01*
X132703986Y-101960997D01*
X132592333Y-101950000D01*
X132592322Y-101950000D01*
X132555000Y-101946324D01*
X132517678Y-101950000D01*
X130827087Y-101950000D01*
X130815812Y-101835518D01*
X130779502Y-101715820D01*
X130720537Y-101605506D01*
X130641185Y-101508815D01*
X130544494Y-101429463D01*
X130434180Y-101370498D01*
X130314482Y-101334188D01*
X130190000Y-101321928D01*
X128890000Y-101321928D01*
X128765518Y-101334188D01*
X128645820Y-101370498D01*
X128535506Y-101429463D01*
X128438815Y-101508815D01*
X128359463Y-101605506D01*
X128300498Y-101715820D01*
X128264188Y-101835518D01*
X128251928Y-101960000D01*
X128251928Y-103460000D01*
X128264188Y-103584482D01*
X128300498Y-103704180D01*
X128359463Y-103814494D01*
X128438815Y-103911185D01*
X128535506Y-103990537D01*
X128645820Y-104049502D01*
X128680427Y-104060000D01*
X128645820Y-104070498D01*
X128535506Y-104129463D01*
X128438815Y-104208815D01*
X128359463Y-104305506D01*
X128300498Y-104415820D01*
X128267379Y-104525000D01*
X127959465Y-104525000D01*
X127915999Y-104520719D01*
X127872533Y-104525000D01*
X127872523Y-104525000D01*
X127742510Y-104537805D01*
X127575687Y-104588411D01*
X127421941Y-104670589D01*
X127421939Y-104670590D01*
X127421940Y-104670590D01*
X127320953Y-104753468D01*
X127320951Y-104753470D01*
X127287183Y-104781183D01*
X127259470Y-104814951D01*
X126764072Y-105310349D01*
X126764072Y-104500000D01*
X126751812Y-104375518D01*
X126715502Y-104255820D01*
X126656537Y-104145506D01*
X126577185Y-104048815D01*
X126480494Y-103969463D01*
X126370180Y-103910498D01*
X126250482Y-103874188D01*
X126126000Y-103861928D01*
X124826000Y-103861928D01*
X124701518Y-103874188D01*
X124649707Y-103889905D01*
X123590000Y-102830199D01*
X123590000Y-102768061D01*
X123550226Y-102568102D01*
X123472205Y-102379744D01*
X123358937Y-102210226D01*
X123214774Y-102066063D01*
X123045256Y-101952795D01*
X122856898Y-101874774D01*
X122656939Y-101835000D01*
X122453061Y-101835000D01*
X122253102Y-101874774D01*
X122064744Y-101952795D01*
X121895226Y-102066063D01*
X121751063Y-102210226D01*
X121637795Y-102379744D01*
X121559774Y-102568102D01*
X121520000Y-102768061D01*
X121520000Y-102971939D01*
X121559774Y-103171898D01*
X121637795Y-103360256D01*
X121751063Y-103529774D01*
X121895226Y-103673937D01*
X122064744Y-103787205D01*
X122253102Y-103865226D01*
X122453061Y-103905000D01*
X122515199Y-103905000D01*
X122552127Y-103941928D01*
X121270000Y-103941928D01*
X121145518Y-103954188D01*
X121025820Y-103990498D01*
X120915506Y-104049463D01*
X120859900Y-104095098D01*
X119632000Y-102867199D01*
X119632000Y-102811711D01*
X119675937Y-102767774D01*
X119789205Y-102598256D01*
X119867226Y-102409898D01*
X119907000Y-102209939D01*
X119907000Y-102006061D01*
X119867226Y-101806102D01*
X119789205Y-101617744D01*
X119675937Y-101448226D01*
X119531774Y-101304063D01*
X119362256Y-101190795D01*
X119173898Y-101112774D01*
X118973939Y-101073000D01*
X118770061Y-101073000D01*
X118570102Y-101112774D01*
X118381744Y-101190795D01*
X118212226Y-101304063D01*
X118068063Y-101448226D01*
X117954795Y-101617744D01*
X117876774Y-101806102D01*
X117837000Y-102006061D01*
X117837000Y-102209939D01*
X117876774Y-102409898D01*
X117954795Y-102598256D01*
X118068063Y-102767774D01*
X118112000Y-102811711D01*
X118112000Y-103144677D01*
X118108324Y-103182000D01*
X118112000Y-103219322D01*
X118112000Y-103219332D01*
X118122997Y-103330985D01*
X118148392Y-103414701D01*
X118166454Y-103474246D01*
X118237026Y-103606276D01*
X118269902Y-103646335D01*
X118331999Y-103722001D01*
X118361003Y-103745804D01*
X118477127Y-103861928D01*
X117714000Y-103861928D01*
X117589518Y-103874188D01*
X117469820Y-103910498D01*
X117359506Y-103969463D01*
X117262815Y-104048815D01*
X117183463Y-104145506D01*
X117124498Y-104255820D01*
X117088188Y-104375518D01*
X117081345Y-104445000D01*
X116080621Y-104445000D01*
X116047502Y-104335820D01*
X115988537Y-104225506D01*
X115909185Y-104128815D01*
X115812494Y-104049463D01*
X115702180Y-103990498D01*
X115693000Y-103987713D01*
X115693000Y-102728578D01*
X118171165Y-100250413D01*
X131124192Y-100250413D01*
X131219956Y-100514814D01*
X131509571Y-100655704D01*
X131821108Y-100737384D01*
X132142595Y-100756718D01*
X132461675Y-100712961D01*
X132766088Y-100607795D01*
X132940044Y-100514814D01*
X133035808Y-100250413D01*
X132080000Y-99294605D01*
X131124192Y-100250413D01*
X118171165Y-100250413D01*
X118451049Y-99970530D01*
X118484817Y-99942817D01*
X118595411Y-99808059D01*
X118677589Y-99654313D01*
X118728195Y-99487490D01*
X118741000Y-99357477D01*
X118741000Y-99357469D01*
X118745281Y-99314000D01*
X118741000Y-99270531D01*
X118741000Y-99177595D01*
X130438282Y-99177595D01*
X130482039Y-99496675D01*
X130587205Y-99801088D01*
X130680186Y-99975044D01*
X130944587Y-100070808D01*
X131900395Y-99115000D01*
X132259605Y-99115000D01*
X133215413Y-100070808D01*
X133479814Y-99975044D01*
X133620704Y-99685429D01*
X133702384Y-99373892D01*
X133721718Y-99052405D01*
X133677961Y-98733325D01*
X133572795Y-98428912D01*
X133479814Y-98254956D01*
X133215413Y-98159192D01*
X132259605Y-99115000D01*
X131900395Y-99115000D01*
X130944587Y-98159192D01*
X130680186Y-98254956D01*
X130539296Y-98544571D01*
X130457616Y-98856108D01*
X130438282Y-99177595D01*
X118741000Y-99177595D01*
X118741000Y-97979587D01*
X131124192Y-97979587D01*
X132080000Y-98935395D01*
X133035808Y-97979587D01*
X132940044Y-97715186D01*
X132650429Y-97574296D01*
X132338892Y-97492616D01*
X132017405Y-97473282D01*
X131698325Y-97517039D01*
X131393912Y-97622205D01*
X131219956Y-97715186D01*
X131124192Y-97979587D01*
X118741000Y-97979587D01*
X118741000Y-96480625D01*
X118830482Y-96471812D01*
X118950180Y-96435502D01*
X119060494Y-96376537D01*
X119157185Y-96297185D01*
X119236537Y-96200494D01*
X119295502Y-96090180D01*
X119331812Y-95970482D01*
X119344072Y-95846000D01*
X119344072Y-94453967D01*
X130445000Y-94453967D01*
X130445000Y-94776033D01*
X130507832Y-95091912D01*
X130631082Y-95389463D01*
X130810013Y-95657252D01*
X131037748Y-95884987D01*
X131305537Y-96063918D01*
X131603088Y-96187168D01*
X131918967Y-96250000D01*
X132241033Y-96250000D01*
X132556912Y-96187168D01*
X132854463Y-96063918D01*
X133122252Y-95884987D01*
X133349987Y-95657252D01*
X133528918Y-95389463D01*
X133652168Y-95091912D01*
X133715000Y-94776033D01*
X133715000Y-94453967D01*
X133652168Y-94138088D01*
X133528918Y-93840537D01*
X133349987Y-93572748D01*
X133122252Y-93345013D01*
X132854463Y-93166082D01*
X132556912Y-93042832D01*
X132241033Y-92980000D01*
X131918967Y-92980000D01*
X131603088Y-93042832D01*
X131305537Y-93166082D01*
X131037748Y-93345013D01*
X130810013Y-93572748D01*
X130631082Y-93840537D01*
X130507832Y-94138088D01*
X130445000Y-94453967D01*
X119344072Y-94453967D01*
X119344072Y-94146000D01*
X119331812Y-94021518D01*
X119295502Y-93901820D01*
X119236537Y-93791506D01*
X119157185Y-93694815D01*
X119060494Y-93615463D01*
X118950180Y-93556498D01*
X118830482Y-93520188D01*
X118706000Y-93507928D01*
X117006000Y-93507928D01*
X116881518Y-93520188D01*
X116761820Y-93556498D01*
X116651506Y-93615463D01*
X116554815Y-93694815D01*
X116475463Y-93791506D01*
X116416498Y-93901820D01*
X116394487Y-93974380D01*
X116262632Y-93842525D01*
X116019411Y-93680010D01*
X115749158Y-93568068D01*
X115462260Y-93511000D01*
X115169740Y-93511000D01*
X114882842Y-93568068D01*
X114612589Y-93680010D01*
X114369368Y-93842525D01*
X114162525Y-94049368D01*
X114046000Y-94223760D01*
X113929475Y-94049368D01*
X113722632Y-93842525D01*
X113479411Y-93680010D01*
X113209158Y-93568068D01*
X112922260Y-93511000D01*
X112629740Y-93511000D01*
X112342842Y-93568068D01*
X112072589Y-93680010D01*
X111829368Y-93842525D01*
X111622525Y-94049368D01*
X111500805Y-94231534D01*
X111431178Y-94114645D01*
X111236269Y-93898412D01*
X111002920Y-93724359D01*
X110740099Y-93599175D01*
X110592890Y-93554524D01*
X110363000Y-93675845D01*
X110363000Y-94869000D01*
X110383000Y-94869000D01*
X110383000Y-95123000D01*
X110363000Y-95123000D01*
X110363000Y-96316155D01*
X110592890Y-96437476D01*
X110740099Y-96392825D01*
X111002920Y-96267641D01*
X111236269Y-96093588D01*
X111431178Y-95877355D01*
X111500805Y-95760466D01*
X111622525Y-95942632D01*
X111829368Y-96149475D01*
X112072589Y-96311990D01*
X112342842Y-96423932D01*
X112629740Y-96481000D01*
X112922260Y-96481000D01*
X113209158Y-96423932D01*
X113479411Y-96311990D01*
X113722632Y-96149475D01*
X113929475Y-95942632D01*
X114046000Y-95768240D01*
X114162525Y-95942632D01*
X114369368Y-96149475D01*
X114612589Y-96311990D01*
X114882842Y-96423932D01*
X115169740Y-96481000D01*
X115462260Y-96481000D01*
X115749158Y-96423932D01*
X116019411Y-96311990D01*
X116262632Y-96149475D01*
X116394487Y-96017620D01*
X116416498Y-96090180D01*
X116475463Y-96200494D01*
X116554815Y-96297185D01*
X116651506Y-96376537D01*
X116761820Y-96435502D01*
X116881518Y-96471812D01*
X116971000Y-96480625D01*
X116971001Y-98947420D01*
X114212956Y-101705466D01*
X114179183Y-101733183D01*
X114068589Y-101867942D01*
X113986411Y-102021688D01*
X113960737Y-102106324D01*
X113941421Y-102169999D01*
X113935805Y-102188511D01*
X113923000Y-102318524D01*
X113923000Y-102318531D01*
X113918719Y-102362000D01*
X113923000Y-102405469D01*
X113923001Y-103987713D01*
X113913820Y-103990498D01*
X113803506Y-104049463D01*
X113706815Y-104128815D01*
X113627463Y-104225506D01*
X113568498Y-104335820D01*
X113532188Y-104455518D01*
X113519928Y-104580000D01*
X113519928Y-106080000D01*
X113532188Y-106204482D01*
X113568498Y-106324180D01*
X113627463Y-106434494D01*
X113706815Y-106531185D01*
X113803506Y-106610537D01*
X113913820Y-106669502D01*
X113948427Y-106680000D01*
X113913820Y-106690498D01*
X113803506Y-106749463D01*
X113706815Y-106828815D01*
X113627463Y-106925506D01*
X113568498Y-107035820D01*
X113533862Y-107150000D01*
X112514087Y-107150000D01*
X112502812Y-107035518D01*
X112466502Y-106915820D01*
X112407537Y-106805506D01*
X112328185Y-106708815D01*
X112268704Y-106660000D01*
X112328185Y-106611185D01*
X112407537Y-106514494D01*
X112466502Y-106404180D01*
X112502812Y-106284482D01*
X112515072Y-106160000D01*
X112512000Y-105695750D01*
X112353250Y-105537000D01*
X111379000Y-105537000D01*
X111379000Y-105557000D01*
X111125000Y-105557000D01*
X111125000Y-105537000D01*
X110150750Y-105537000D01*
X109992000Y-105695750D01*
X109988928Y-106160000D01*
X110001188Y-106284482D01*
X110037498Y-106404180D01*
X110096463Y-106514494D01*
X110175815Y-106611185D01*
X110235296Y-106660000D01*
X110175815Y-106708815D01*
X110096463Y-106805506D01*
X110037498Y-106915820D01*
X110001188Y-107035518D01*
X109988928Y-107160000D01*
X109988928Y-108660000D01*
X110001188Y-108784482D01*
X110037498Y-108904180D01*
X110096463Y-109014494D01*
X110175815Y-109111185D01*
X110272506Y-109190537D01*
X110382820Y-109249502D01*
X110492000Y-109282622D01*
X110492001Y-110246849D01*
X110442102Y-110256774D01*
X110253744Y-110334795D01*
X110084226Y-110448063D01*
X109982000Y-110550289D01*
X109982000Y-104660000D01*
X109988928Y-104660000D01*
X109992000Y-105124250D01*
X110150750Y-105283000D01*
X111125000Y-105283000D01*
X111125000Y-104183750D01*
X111379000Y-104183750D01*
X111379000Y-105283000D01*
X112353250Y-105283000D01*
X112512000Y-105124250D01*
X112515072Y-104660000D01*
X112502812Y-104535518D01*
X112466502Y-104415820D01*
X112407537Y-104305506D01*
X112328185Y-104208815D01*
X112231494Y-104129463D01*
X112121180Y-104070498D01*
X112001482Y-104034188D01*
X111877000Y-104021928D01*
X111537750Y-104025000D01*
X111379000Y-104183750D01*
X111125000Y-104183750D01*
X110966250Y-104025000D01*
X110627000Y-104021928D01*
X110502518Y-104034188D01*
X110382820Y-104070498D01*
X110272506Y-104129463D01*
X110175815Y-104208815D01*
X110096463Y-104305506D01*
X110037498Y-104415820D01*
X110001188Y-104535518D01*
X109988928Y-104660000D01*
X109982000Y-104660000D01*
X109982000Y-97155000D01*
X109979560Y-97130224D01*
X109972333Y-97106399D01*
X109960597Y-97084443D01*
X109944803Y-97065197D01*
X109925557Y-97049403D01*
X109903601Y-97037667D01*
X109879776Y-97030440D01*
X109855000Y-97028000D01*
X102240000Y-97028000D01*
X102240000Y-95352891D01*
X108794519Y-95352891D01*
X108891843Y-95627252D01*
X109040822Y-95877355D01*
X109235731Y-96093588D01*
X109469080Y-96267641D01*
X109731901Y-96392825D01*
X109879110Y-96437476D01*
X110109000Y-96316155D01*
X110109000Y-95123000D01*
X108915186Y-95123000D01*
X108794519Y-95352891D01*
X102240000Y-95352891D01*
X102240000Y-94639109D01*
X108794519Y-94639109D01*
X108915186Y-94869000D01*
X110109000Y-94869000D01*
X110109000Y-93675845D01*
X109879110Y-93554524D01*
X109731901Y-93599175D01*
X109469080Y-93724359D01*
X109235731Y-93898412D01*
X109040822Y-94114645D01*
X108891843Y-94364748D01*
X108794519Y-94639109D01*
X102240000Y-94639109D01*
X102240000Y-89301320D01*
X108475248Y-89301320D01*
X108475248Y-91800680D01*
X108487508Y-91925162D01*
X108523818Y-92044860D01*
X108582783Y-92155174D01*
X108662135Y-92251865D01*
X108758826Y-92331217D01*
X108869140Y-92390182D01*
X108988838Y-92426492D01*
X109113320Y-92438752D01*
X111612680Y-92438752D01*
X111737162Y-92426492D01*
X111856860Y-92390182D01*
X111967174Y-92331217D01*
X112063865Y-92251865D01*
X112143217Y-92155174D01*
X112202182Y-92044860D01*
X112238492Y-91925162D01*
X112250752Y-91800680D01*
X112250752Y-89301320D01*
X148099248Y-89301320D01*
X148099248Y-91800680D01*
X148111508Y-91925162D01*
X148147818Y-92044860D01*
X148206783Y-92155174D01*
X148286135Y-92251865D01*
X148382826Y-92331217D01*
X148493140Y-92390182D01*
X148612838Y-92426492D01*
X148737320Y-92438752D01*
X151236680Y-92438752D01*
X151361162Y-92426492D01*
X151480860Y-92390182D01*
X151591174Y-92331217D01*
X151687865Y-92251865D01*
X151767217Y-92155174D01*
X151826182Y-92044860D01*
X151862492Y-91925162D01*
X151874752Y-91800680D01*
X151874752Y-89301320D01*
X151862492Y-89176838D01*
X151826182Y-89057140D01*
X151767217Y-88946826D01*
X151687865Y-88850135D01*
X151591174Y-88770783D01*
X151480860Y-88711818D01*
X151361162Y-88675508D01*
X151305237Y-88670000D01*
X154071928Y-88670000D01*
X154071928Y-91670000D01*
X154084188Y-91794482D01*
X154120498Y-91914180D01*
X154179463Y-92024494D01*
X154258815Y-92121185D01*
X154355506Y-92200537D01*
X154465820Y-92259502D01*
X154585518Y-92295812D01*
X154710000Y-92308072D01*
X157710000Y-92308072D01*
X157834482Y-92295812D01*
X157954180Y-92259502D01*
X158064494Y-92200537D01*
X158161185Y-92121185D01*
X158240537Y-92024494D01*
X158299502Y-91914180D01*
X158335812Y-91794482D01*
X158348072Y-91670000D01*
X158348072Y-88670000D01*
X158335812Y-88545518D01*
X158299502Y-88425820D01*
X158240537Y-88315506D01*
X158161185Y-88218815D01*
X158064494Y-88139463D01*
X157954180Y-88080498D01*
X157834482Y-88044188D01*
X157710000Y-88031928D01*
X154710000Y-88031928D01*
X154585518Y-88044188D01*
X154465820Y-88080498D01*
X154355506Y-88139463D01*
X154258815Y-88218815D01*
X154179463Y-88315506D01*
X154120498Y-88425820D01*
X154084188Y-88545518D01*
X154071928Y-88670000D01*
X151305237Y-88670000D01*
X151236680Y-88663248D01*
X148737320Y-88663248D01*
X148612838Y-88675508D01*
X148493140Y-88711818D01*
X148382826Y-88770783D01*
X148286135Y-88850135D01*
X148206783Y-88946826D01*
X148147818Y-89057140D01*
X148111508Y-89176838D01*
X148099248Y-89301320D01*
X112250752Y-89301320D01*
X112238492Y-89176838D01*
X112202182Y-89057140D01*
X112143217Y-88946826D01*
X112063865Y-88850135D01*
X111967174Y-88770783D01*
X111856860Y-88711818D01*
X111737162Y-88675508D01*
X111612680Y-88663248D01*
X109113320Y-88663248D01*
X108988838Y-88675508D01*
X108869140Y-88711818D01*
X108758826Y-88770783D01*
X108662135Y-88850135D01*
X108582783Y-88946826D01*
X108523818Y-89057140D01*
X108487508Y-89176838D01*
X108475248Y-89301320D01*
X102240000Y-89301320D01*
X102240000Y-85002000D01*
X103667928Y-85002000D01*
X103667928Y-86702000D01*
X103680188Y-86826482D01*
X103716498Y-86946180D01*
X103775463Y-87056494D01*
X103854815Y-87153185D01*
X103951506Y-87232537D01*
X104061820Y-87291502D01*
X104181518Y-87327812D01*
X104306000Y-87340072D01*
X106006000Y-87340072D01*
X106130482Y-87327812D01*
X106250180Y-87291502D01*
X106360494Y-87232537D01*
X106457185Y-87153185D01*
X106536537Y-87056494D01*
X106595502Y-86946180D01*
X106631812Y-86826482D01*
X106644072Y-86702000D01*
X106644072Y-85002000D01*
X106631812Y-84877518D01*
X106595502Y-84757820D01*
X106536537Y-84647506D01*
X106457185Y-84550815D01*
X106360494Y-84471463D01*
X106250180Y-84412498D01*
X106177620Y-84390487D01*
X106309475Y-84258632D01*
X106471990Y-84015411D01*
X106583932Y-83745158D01*
X106610872Y-83609721D01*
X154075000Y-83609721D01*
X154075000Y-84030279D01*
X154157047Y-84442756D01*
X154317988Y-84831302D01*
X154551637Y-85180983D01*
X154849017Y-85478363D01*
X155198698Y-85712012D01*
X155587244Y-85872953D01*
X155999721Y-85955000D01*
X156420279Y-85955000D01*
X156832756Y-85872953D01*
X157221302Y-85712012D01*
X157570983Y-85478363D01*
X157868363Y-85180983D01*
X158102012Y-84831302D01*
X158262953Y-84442756D01*
X158345000Y-84030279D01*
X158345000Y-83609721D01*
X158262953Y-83197244D01*
X158102012Y-82808698D01*
X157868363Y-82459017D01*
X157570983Y-82161637D01*
X157221302Y-81927988D01*
X156832756Y-81767047D01*
X156420279Y-81685000D01*
X155999721Y-81685000D01*
X155587244Y-81767047D01*
X155198698Y-81927988D01*
X154849017Y-82161637D01*
X154551637Y-82459017D01*
X154317988Y-82808698D01*
X154157047Y-83197244D01*
X154075000Y-83609721D01*
X106610872Y-83609721D01*
X106641000Y-83458260D01*
X106641000Y-83165740D01*
X106583932Y-82878842D01*
X106471990Y-82608589D01*
X106309475Y-82365368D01*
X106102632Y-82158525D01*
X105859411Y-81996010D01*
X105589158Y-81884068D01*
X105302260Y-81827000D01*
X105009740Y-81827000D01*
X104722842Y-81884068D01*
X104452589Y-81996010D01*
X104209368Y-82158525D01*
X104002525Y-82365368D01*
X103840010Y-82608589D01*
X103728068Y-82878842D01*
X103671000Y-83165740D01*
X103671000Y-83458260D01*
X103728068Y-83745158D01*
X103840010Y-84015411D01*
X104002525Y-84258632D01*
X104134380Y-84390487D01*
X104061820Y-84412498D01*
X103951506Y-84471463D01*
X103854815Y-84550815D01*
X103775463Y-84647506D01*
X103716498Y-84757820D01*
X103680188Y-84877518D01*
X103667928Y-85002000D01*
X102240000Y-85002000D01*
X102240000Y-80240000D01*
X154071928Y-80240000D01*
X154084188Y-80364482D01*
X154120498Y-80484180D01*
X154179463Y-80594494D01*
X154258815Y-80691185D01*
X154355506Y-80770537D01*
X154465820Y-80829502D01*
X154585518Y-80865812D01*
X154710000Y-80878072D01*
X155924250Y-80875000D01*
X156083000Y-80716250D01*
X156083000Y-78867000D01*
X156337000Y-78867000D01*
X156337000Y-80716250D01*
X156495750Y-80875000D01*
X157710000Y-80878072D01*
X157834482Y-80865812D01*
X157954180Y-80829502D01*
X158064494Y-80770537D01*
X158161185Y-80691185D01*
X158240537Y-80594494D01*
X158299502Y-80484180D01*
X158335812Y-80364482D01*
X158348072Y-80240000D01*
X158345000Y-79025750D01*
X158186250Y-78867000D01*
X156337000Y-78867000D01*
X156083000Y-78867000D01*
X154233750Y-78867000D01*
X154075000Y-79025750D01*
X154071928Y-80240000D01*
X102240000Y-80240000D01*
X102240000Y-76014344D01*
X104795000Y-76014344D01*
X104795000Y-76385656D01*
X104867439Y-76749834D01*
X105009534Y-77092882D01*
X105215825Y-77401618D01*
X105478382Y-77664175D01*
X105787118Y-77870466D01*
X106130166Y-78012561D01*
X106494344Y-78085000D01*
X106865656Y-78085000D01*
X107229834Y-78012561D01*
X107572882Y-77870466D01*
X107881618Y-77664175D01*
X108144175Y-77401618D01*
X108252164Y-77240000D01*
X154071928Y-77240000D01*
X154075000Y-78454250D01*
X154233750Y-78613000D01*
X156083000Y-78613000D01*
X156083000Y-76763750D01*
X156337000Y-76763750D01*
X156337000Y-78613000D01*
X158186250Y-78613000D01*
X158345000Y-78454250D01*
X158348072Y-77240000D01*
X158335812Y-77115518D01*
X158299502Y-76995820D01*
X158240537Y-76885506D01*
X158161185Y-76788815D01*
X158064494Y-76709463D01*
X157954180Y-76650498D01*
X157834482Y-76614188D01*
X157710000Y-76601928D01*
X156495750Y-76605000D01*
X156337000Y-76763750D01*
X156083000Y-76763750D01*
X155924250Y-76605000D01*
X154710000Y-76601928D01*
X154585518Y-76614188D01*
X154465820Y-76650498D01*
X154355506Y-76709463D01*
X154258815Y-76788815D01*
X154179463Y-76885506D01*
X154120498Y-76995820D01*
X154084188Y-77115518D01*
X154071928Y-77240000D01*
X108252164Y-77240000D01*
X108350466Y-77092882D01*
X108492561Y-76749834D01*
X108565000Y-76385656D01*
X108565000Y-76014344D01*
X108492561Y-75650166D01*
X108350466Y-75307118D01*
X108144175Y-74998382D01*
X107881618Y-74735825D01*
X107572882Y-74529534D01*
X107570821Y-74528680D01*
X108475248Y-74528680D01*
X108487508Y-74653162D01*
X108523818Y-74772860D01*
X108582783Y-74883174D01*
X108662135Y-74979865D01*
X108758826Y-75059217D01*
X108869140Y-75118182D01*
X108988838Y-75154492D01*
X109113320Y-75166752D01*
X110077250Y-75163680D01*
X110236000Y-75004930D01*
X110236000Y-73406000D01*
X110490000Y-73406000D01*
X110490000Y-75004930D01*
X110648750Y-75163680D01*
X111612680Y-75166752D01*
X111737162Y-75154492D01*
X111856860Y-75118182D01*
X111967174Y-75059217D01*
X112063865Y-74979865D01*
X112143217Y-74883174D01*
X112202182Y-74772860D01*
X112238492Y-74653162D01*
X112250752Y-74528680D01*
X148099248Y-74528680D01*
X148111508Y-74653162D01*
X148147818Y-74772860D01*
X148206783Y-74883174D01*
X148286135Y-74979865D01*
X148382826Y-75059217D01*
X148493140Y-75118182D01*
X148612838Y-75154492D01*
X148737320Y-75166752D01*
X149701250Y-75163680D01*
X149860000Y-75004930D01*
X149860000Y-73406000D01*
X150114000Y-73406000D01*
X150114000Y-75004930D01*
X150272750Y-75163680D01*
X151236680Y-75166752D01*
X151361162Y-75154492D01*
X151480860Y-75118182D01*
X151591174Y-75059217D01*
X151687865Y-74979865D01*
X151767217Y-74883174D01*
X151826182Y-74772860D01*
X151862492Y-74653162D01*
X151874752Y-74528680D01*
X151871680Y-73564750D01*
X151712930Y-73406000D01*
X150114000Y-73406000D01*
X149860000Y-73406000D01*
X148261070Y-73406000D01*
X148102320Y-73564750D01*
X148099248Y-74528680D01*
X112250752Y-74528680D01*
X112247680Y-73564750D01*
X112088930Y-73406000D01*
X110490000Y-73406000D01*
X110236000Y-73406000D01*
X108637070Y-73406000D01*
X108478320Y-73564750D01*
X108475248Y-74528680D01*
X107570821Y-74528680D01*
X107229834Y-74387439D01*
X106865656Y-74315000D01*
X106494344Y-74315000D01*
X106130166Y-74387439D01*
X105787118Y-74529534D01*
X105478382Y-74735825D01*
X105215825Y-74998382D01*
X105009534Y-75307118D01*
X104867439Y-75650166D01*
X104795000Y-76014344D01*
X102240000Y-76014344D01*
X102240000Y-71760000D01*
X108537256Y-71760000D01*
X108523818Y-71785140D01*
G37*
X108523818Y-71785140D02*
X108487508Y-71904838D01*
X108475248Y-72029320D01*
X108478320Y-72993250D01*
X108637070Y-73152000D01*
X110236000Y-73152000D01*
X110236000Y-73132000D01*
X110490000Y-73132000D01*
X110490000Y-73152000D01*
X112088930Y-73152000D01*
X112247680Y-72993250D01*
X112250752Y-72029320D01*
X112238492Y-71904838D01*
X112202182Y-71785140D01*
X112188744Y-71760000D01*
X148161256Y-71760000D01*
X148147818Y-71785140D01*
X148111508Y-71904838D01*
X148099248Y-72029320D01*
X148102320Y-72993250D01*
X148261070Y-73152000D01*
X149860000Y-73152000D01*
X149860000Y-73132000D01*
X150114000Y-73132000D01*
X150114000Y-73152000D01*
X151712930Y-73152000D01*
X151871680Y-72993250D01*
X151874752Y-72029320D01*
X151862492Y-71904838D01*
X151826182Y-71785140D01*
X151812744Y-71760000D01*
X160940000Y-71760000D01*
X160940001Y-120480000D01*
X102240000Y-120480000D01*
X102240000Y-116332000D01*
X109855000Y-116332000D01*
X109879776Y-116329560D01*
X109903601Y-116322333D01*
X109925557Y-116310597D01*
X109944803Y-116294803D01*
X109960597Y-116275557D01*
X109972333Y-116253601D01*
X109979560Y-116229776D01*
X109982000Y-116205000D01*
X109982000Y-111953711D01*
X110084226Y-112055937D01*
X110253744Y-112169205D01*
X110442102Y-112247226D01*
X110642061Y-112287000D01*
X110845939Y-112287000D01*
X111045898Y-112247226D01*
X111234256Y-112169205D01*
X111403774Y-112055937D01*
X111547937Y-111911774D01*
X111661205Y-111742256D01*
X111739226Y-111553898D01*
X111779000Y-111353939D01*
X111779000Y-111294671D01*
X111792001Y-111284001D01*
X111886974Y-111168276D01*
X111957546Y-111036247D01*
X112001003Y-110892986D01*
X112012000Y-110781333D01*
X112012000Y-110781324D01*
X112015676Y-110744001D01*
X112012000Y-110706678D01*
X112012000Y-109282621D01*
X112121180Y-109249502D01*
X112231494Y-109190537D01*
X112328185Y-109111185D01*
X112407537Y-109014494D01*
X112466502Y-108904180D01*
X112502812Y-108784482D01*
X112514087Y-108670000D01*
X113519928Y-108670000D01*
X113519928Y-108780000D01*
X113532188Y-108904482D01*
X113568498Y-109024180D01*
X113627463Y-109134494D01*
X113706815Y-109231185D01*
X113803506Y-109310537D01*
X113913820Y-109369502D01*
X114033518Y-109405812D01*
X114158000Y-109418072D01*
X115059127Y-109418072D01*
X114768199Y-109709000D01*
X114706061Y-109709000D01*
X114506102Y-109748774D01*
X114317744Y-109826795D01*
X114148226Y-109940063D01*
X114004063Y-110084226D01*
X113890795Y-110253744D01*
X113812774Y-110442102D01*
X113773000Y-110642061D01*
X113773000Y-110845939D01*
X113812774Y-111045898D01*
X113890795Y-111234256D01*
X114004063Y-111403774D01*
X114148226Y-111547937D01*
X114317744Y-111661205D01*
X114506102Y-111739226D01*
X114706061Y-111779000D01*
X114909939Y-111779000D01*
X115109898Y-111739226D01*
X115298256Y-111661205D01*
X115467774Y-111547937D01*
X115611937Y-111403774D01*
X115725205Y-111234256D01*
X115803226Y-111045898D01*
X115805000Y-111036979D01*
X115805000Y-111226939D01*
X115844774Y-111426898D01*
X115922795Y-111615256D01*
X116036063Y-111784774D01*
X116180226Y-111928937D01*
X116349744Y-112042205D01*
X116538102Y-112120226D01*
X116588001Y-112130151D01*
X116588000Y-117085821D01*
X116401368Y-117210525D01*
X116194525Y-117417368D01*
X116078000Y-117591760D01*
X115961475Y-117417368D01*
X115754632Y-117210525D01*
X115511411Y-117048010D01*
X115241158Y-116936068D01*
X114954260Y-116879000D01*
X114661740Y-116879000D01*
X114374842Y-116936068D01*
X114104589Y-117048010D01*
X113861368Y-117210525D01*
X113654525Y-117417368D01*
X113538000Y-117591760D01*
X113421475Y-117417368D01*
X113214632Y-117210525D01*
X112971411Y-117048010D01*
X112701158Y-116936068D01*
X112414260Y-116879000D01*
X112121740Y-116879000D01*
X111834842Y-116936068D01*
X111564589Y-117048010D01*
X111321368Y-117210525D01*
X111114525Y-117417368D01*
X110998000Y-117591760D01*
X110881475Y-117417368D01*
X110674632Y-117210525D01*
X110431411Y-117048010D01*
X110161158Y-116936068D01*
X109874260Y-116879000D01*
X109581740Y-116879000D01*
X109294842Y-116936068D01*
X109024589Y-117048010D01*
X108781368Y-117210525D01*
X108574525Y-117417368D01*
X108458000Y-117591760D01*
X108341475Y-117417368D01*
X108134632Y-117210525D01*
X107891411Y-117048010D01*
X107621158Y-116936068D01*
X107334260Y-116879000D01*
X107041740Y-116879000D01*
X106754842Y-116936068D01*
X106484589Y-117048010D01*
X106241368Y-117210525D01*
X106034525Y-117417368D01*
X105872010Y-117660589D01*
X105760068Y-117930842D01*
X105703000Y-118217740D01*
X105703000Y-118510260D01*
X105760068Y-118797158D01*
X105872010Y-119067411D01*
X106034525Y-119310632D01*
X106241368Y-119517475D01*
X106484589Y-119679990D01*
X106754842Y-119791932D01*
X107041740Y-119849000D01*
X107334260Y-119849000D01*
X107621158Y-119791932D01*
X107891411Y-119679990D01*
X108134632Y-119517475D01*
X108341475Y-119310632D01*
X108458000Y-119136240D01*
X108574525Y-119310632D01*
X108781368Y-119517475D01*
X109024589Y-119679990D01*
X109294842Y-119791932D01*
X109581740Y-119849000D01*
X109874260Y-119849000D01*
X110161158Y-119791932D01*
X110431411Y-119679990D01*
X110674632Y-119517475D01*
X110881475Y-119310632D01*
X110998000Y-119136240D01*
X111114525Y-119310632D01*
X111321368Y-119517475D01*
X111564589Y-119679990D01*
X111834842Y-119791932D01*
X112121740Y-119849000D01*
X112414260Y-119849000D01*
X112701158Y-119791932D01*
X112971411Y-119679990D01*
X113214632Y-119517475D01*
X113421475Y-119310632D01*
X113538000Y-119136240D01*
X113654525Y-119310632D01*
X113861368Y-119517475D01*
X114104589Y-119679990D01*
X114374842Y-119791932D01*
X114661740Y-119849000D01*
X114954260Y-119849000D01*
X115241158Y-119791932D01*
X115511411Y-119679990D01*
X115754632Y-119517475D01*
X115961475Y-119310632D01*
X116078000Y-119136240D01*
X116194525Y-119310632D01*
X116401368Y-119517475D01*
X116644589Y-119679990D01*
X116914842Y-119791932D01*
X117201740Y-119849000D01*
X117494260Y-119849000D01*
X117781158Y-119791932D01*
X118051411Y-119679990D01*
X118294632Y-119517475D01*
X118426487Y-119385620D01*
X118448498Y-119458180D01*
X118507463Y-119568494D01*
X118586815Y-119665185D01*
X118683506Y-119744537D01*
X118793820Y-119803502D01*
X118913518Y-119839812D01*
X119038000Y-119852072D01*
X120738000Y-119852072D01*
X120862482Y-119839812D01*
X120982180Y-119803502D01*
X121092494Y-119744537D01*
X121189185Y-119665185D01*
X121268537Y-119568494D01*
X121327502Y-119458180D01*
X121363812Y-119338482D01*
X121376072Y-119214000D01*
X121376072Y-117514000D01*
X122463928Y-117514000D01*
X122463928Y-119214000D01*
X122476188Y-119338482D01*
X122512498Y-119458180D01*
X122571463Y-119568494D01*
X122650815Y-119665185D01*
X122747506Y-119744537D01*
X122857820Y-119803502D01*
X122977518Y-119839812D01*
X123102000Y-119852072D01*
X124802000Y-119852072D01*
X124926482Y-119839812D01*
X125046180Y-119803502D01*
X125156494Y-119744537D01*
X125253185Y-119665185D01*
X125332537Y-119568494D01*
X125391502Y-119458180D01*
X125415966Y-119377534D01*
X125491731Y-119461588D01*
X125725080Y-119635641D01*
X125987901Y-119760825D01*
X126135110Y-119805476D01*
X126365000Y-119684155D01*
X126365000Y-118491000D01*
X126619000Y-118491000D01*
X126619000Y-119684155D01*
X126848890Y-119805476D01*
X126996099Y-119760825D01*
X127258920Y-119635641D01*
X127313406Y-119595000D01*
X135163928Y-119595000D01*
X135176188Y-119719482D01*
X135212498Y-119839180D01*
X135271463Y-119949494D01*
X135350815Y-120046185D01*
X135447506Y-120125537D01*
X135557820Y-120184502D01*
X135677518Y-120220812D01*
X135802000Y-120233072D01*
X136366250Y-120230000D01*
X136525000Y-120071250D01*
X136525000Y-118872000D01*
X135325750Y-118872000D01*
X135167000Y-119030750D01*
X135163928Y-119595000D01*
X127313406Y-119595000D01*
X127492269Y-119461588D01*
X127687178Y-119245355D01*
X127836157Y-118995252D01*
X127933481Y-118720891D01*
X127812814Y-118491000D01*
X126619000Y-118491000D01*
X126365000Y-118491000D01*
X126345000Y-118491000D01*
X126345000Y-118237000D01*
X126365000Y-118237000D01*
X126365000Y-117043845D01*
X126619000Y-117043845D01*
X126619000Y-118237000D01*
X127812814Y-118237000D01*
X127933481Y-118007109D01*
X127836157Y-117732748D01*
X127687178Y-117482645D01*
X127492269Y-117266412D01*
X127258920Y-117092359D01*
X126996099Y-116967175D01*
X126848890Y-116922524D01*
X126619000Y-117043845D01*
X126365000Y-117043845D01*
X126135110Y-116922524D01*
X125987901Y-116967175D01*
X125725080Y-117092359D01*
X125491731Y-117266412D01*
X125415966Y-117350466D01*
X125391502Y-117269820D01*
X125332537Y-117159506D01*
X125253185Y-117062815D01*
X125156494Y-116983463D01*
X125046180Y-116924498D01*
X124926482Y-116888188D01*
X124802000Y-116875928D01*
X123102000Y-116875928D01*
X122977518Y-116888188D01*
X122857820Y-116924498D01*
X122747506Y-116983463D01*
X122650815Y-117062815D01*
X122571463Y-117159506D01*
X122512498Y-117269820D01*
X122476188Y-117389518D01*
X122463928Y-117514000D01*
X121376072Y-117514000D01*
X121363812Y-117389518D01*
X121327502Y-117269820D01*
X121268537Y-117159506D01*
X121189185Y-117062815D01*
X121092494Y-116983463D01*
X120982180Y-116924498D01*
X120862482Y-116888188D01*
X120738000Y-116875928D01*
X120648000Y-116875928D01*
X120648000Y-111748356D01*
X120802061Y-111779000D01*
X121005939Y-111779000D01*
X121205898Y-111739226D01*
X121394256Y-111661205D01*
X121563774Y-111547937D01*
X121607711Y-111504000D01*
X122439644Y-111504000D01*
X122409000Y-111658061D01*
X122409000Y-111861939D01*
X122448774Y-112061898D01*
X122526795Y-112250256D01*
X122640063Y-112419774D01*
X122784226Y-112563937D01*
X122953744Y-112677205D01*
X123142102Y-112755226D01*
X123342061Y-112795000D01*
X123545939Y-112795000D01*
X123745898Y-112755226D01*
X123934256Y-112677205D01*
X124103774Y-112563937D01*
X124147711Y-112520000D01*
X130241199Y-112520000D01*
X131516205Y-113795008D01*
X131539999Y-113824001D01*
X131568992Y-113847795D01*
X131568996Y-113847799D01*
X131639685Y-113905811D01*
X131655724Y-113918974D01*
X131787753Y-113989546D01*
X131931014Y-114033003D01*
X132042667Y-114044000D01*
X132042676Y-114044000D01*
X132079999Y-114047676D01*
X132117322Y-114044000D01*
X138369199Y-114044000D01*
X138432000Y-114106802D01*
X138432000Y-114926821D01*
X138245368Y-115051525D01*
X138038525Y-115258368D01*
X137922000Y-115432760D01*
X137805475Y-115258368D01*
X137598632Y-115051525D01*
X137355411Y-114889010D01*
X137085158Y-114777068D01*
X136798260Y-114720000D01*
X136505740Y-114720000D01*
X136218842Y-114777068D01*
X135948589Y-114889010D01*
X135705368Y-115051525D01*
X135498525Y-115258368D01*
X135336010Y-115501589D01*
X135224068Y-115771842D01*
X135167000Y-116058740D01*
X135167000Y-116351260D01*
X135224068Y-116638158D01*
X135336010Y-116908411D01*
X135498525Y-117151632D01*
X135630380Y-117283487D01*
X135557820Y-117305498D01*
X135447506Y-117364463D01*
X135350815Y-117443815D01*
X135271463Y-117540506D01*
X135212498Y-117650820D01*
X135176188Y-117770518D01*
X135163928Y-117895000D01*
X135167000Y-118459250D01*
X135325750Y-118618000D01*
X136525000Y-118618000D01*
X136525000Y-118598000D01*
X136779000Y-118598000D01*
X136779000Y-118618000D01*
X136799000Y-118618000D01*
X136799000Y-118872000D01*
X136779000Y-118872000D01*
X136779000Y-120071250D01*
X136937750Y-120230000D01*
X137502000Y-120233072D01*
X137626482Y-120220812D01*
X137746180Y-120184502D01*
X137856494Y-120125537D01*
X137953185Y-120046185D01*
X138032537Y-119949494D01*
X138091502Y-119839180D01*
X138113513Y-119766620D01*
X138245368Y-119898475D01*
X138488589Y-120060990D01*
X138758842Y-120172932D01*
X139045740Y-120230000D01*
X139338260Y-120230000D01*
X139625158Y-120172932D01*
X139895411Y-120060990D01*
X140138632Y-119898475D01*
X140345475Y-119691632D01*
X140462000Y-119517240D01*
X140578525Y-119691632D01*
X140785368Y-119898475D01*
X141028589Y-120060990D01*
X141298842Y-120172932D01*
X141585740Y-120230000D01*
X141878260Y-120230000D01*
X142165158Y-120172932D01*
X142435411Y-120060990D01*
X142678632Y-119898475D01*
X142885475Y-119691632D01*
X143047990Y-119448411D01*
X143159932Y-119178158D01*
X143217000Y-118891260D01*
X143217000Y-118598740D01*
X143159932Y-118311842D01*
X143047990Y-118041589D01*
X142885475Y-117798368D01*
X142678632Y-117591525D01*
X142504240Y-117475000D01*
X142678632Y-117358475D01*
X142885475Y-117151632D01*
X143047990Y-116908411D01*
X143159932Y-116638158D01*
X143217000Y-116351260D01*
X143217000Y-116058740D01*
X143159932Y-115771842D01*
X143047990Y-115501589D01*
X142885475Y-115258368D01*
X142678632Y-115051525D01*
X142435411Y-114889010D01*
X142165158Y-114777068D01*
X141878260Y-114720000D01*
X141585740Y-114720000D01*
X141298842Y-114777068D01*
X141028589Y-114889010D01*
X140785368Y-115051525D01*
X140578525Y-115258368D01*
X140462000Y-115432760D01*
X140345475Y-115258368D01*
X140138632Y-115051525D01*
X139952000Y-114926822D01*
X139952000Y-113829322D01*
X139955676Y-113791999D01*
X139952000Y-113754676D01*
X139952000Y-113754667D01*
X139941003Y-113643014D01*
X139897546Y-113499753D01*
X139826974Y-113367724D01*
X139732001Y-113251999D01*
X139703003Y-113228202D01*
X139444000Y-112969199D01*
X139444000Y-108645801D01*
X139535000Y-108554801D01*
X139535000Y-108726335D01*
X139590147Y-109003574D01*
X139698320Y-109264727D01*
X139855363Y-109499759D01*
X140055241Y-109699637D01*
X140287759Y-109855000D01*
X140055241Y-110010363D01*
X139855363Y-110210241D01*
X139698320Y-110445273D01*
X139590147Y-110706426D01*
X139535000Y-110983665D01*
X139535000Y-111266335D01*
X139590147Y-111543574D01*
X139698320Y-111804727D01*
X139855363Y-112039759D01*
X140055241Y-112239637D01*
X140290273Y-112396680D01*
X140551426Y-112504853D01*
X140828665Y-112560000D01*
X141111335Y-112560000D01*
X141388574Y-112504853D01*
X141649727Y-112396680D01*
X141884759Y-112239637D01*
X142084637Y-112039759D01*
X142188043Y-111885000D01*
X142560199Y-111885000D01*
X148321928Y-117646730D01*
X148321928Y-119010000D01*
X148334188Y-119134482D01*
X148370498Y-119254180D01*
X148429463Y-119364494D01*
X148508815Y-119461185D01*
X148605506Y-119540537D01*
X148715820Y-119599502D01*
X148835518Y-119635812D01*
X148960000Y-119648072D01*
X150760000Y-119648072D01*
X150884482Y-119635812D01*
X151004180Y-119599502D01*
X151114494Y-119540537D01*
X151211185Y-119461185D01*
X151290537Y-119364494D01*
X151349502Y-119254180D01*
X151385812Y-119134482D01*
X151398072Y-119010000D01*
X151398072Y-117210000D01*
X151385812Y-117085518D01*
X151349502Y-116965820D01*
X151290537Y-116855506D01*
X151211185Y-116758815D01*
X151114494Y-116679463D01*
X151004180Y-116620498D01*
X150985873Y-116614944D01*
X151052312Y-116548505D01*
X151220299Y-116297095D01*
X151335347Y-116019344D01*
X154325000Y-116019344D01*
X154325000Y-116390656D01*
X154397439Y-116754834D01*
X154539534Y-117097882D01*
X154745825Y-117406618D01*
X155008382Y-117669175D01*
X155317118Y-117875466D01*
X155660166Y-118017561D01*
X156024344Y-118090000D01*
X156395656Y-118090000D01*
X156759834Y-118017561D01*
X157102882Y-117875466D01*
X157411618Y-117669175D01*
X157674175Y-117406618D01*
X157880466Y-117097882D01*
X158022561Y-116754834D01*
X158095000Y-116390656D01*
X158095000Y-116019344D01*
X158022561Y-115655166D01*
X157880466Y-115312118D01*
X157674175Y-115003382D01*
X157411618Y-114740825D01*
X157102882Y-114534534D01*
X156759834Y-114392439D01*
X156395656Y-114320000D01*
X156024344Y-114320000D01*
X155660166Y-114392439D01*
X155317118Y-114534534D01*
X155008382Y-114740825D01*
X154745825Y-115003382D01*
X154539534Y-115312118D01*
X154397439Y-115655166D01*
X154325000Y-116019344D01*
X151335347Y-116019344D01*
X151336011Y-116017743D01*
X151395000Y-115721184D01*
X151395000Y-115418816D01*
X151336011Y-115122257D01*
X151220299Y-114842905D01*
X151052312Y-114591495D01*
X150838505Y-114377688D01*
X150717198Y-114296633D01*
X150897116Y-114161649D01*
X151097962Y-113937573D01*
X151251234Y-113678620D01*
X151351041Y-113394741D01*
X151230992Y-113157000D01*
X149987000Y-113157000D01*
X149987000Y-113177000D01*
X149733000Y-113177000D01*
X149733000Y-113157000D01*
X148489008Y-113157000D01*
X148368959Y-113394741D01*
X148468766Y-113678620D01*
X148622038Y-113937573D01*
X148822884Y-114161649D01*
X149002802Y-114296633D01*
X148881495Y-114377688D01*
X148667688Y-114591495D01*
X148499701Y-114842905D01*
X148383989Y-115122257D01*
X148325000Y-115418816D01*
X148325000Y-115500198D01*
X145490061Y-112665259D01*
X148368959Y-112665259D01*
X148489008Y-112903000D01*
X149733000Y-112903000D01*
X149733000Y-111659622D01*
X149987000Y-111659622D01*
X149987000Y-112903000D01*
X151230992Y-112903000D01*
X151351041Y-112665259D01*
X151251234Y-112381380D01*
X151097962Y-112122427D01*
X150897116Y-111898351D01*
X150656414Y-111717764D01*
X150385107Y-111587606D01*
X150224740Y-111538964D01*
X149987000Y-111659622D01*
X149733000Y-111659622D01*
X149495260Y-111538964D01*
X149334893Y-111587606D01*
X149063586Y-111717764D01*
X148822884Y-111898351D01*
X148622038Y-112122427D01*
X148468766Y-112381380D01*
X148368959Y-112665259D01*
X145490061Y-112665259D01*
X143438804Y-110614003D01*
X143415001Y-110584999D01*
X143299276Y-110490026D01*
X143167247Y-110419454D01*
X143023986Y-110375997D01*
X142912333Y-110365000D01*
X142912322Y-110365000D01*
X142875000Y-110361324D01*
X142837678Y-110365000D01*
X142188043Y-110365000D01*
X142131062Y-110279721D01*
X154075000Y-110279721D01*
X154075000Y-110700279D01*
X154157047Y-111112756D01*
X154317988Y-111501302D01*
X154551637Y-111850983D01*
X154849017Y-112148363D01*
X155198698Y-112382012D01*
X155587244Y-112542953D01*
X155999721Y-112625000D01*
X156420279Y-112625000D01*
X156832756Y-112542953D01*
X157221302Y-112382012D01*
X157570983Y-112148363D01*
X157868363Y-111850983D01*
X158102012Y-111501302D01*
X158262953Y-111112756D01*
X158345000Y-110700279D01*
X158345000Y-110279721D01*
X158262953Y-109867244D01*
X158102012Y-109478698D01*
X157868363Y-109129017D01*
X157570983Y-108831637D01*
X157221302Y-108597988D01*
X156832756Y-108437047D01*
X156420279Y-108355000D01*
X155999721Y-108355000D01*
X155587244Y-108437047D01*
X155198698Y-108597988D01*
X154849017Y-108831637D01*
X154551637Y-109129017D01*
X154317988Y-109478698D01*
X154157047Y-109867244D01*
X154075000Y-110279721D01*
X142131062Y-110279721D01*
X142084637Y-110210241D01*
X141884759Y-110010363D01*
X141652241Y-109855000D01*
X141884759Y-109699637D01*
X142084637Y-109499759D01*
X142241680Y-109264727D01*
X142349853Y-109003574D01*
X142405000Y-108726335D01*
X142405000Y-108443665D01*
X142368688Y-108261114D01*
X142554802Y-108075000D01*
X148321928Y-108075000D01*
X148321928Y-108215000D01*
X148334188Y-108339482D01*
X148370498Y-108459180D01*
X148429463Y-108569494D01*
X148508815Y-108666185D01*
X148605506Y-108745537D01*
X148715820Y-108804502D01*
X148835518Y-108840812D01*
X148960000Y-108853072D01*
X150760000Y-108853072D01*
X150884482Y-108840812D01*
X151004180Y-108804502D01*
X151114494Y-108745537D01*
X151211185Y-108666185D01*
X151290537Y-108569494D01*
X151349502Y-108459180D01*
X151385812Y-108339482D01*
X151398072Y-108215000D01*
X151398072Y-106415000D01*
X151385812Y-106290518D01*
X151349502Y-106170820D01*
X151290537Y-106060506D01*
X151211185Y-105963815D01*
X151114494Y-105884463D01*
X151004180Y-105825498D01*
X150985873Y-105819944D01*
X151052312Y-105753505D01*
X151220299Y-105502095D01*
X151336011Y-105222743D01*
X151340590Y-105199721D01*
X154075000Y-105199721D01*
X154075000Y-105620279D01*
X154157047Y-106032756D01*
X154317988Y-106421302D01*
X154551637Y-106770983D01*
X154849017Y-107068363D01*
X155198698Y-107302012D01*
X155587244Y-107462953D01*
X155999721Y-107545000D01*
X156420279Y-107545000D01*
X156832756Y-107462953D01*
X157221302Y-107302012D01*
X157570983Y-107068363D01*
X157868363Y-106770983D01*
X158102012Y-106421302D01*
X158262953Y-106032756D01*
X158345000Y-105620279D01*
X158345000Y-105199721D01*
X158262953Y-104787244D01*
X158102012Y-104398698D01*
X157868363Y-104049017D01*
X157570983Y-103751637D01*
X157221302Y-103517988D01*
X156832756Y-103357047D01*
X156420279Y-103275000D01*
X155999721Y-103275000D01*
X155587244Y-103357047D01*
X155198698Y-103517988D01*
X154849017Y-103751637D01*
X154551637Y-104049017D01*
X154317988Y-104398698D01*
X154157047Y-104787244D01*
X154075000Y-105199721D01*
X151340590Y-105199721D01*
X151395000Y-104926184D01*
X151395000Y-104623816D01*
X151336011Y-104327257D01*
X151220299Y-104047905D01*
X151052312Y-103796495D01*
X150838505Y-103582688D01*
X150717198Y-103501633D01*
X150897116Y-103366649D01*
X151097962Y-103142573D01*
X151251234Y-102883620D01*
X151351041Y-102599741D01*
X151230992Y-102362000D01*
X149987000Y-102362000D01*
X149987000Y-102382000D01*
X149733000Y-102382000D01*
X149733000Y-102362000D01*
X148489008Y-102362000D01*
X148368959Y-102599741D01*
X148468766Y-102883620D01*
X148622038Y-103142573D01*
X148822884Y-103366649D01*
X149002802Y-103501633D01*
X148881495Y-103582688D01*
X148667688Y-103796495D01*
X148499701Y-104047905D01*
X148383989Y-104327257D01*
X148325000Y-104623816D01*
X148325000Y-104926184D01*
X148383989Y-105222743D01*
X148499701Y-105502095D01*
X148667688Y-105753505D01*
X148734127Y-105819944D01*
X148715820Y-105825498D01*
X148605506Y-105884463D01*
X148508815Y-105963815D01*
X148429463Y-106060506D01*
X148370498Y-106170820D01*
X148334188Y-106290518D01*
X148321928Y-106415000D01*
X148321928Y-106555000D01*
X142311983Y-106555000D01*
X142349853Y-106463574D01*
X142405000Y-106186335D01*
X142405000Y-105903665D01*
X142349853Y-105626426D01*
X142241680Y-105365273D01*
X142084637Y-105130241D01*
X141884759Y-104930363D01*
X141652241Y-104775000D01*
X141884759Y-104619637D01*
X142084637Y-104419759D01*
X142241680Y-104184727D01*
X142349853Y-103923574D01*
X142405000Y-103646335D01*
X142405000Y-103363665D01*
X142349853Y-103086426D01*
X142241680Y-102825273D01*
X142084637Y-102590241D01*
X141884759Y-102390363D01*
X141649727Y-102233320D01*
X141388574Y-102125147D01*
X141111335Y-102070000D01*
X140828665Y-102070000D01*
X140551426Y-102125147D01*
X140290273Y-102233320D01*
X140055241Y-102390363D01*
X139855363Y-102590241D01*
X139698320Y-102825273D01*
X139590147Y-103086426D01*
X139535000Y-103363665D01*
X139535000Y-103646335D01*
X139590147Y-103923574D01*
X139698320Y-104184727D01*
X139855363Y-104419759D01*
X140055241Y-104619637D01*
X140287759Y-104775000D01*
X140055241Y-104930363D01*
X139855363Y-105130241D01*
X139698320Y-105365273D01*
X139590147Y-105626426D01*
X139535000Y-105903665D01*
X139535000Y-106186335D01*
X139571312Y-106368886D01*
X138173003Y-107767196D01*
X138143999Y-107790999D01*
X138095579Y-107850000D01*
X138049026Y-107906724D01*
X137986613Y-108023490D01*
X137978454Y-108038754D01*
X137934997Y-108182015D01*
X137924000Y-108293668D01*
X137924000Y-108293678D01*
X137920324Y-108331000D01*
X137924000Y-108368323D01*
X137924001Y-112524000D01*
X133477002Y-112524000D01*
X133477002Y-112395625D01*
X133699040Y-112516909D01*
X133963881Y-112422070D01*
X134205131Y-112277385D01*
X134413519Y-112088414D01*
X134581037Y-111862420D01*
X134701246Y-111608087D01*
X134741904Y-111474039D01*
X134619915Y-111252000D01*
X133477000Y-111252000D01*
X133477000Y-111272000D01*
X133223000Y-111272000D01*
X133223000Y-111252000D01*
X132080085Y-111252000D01*
X131958096Y-111474039D01*
X131998754Y-111608087D01*
X132118963Y-111862420D01*
X132286481Y-112088414D01*
X132494869Y-112277385D01*
X132736119Y-112422070D01*
X133000960Y-112516909D01*
X133222998Y-112395625D01*
X133222998Y-112524000D01*
X132394803Y-112524000D01*
X131119803Y-111249002D01*
X131096001Y-111219999D01*
X130980276Y-111125026D01*
X130848247Y-111054454D01*
X130704986Y-111010997D01*
X130593333Y-111000000D01*
X130593322Y-111000000D01*
X130556000Y-110996324D01*
X130518678Y-111000000D01*
X129738803Y-111000000D01*
X131627799Y-109111005D01*
X131627803Y-109111000D01*
X131931171Y-108807632D01*
X131970147Y-109003574D01*
X132078320Y-109264727D01*
X132235363Y-109499759D01*
X132435241Y-109699637D01*
X132670273Y-109856680D01*
X132680865Y-109861067D01*
X132494869Y-109972615D01*
X132286481Y-110161586D01*
X132118963Y-110387580D01*
X131998754Y-110641913D01*
X131958096Y-110775961D01*
X132080085Y-110998000D01*
X133223000Y-110998000D01*
X133223000Y-110978000D01*
X133477000Y-110978000D01*
X133477000Y-110998000D01*
X134619915Y-110998000D01*
X134741904Y-110775961D01*
X134701246Y-110641913D01*
X134581037Y-110387580D01*
X134413519Y-110161586D01*
X134205131Y-109972615D01*
X134019135Y-109861067D01*
X134029727Y-109856680D01*
X134264759Y-109699637D01*
X134464637Y-109499759D01*
X134621680Y-109264727D01*
X134729853Y-109003574D01*
X134785000Y-108726335D01*
X134785000Y-108443665D01*
X134748688Y-108261114D01*
X135639004Y-107370798D01*
X135668001Y-107347001D01*
X135762974Y-107231276D01*
X135833546Y-107099247D01*
X135877003Y-106955986D01*
X135888000Y-106844333D01*
X135888000Y-106844325D01*
X135891676Y-106807000D01*
X135888000Y-106769675D01*
X135888000Y-101870259D01*
X148368959Y-101870259D01*
X148489008Y-102108000D01*
X149733000Y-102108000D01*
X149733000Y-100864622D01*
X149987000Y-100864622D01*
X149987000Y-102108000D01*
X151230992Y-102108000D01*
X151351041Y-101870259D01*
X151251234Y-101586380D01*
X151097962Y-101327427D01*
X150897116Y-101103351D01*
X150656414Y-100922764D01*
X150385107Y-100792606D01*
X150224740Y-100743964D01*
X149987000Y-100864622D01*
X149733000Y-100864622D01*
X149495260Y-100743964D01*
X149334893Y-100792606D01*
X149063586Y-100922764D01*
X148822884Y-101103351D01*
X148622038Y-101327427D01*
X148468766Y-101586380D01*
X148368959Y-101870259D01*
X135888000Y-101870259D01*
X135888000Y-100250413D01*
X137624192Y-100250413D01*
X137719956Y-100514814D01*
X138009571Y-100655704D01*
X138321108Y-100737384D01*
X138642595Y-100756718D01*
X138961675Y-100712961D01*
X139266088Y-100607795D01*
X139440044Y-100514814D01*
X139535808Y-100250413D01*
X139405116Y-100119721D01*
X154075000Y-100119721D01*
X154075000Y-100540279D01*
X154157047Y-100952756D01*
X154317988Y-101341302D01*
X154551637Y-101690983D01*
X154849017Y-101988363D01*
X155198698Y-102222012D01*
X155587244Y-102382953D01*
X155999721Y-102465000D01*
X156420279Y-102465000D01*
X156832756Y-102382953D01*
X157221302Y-102222012D01*
X157570983Y-101988363D01*
X157868363Y-101690983D01*
X158102012Y-101341302D01*
X158262953Y-100952756D01*
X158345000Y-100540279D01*
X158345000Y-100119721D01*
X158262953Y-99707244D01*
X158102012Y-99318698D01*
X157868363Y-98969017D01*
X157570983Y-98671637D01*
X157221302Y-98437988D01*
X156832756Y-98277047D01*
X156420279Y-98195000D01*
X155999721Y-98195000D01*
X155587244Y-98277047D01*
X155198698Y-98437988D01*
X154849017Y-98671637D01*
X154551637Y-98969017D01*
X154317988Y-99318698D01*
X154157047Y-99707244D01*
X154075000Y-100119721D01*
X139405116Y-100119721D01*
X138580000Y-99294605D01*
X137624192Y-100250413D01*
X135888000Y-100250413D01*
X135888000Y-99374801D01*
X136085206Y-99177595D01*
X136938282Y-99177595D01*
X136982039Y-99496675D01*
X137087205Y-99801088D01*
X137180186Y-99975044D01*
X137444587Y-100070808D01*
X138400395Y-99115000D01*
X138759605Y-99115000D01*
X139715413Y-100070808D01*
X139979814Y-99975044D01*
X140120704Y-99685429D01*
X140202384Y-99373892D01*
X140221718Y-99052405D01*
X140177961Y-98733325D01*
X140072795Y-98428912D01*
X139979814Y-98254956D01*
X139715413Y-98159192D01*
X138759605Y-99115000D01*
X138400395Y-99115000D01*
X137444587Y-98159192D01*
X137180186Y-98254956D01*
X137039296Y-98544571D01*
X136957616Y-98856108D01*
X136938282Y-99177595D01*
X136085206Y-99177595D01*
X137283215Y-97979587D01*
X137624192Y-97979587D01*
X138580000Y-98935395D01*
X139535808Y-97979587D01*
X139440044Y-97715186D01*
X139150429Y-97574296D01*
X138838892Y-97492616D01*
X138517405Y-97473282D01*
X138198325Y-97517039D01*
X137893912Y-97622205D01*
X137719956Y-97715186D01*
X137624192Y-97979587D01*
X137283215Y-97979587D01*
X137982803Y-97280000D01*
X142606928Y-97280000D01*
X142606928Y-97420000D01*
X142619188Y-97544482D01*
X142655498Y-97664180D01*
X142714463Y-97774494D01*
X142793815Y-97871185D01*
X142890506Y-97950537D01*
X143000820Y-98009502D01*
X143120518Y-98045812D01*
X143245000Y-98058072D01*
X145045000Y-98058072D01*
X145169482Y-98045812D01*
X145289180Y-98009502D01*
X145399494Y-97950537D01*
X145496185Y-97871185D01*
X145575537Y-97774494D01*
X145634502Y-97664180D01*
X145640056Y-97645873D01*
X145706495Y-97712312D01*
X145957905Y-97880299D01*
X146237257Y-97996011D01*
X146533816Y-98055000D01*
X146836184Y-98055000D01*
X147132743Y-97996011D01*
X147412095Y-97880299D01*
X147663505Y-97712312D01*
X147877312Y-97498505D01*
X147958367Y-97377198D01*
X148093351Y-97557116D01*
X148317427Y-97757962D01*
X148576380Y-97911234D01*
X148860259Y-98011041D01*
X149098000Y-97890992D01*
X149098000Y-96647000D01*
X149352000Y-96647000D01*
X149352000Y-97890992D01*
X149589741Y-98011041D01*
X149873620Y-97911234D01*
X150132573Y-97757962D01*
X150356649Y-97557116D01*
X150537236Y-97316414D01*
X150667394Y-97045107D01*
X150716036Y-96884740D01*
X150595378Y-96647000D01*
X149352000Y-96647000D01*
X149098000Y-96647000D01*
X149078000Y-96647000D01*
X149078000Y-96393000D01*
X149098000Y-96393000D01*
X149098000Y-95149008D01*
X149352000Y-95149008D01*
X149352000Y-96393000D01*
X150595378Y-96393000D01*
X150716036Y-96155260D01*
X150667394Y-95994893D01*
X150537236Y-95723586D01*
X150356649Y-95482884D01*
X150132573Y-95282038D01*
X149873620Y-95128766D01*
X149620352Y-95039721D01*
X154075000Y-95039721D01*
X154075000Y-95460279D01*
X154157047Y-95872756D01*
X154317988Y-96261302D01*
X154551637Y-96610983D01*
X154849017Y-96908363D01*
X155198698Y-97142012D01*
X155587244Y-97302953D01*
X155999721Y-97385000D01*
X156420279Y-97385000D01*
X156832756Y-97302953D01*
X157221302Y-97142012D01*
X157570983Y-96908363D01*
X157868363Y-96610983D01*
X158102012Y-96261302D01*
X158262953Y-95872756D01*
X158345000Y-95460279D01*
X158345000Y-95039721D01*
X158262953Y-94627244D01*
X158102012Y-94238698D01*
X157868363Y-93889017D01*
X157570983Y-93591637D01*
X157221302Y-93357988D01*
X156832756Y-93197047D01*
X156420279Y-93115000D01*
X155999721Y-93115000D01*
X155587244Y-93197047D01*
X155198698Y-93357988D01*
X154849017Y-93591637D01*
X154551637Y-93889017D01*
X154317988Y-94238698D01*
X154157047Y-94627244D01*
X154075000Y-95039721D01*
X149620352Y-95039721D01*
X149589741Y-95028959D01*
X149352000Y-95149008D01*
X149098000Y-95149008D01*
X148860259Y-95028959D01*
X148576380Y-95128766D01*
X148317427Y-95282038D01*
X148093351Y-95482884D01*
X147958367Y-95662802D01*
X147877312Y-95541495D01*
X147663505Y-95327688D01*
X147412095Y-95159701D01*
X147132743Y-95043989D01*
X146836184Y-94985000D01*
X146533816Y-94985000D01*
X146237257Y-95043989D01*
X145957905Y-95159701D01*
X145706495Y-95327688D01*
X145640056Y-95394127D01*
X145634502Y-95375820D01*
X145575537Y-95265506D01*
X145496185Y-95168815D01*
X145399494Y-95089463D01*
X145289180Y-95030498D01*
X145169482Y-94994188D01*
X145045000Y-94981928D01*
X143245000Y-94981928D01*
X143120518Y-94994188D01*
X143000820Y-95030498D01*
X142890506Y-95089463D01*
X142793815Y-95168815D01*
X142714463Y-95265506D01*
X142655498Y-95375820D01*
X142619188Y-95495518D01*
X142606928Y-95620000D01*
X142606928Y-95760000D01*
X139747239Y-95760000D01*
X139849987Y-95657252D01*
X140028918Y-95389463D01*
X140152168Y-95091912D01*
X140215000Y-94776033D01*
X140215000Y-94453967D01*
X140152168Y-94138088D01*
X140028918Y-93840537D01*
X139849987Y-93572748D01*
X139622252Y-93345013D01*
X139354463Y-93166082D01*
X139056912Y-93042832D01*
X138741033Y-92980000D01*
X138418967Y-92980000D01*
X138103088Y-93042832D01*
X137805537Y-93166082D01*
X137537748Y-93345013D01*
X137310013Y-93572748D01*
X137131082Y-93840537D01*
X137007832Y-94138088D01*
X136945000Y-94453967D01*
X136945000Y-94776033D01*
X137007832Y-95091912D01*
X137131082Y-95389463D01*
X137310013Y-95657252D01*
X137445928Y-95793167D01*
X137375753Y-95814454D01*
X137243724Y-95885026D01*
X137243722Y-95885027D01*
X137243723Y-95885027D01*
X137156996Y-95956201D01*
X137156992Y-95956205D01*
X137127999Y-95979999D01*
X137104205Y-96008992D01*
X134616998Y-98496201D01*
X134588000Y-98519999D01*
X134564202Y-98548997D01*
X134564201Y-98548998D01*
X134493026Y-98635724D01*
X134422454Y-98767754D01*
X134378998Y-98911015D01*
X134364324Y-99060000D01*
X134368001Y-99097332D01*
X134368001Y-102107557D01*
X134274482Y-102079188D01*
X134150000Y-102066928D01*
X132964126Y-102066928D01*
X132847247Y-102004454D01*
X132703986Y-101960997D01*
X132592333Y-101950000D01*
X132592322Y-101950000D01*
X132555000Y-101946324D01*
X132517678Y-101950000D01*
X130827087Y-101950000D01*
X130815812Y-101835518D01*
X130779502Y-101715820D01*
X130720537Y-101605506D01*
X130641185Y-101508815D01*
X130544494Y-101429463D01*
X130434180Y-101370498D01*
X130314482Y-101334188D01*
X130190000Y-101321928D01*
X128890000Y-101321928D01*
X128765518Y-101334188D01*
X128645820Y-101370498D01*
X128535506Y-101429463D01*
X128438815Y-101508815D01*
X128359463Y-101605506D01*
X128300498Y-101715820D01*
X128264188Y-101835518D01*
X128251928Y-101960000D01*
X128251928Y-103460000D01*
X128264188Y-103584482D01*
X128300498Y-103704180D01*
X128359463Y-103814494D01*
X128438815Y-103911185D01*
X128535506Y-103990537D01*
X128645820Y-104049502D01*
X128680427Y-104060000D01*
X128645820Y-104070498D01*
X128535506Y-104129463D01*
X128438815Y-104208815D01*
X128359463Y-104305506D01*
X128300498Y-104415820D01*
X128267379Y-104525000D01*
X127959465Y-104525000D01*
X127915999Y-104520719D01*
X127872533Y-104525000D01*
X127872523Y-104525000D01*
X127742510Y-104537805D01*
X127575687Y-104588411D01*
X127421941Y-104670589D01*
X127421939Y-104670590D01*
X127421940Y-104670590D01*
X127320953Y-104753468D01*
X127320951Y-104753470D01*
X127287183Y-104781183D01*
X127259470Y-104814951D01*
X126764072Y-105310349D01*
X126764072Y-104500000D01*
X126751812Y-104375518D01*
X126715502Y-104255820D01*
X126656537Y-104145506D01*
X126577185Y-104048815D01*
X126480494Y-103969463D01*
X126370180Y-103910498D01*
X126250482Y-103874188D01*
X126126000Y-103861928D01*
X124826000Y-103861928D01*
X124701518Y-103874188D01*
X124649707Y-103889905D01*
X123590000Y-102830199D01*
X123590000Y-102768061D01*
X123550226Y-102568102D01*
X123472205Y-102379744D01*
X123358937Y-102210226D01*
X123214774Y-102066063D01*
X123045256Y-101952795D01*
X122856898Y-101874774D01*
X122656939Y-101835000D01*
X122453061Y-101835000D01*
X122253102Y-101874774D01*
X122064744Y-101952795D01*
X121895226Y-102066063D01*
X121751063Y-102210226D01*
X121637795Y-102379744D01*
X121559774Y-102568102D01*
X121520000Y-102768061D01*
X121520000Y-102971939D01*
X121559774Y-103171898D01*
X121637795Y-103360256D01*
X121751063Y-103529774D01*
X121895226Y-103673937D01*
X122064744Y-103787205D01*
X122253102Y-103865226D01*
X122453061Y-103905000D01*
X122515199Y-103905000D01*
X122552127Y-103941928D01*
X121270000Y-103941928D01*
X121145518Y-103954188D01*
X121025820Y-103990498D01*
X120915506Y-104049463D01*
X120859900Y-104095098D01*
X119632000Y-102867199D01*
X119632000Y-102811711D01*
X119675937Y-102767774D01*
X119789205Y-102598256D01*
X119867226Y-102409898D01*
X119907000Y-102209939D01*
X119907000Y-102006061D01*
X119867226Y-101806102D01*
X119789205Y-101617744D01*
X119675937Y-101448226D01*
X119531774Y-101304063D01*
X119362256Y-101190795D01*
X119173898Y-101112774D01*
X118973939Y-101073000D01*
X118770061Y-101073000D01*
X118570102Y-101112774D01*
X118381744Y-101190795D01*
X118212226Y-101304063D01*
X118068063Y-101448226D01*
X117954795Y-101617744D01*
X117876774Y-101806102D01*
X117837000Y-102006061D01*
X117837000Y-102209939D01*
X117876774Y-102409898D01*
X117954795Y-102598256D01*
X118068063Y-102767774D01*
X118112000Y-102811711D01*
X118112000Y-103144677D01*
X118108324Y-103182000D01*
X118112000Y-103219322D01*
X118112000Y-103219332D01*
X118122997Y-103330985D01*
X118148392Y-103414701D01*
X118166454Y-103474246D01*
X118237026Y-103606276D01*
X118269902Y-103646335D01*
X118331999Y-103722001D01*
X118361003Y-103745804D01*
X118477127Y-103861928D01*
X117714000Y-103861928D01*
X117589518Y-103874188D01*
X117469820Y-103910498D01*
X117359506Y-103969463D01*
X117262815Y-104048815D01*
X117183463Y-104145506D01*
X117124498Y-104255820D01*
X117088188Y-104375518D01*
X117081345Y-104445000D01*
X116080621Y-104445000D01*
X116047502Y-104335820D01*
X115988537Y-104225506D01*
X115909185Y-104128815D01*
X115812494Y-104049463D01*
X115702180Y-103990498D01*
X115693000Y-103987713D01*
X115693000Y-102728578D01*
X118171165Y-100250413D01*
X131124192Y-100250413D01*
X131219956Y-100514814D01*
X131509571Y-100655704D01*
X131821108Y-100737384D01*
X132142595Y-100756718D01*
X132461675Y-100712961D01*
X132766088Y-100607795D01*
X132940044Y-100514814D01*
X133035808Y-100250413D01*
X132080000Y-99294605D01*
X131124192Y-100250413D01*
X118171165Y-100250413D01*
X118451049Y-99970530D01*
X118484817Y-99942817D01*
X118595411Y-99808059D01*
X118677589Y-99654313D01*
X118728195Y-99487490D01*
X118741000Y-99357477D01*
X118741000Y-99357469D01*
X118745281Y-99314000D01*
X118741000Y-99270531D01*
X118741000Y-99177595D01*
X130438282Y-99177595D01*
X130482039Y-99496675D01*
X130587205Y-99801088D01*
X130680186Y-99975044D01*
X130944587Y-100070808D01*
X131900395Y-99115000D01*
X132259605Y-99115000D01*
X133215413Y-100070808D01*
X133479814Y-99975044D01*
X133620704Y-99685429D01*
X133702384Y-99373892D01*
X133721718Y-99052405D01*
X133677961Y-98733325D01*
X133572795Y-98428912D01*
X133479814Y-98254956D01*
X133215413Y-98159192D01*
X132259605Y-99115000D01*
X131900395Y-99115000D01*
X130944587Y-98159192D01*
X130680186Y-98254956D01*
X130539296Y-98544571D01*
X130457616Y-98856108D01*
X130438282Y-99177595D01*
X118741000Y-99177595D01*
X118741000Y-97979587D01*
X131124192Y-97979587D01*
X132080000Y-98935395D01*
X133035808Y-97979587D01*
X132940044Y-97715186D01*
X132650429Y-97574296D01*
X132338892Y-97492616D01*
X132017405Y-97473282D01*
X131698325Y-97517039D01*
X131393912Y-97622205D01*
X131219956Y-97715186D01*
X131124192Y-97979587D01*
X118741000Y-97979587D01*
X118741000Y-96480625D01*
X118830482Y-96471812D01*
X118950180Y-96435502D01*
X119060494Y-96376537D01*
X119157185Y-96297185D01*
X119236537Y-96200494D01*
X119295502Y-96090180D01*
X119331812Y-95970482D01*
X119344072Y-95846000D01*
X119344072Y-94453967D01*
X130445000Y-94453967D01*
X130445000Y-94776033D01*
X130507832Y-95091912D01*
X130631082Y-95389463D01*
X130810013Y-95657252D01*
X131037748Y-95884987D01*
X131305537Y-96063918D01*
X131603088Y-96187168D01*
X131918967Y-96250000D01*
X132241033Y-96250000D01*
X132556912Y-96187168D01*
X132854463Y-96063918D01*
X133122252Y-95884987D01*
X133349987Y-95657252D01*
X133528918Y-95389463D01*
X133652168Y-95091912D01*
X133715000Y-94776033D01*
X133715000Y-94453967D01*
X133652168Y-94138088D01*
X133528918Y-93840537D01*
X133349987Y-93572748D01*
X133122252Y-93345013D01*
X132854463Y-93166082D01*
X132556912Y-93042832D01*
X132241033Y-92980000D01*
X131918967Y-92980000D01*
X131603088Y-93042832D01*
X131305537Y-93166082D01*
X131037748Y-93345013D01*
X130810013Y-93572748D01*
X130631082Y-93840537D01*
X130507832Y-94138088D01*
X130445000Y-94453967D01*
X119344072Y-94453967D01*
X119344072Y-94146000D01*
X119331812Y-94021518D01*
X119295502Y-93901820D01*
X119236537Y-93791506D01*
X119157185Y-93694815D01*
X119060494Y-93615463D01*
X118950180Y-93556498D01*
X118830482Y-93520188D01*
X118706000Y-93507928D01*
X117006000Y-93507928D01*
X116881518Y-93520188D01*
X116761820Y-93556498D01*
X116651506Y-93615463D01*
X116554815Y-93694815D01*
X116475463Y-93791506D01*
X116416498Y-93901820D01*
X116394487Y-93974380D01*
X116262632Y-93842525D01*
X116019411Y-93680010D01*
X115749158Y-93568068D01*
X115462260Y-93511000D01*
X115169740Y-93511000D01*
X114882842Y-93568068D01*
X114612589Y-93680010D01*
X114369368Y-93842525D01*
X114162525Y-94049368D01*
X114046000Y-94223760D01*
X113929475Y-94049368D01*
X113722632Y-93842525D01*
X113479411Y-93680010D01*
X113209158Y-93568068D01*
X112922260Y-93511000D01*
X112629740Y-93511000D01*
X112342842Y-93568068D01*
X112072589Y-93680010D01*
X111829368Y-93842525D01*
X111622525Y-94049368D01*
X111500805Y-94231534D01*
X111431178Y-94114645D01*
X111236269Y-93898412D01*
X111002920Y-93724359D01*
X110740099Y-93599175D01*
X110592890Y-93554524D01*
X110363000Y-93675845D01*
X110363000Y-94869000D01*
X110383000Y-94869000D01*
X110383000Y-95123000D01*
X110363000Y-95123000D01*
X110363000Y-96316155D01*
X110592890Y-96437476D01*
X110740099Y-96392825D01*
X111002920Y-96267641D01*
X111236269Y-96093588D01*
X111431178Y-95877355D01*
X111500805Y-95760466D01*
X111622525Y-95942632D01*
X111829368Y-96149475D01*
X112072589Y-96311990D01*
X112342842Y-96423932D01*
X112629740Y-96481000D01*
X112922260Y-96481000D01*
X113209158Y-96423932D01*
X113479411Y-96311990D01*
X113722632Y-96149475D01*
X113929475Y-95942632D01*
X114046000Y-95768240D01*
X114162525Y-95942632D01*
X114369368Y-96149475D01*
X114612589Y-96311990D01*
X114882842Y-96423932D01*
X115169740Y-96481000D01*
X115462260Y-96481000D01*
X115749158Y-96423932D01*
X116019411Y-96311990D01*
X116262632Y-96149475D01*
X116394487Y-96017620D01*
X116416498Y-96090180D01*
X116475463Y-96200494D01*
X116554815Y-96297185D01*
X116651506Y-96376537D01*
X116761820Y-96435502D01*
X116881518Y-96471812D01*
X116971000Y-96480625D01*
X116971001Y-98947420D01*
X114212956Y-101705466D01*
X114179183Y-101733183D01*
X114068589Y-101867942D01*
X113986411Y-102021688D01*
X113960737Y-102106324D01*
X113941421Y-102169999D01*
X113935805Y-102188511D01*
X113923000Y-102318524D01*
X113923000Y-102318531D01*
X113918719Y-102362000D01*
X113923000Y-102405469D01*
X113923001Y-103987713D01*
X113913820Y-103990498D01*
X113803506Y-104049463D01*
X113706815Y-104128815D01*
X113627463Y-104225506D01*
X113568498Y-104335820D01*
X113532188Y-104455518D01*
X113519928Y-104580000D01*
X113519928Y-106080000D01*
X113532188Y-106204482D01*
X113568498Y-106324180D01*
X113627463Y-106434494D01*
X113706815Y-106531185D01*
X113803506Y-106610537D01*
X113913820Y-106669502D01*
X113948427Y-106680000D01*
X113913820Y-106690498D01*
X113803506Y-106749463D01*
X113706815Y-106828815D01*
X113627463Y-106925506D01*
X113568498Y-107035820D01*
X113533862Y-107150000D01*
X112514087Y-107150000D01*
X112502812Y-107035518D01*
X112466502Y-106915820D01*
X112407537Y-106805506D01*
X112328185Y-106708815D01*
X112268704Y-106660000D01*
X112328185Y-106611185D01*
X112407537Y-106514494D01*
X112466502Y-106404180D01*
X112502812Y-106284482D01*
X112515072Y-106160000D01*
X112512000Y-105695750D01*
X112353250Y-105537000D01*
X111379000Y-105537000D01*
X111379000Y-105557000D01*
X111125000Y-105557000D01*
X111125000Y-105537000D01*
X110150750Y-105537000D01*
X109992000Y-105695750D01*
X109988928Y-106160000D01*
X110001188Y-106284482D01*
X110037498Y-106404180D01*
X110096463Y-106514494D01*
X110175815Y-106611185D01*
X110235296Y-106660000D01*
X110175815Y-106708815D01*
X110096463Y-106805506D01*
X110037498Y-106915820D01*
X110001188Y-107035518D01*
X109988928Y-107160000D01*
X109988928Y-108660000D01*
X110001188Y-108784482D01*
X110037498Y-108904180D01*
X110096463Y-109014494D01*
X110175815Y-109111185D01*
X110272506Y-109190537D01*
X110382820Y-109249502D01*
X110492000Y-109282622D01*
X110492001Y-110246849D01*
X110442102Y-110256774D01*
X110253744Y-110334795D01*
X110084226Y-110448063D01*
X109982000Y-110550289D01*
X109982000Y-104660000D01*
X109988928Y-104660000D01*
X109992000Y-105124250D01*
X110150750Y-105283000D01*
X111125000Y-105283000D01*
X111125000Y-104183750D01*
X111379000Y-104183750D01*
X111379000Y-105283000D01*
X112353250Y-105283000D01*
X112512000Y-105124250D01*
X112515072Y-104660000D01*
X112502812Y-104535518D01*
X112466502Y-104415820D01*
X112407537Y-104305506D01*
X112328185Y-104208815D01*
X112231494Y-104129463D01*
X112121180Y-104070498D01*
X112001482Y-104034188D01*
X111877000Y-104021928D01*
X111537750Y-104025000D01*
X111379000Y-104183750D01*
X111125000Y-104183750D01*
X110966250Y-104025000D01*
X110627000Y-104021928D01*
X110502518Y-104034188D01*
X110382820Y-104070498D01*
X110272506Y-104129463D01*
X110175815Y-104208815D01*
X110096463Y-104305506D01*
X110037498Y-104415820D01*
X110001188Y-104535518D01*
X109988928Y-104660000D01*
X109982000Y-104660000D01*
X109982000Y-97155000D01*
X109979560Y-97130224D01*
X109972333Y-97106399D01*
X109960597Y-97084443D01*
X109944803Y-97065197D01*
X109925557Y-97049403D01*
X109903601Y-97037667D01*
X109879776Y-97030440D01*
X109855000Y-97028000D01*
X102240000Y-97028000D01*
X102240000Y-95352891D01*
X108794519Y-95352891D01*
X108891843Y-95627252D01*
X109040822Y-95877355D01*
X109235731Y-96093588D01*
X109469080Y-96267641D01*
X109731901Y-96392825D01*
X109879110Y-96437476D01*
X110109000Y-96316155D01*
X110109000Y-95123000D01*
X108915186Y-95123000D01*
X108794519Y-95352891D01*
X102240000Y-95352891D01*
X102240000Y-94639109D01*
X108794519Y-94639109D01*
X108915186Y-94869000D01*
X110109000Y-94869000D01*
X110109000Y-93675845D01*
X109879110Y-93554524D01*
X109731901Y-93599175D01*
X109469080Y-93724359D01*
X109235731Y-93898412D01*
X109040822Y-94114645D01*
X108891843Y-94364748D01*
X108794519Y-94639109D01*
X102240000Y-94639109D01*
X102240000Y-89301320D01*
X108475248Y-89301320D01*
X108475248Y-91800680D01*
X108487508Y-91925162D01*
X108523818Y-92044860D01*
X108582783Y-92155174D01*
X108662135Y-92251865D01*
X108758826Y-92331217D01*
X108869140Y-92390182D01*
X108988838Y-92426492D01*
X109113320Y-92438752D01*
X111612680Y-92438752D01*
X111737162Y-92426492D01*
X111856860Y-92390182D01*
X111967174Y-92331217D01*
X112063865Y-92251865D01*
X112143217Y-92155174D01*
X112202182Y-92044860D01*
X112238492Y-91925162D01*
X112250752Y-91800680D01*
X112250752Y-89301320D01*
X148099248Y-89301320D01*
X148099248Y-91800680D01*
X148111508Y-91925162D01*
X148147818Y-92044860D01*
X148206783Y-92155174D01*
X148286135Y-92251865D01*
X148382826Y-92331217D01*
X148493140Y-92390182D01*
X148612838Y-92426492D01*
X148737320Y-92438752D01*
X151236680Y-92438752D01*
X151361162Y-92426492D01*
X151480860Y-92390182D01*
X151591174Y-92331217D01*
X151687865Y-92251865D01*
X151767217Y-92155174D01*
X151826182Y-92044860D01*
X151862492Y-91925162D01*
X151874752Y-91800680D01*
X151874752Y-89301320D01*
X151862492Y-89176838D01*
X151826182Y-89057140D01*
X151767217Y-88946826D01*
X151687865Y-88850135D01*
X151591174Y-88770783D01*
X151480860Y-88711818D01*
X151361162Y-88675508D01*
X151305237Y-88670000D01*
X154071928Y-88670000D01*
X154071928Y-91670000D01*
X154084188Y-91794482D01*
X154120498Y-91914180D01*
X154179463Y-92024494D01*
X154258815Y-92121185D01*
X154355506Y-92200537D01*
X154465820Y-92259502D01*
X154585518Y-92295812D01*
X154710000Y-92308072D01*
X157710000Y-92308072D01*
X157834482Y-92295812D01*
X157954180Y-92259502D01*
X158064494Y-92200537D01*
X158161185Y-92121185D01*
X158240537Y-92024494D01*
X158299502Y-91914180D01*
X158335812Y-91794482D01*
X158348072Y-91670000D01*
X158348072Y-88670000D01*
X158335812Y-88545518D01*
X158299502Y-88425820D01*
X158240537Y-88315506D01*
X158161185Y-88218815D01*
X158064494Y-88139463D01*
X157954180Y-88080498D01*
X157834482Y-88044188D01*
X157710000Y-88031928D01*
X154710000Y-88031928D01*
X154585518Y-88044188D01*
X154465820Y-88080498D01*
X154355506Y-88139463D01*
X154258815Y-88218815D01*
X154179463Y-88315506D01*
X154120498Y-88425820D01*
X154084188Y-88545518D01*
X154071928Y-88670000D01*
X151305237Y-88670000D01*
X151236680Y-88663248D01*
X148737320Y-88663248D01*
X148612838Y-88675508D01*
X148493140Y-88711818D01*
X148382826Y-88770783D01*
X148286135Y-88850135D01*
X148206783Y-88946826D01*
X148147818Y-89057140D01*
X148111508Y-89176838D01*
X148099248Y-89301320D01*
X112250752Y-89301320D01*
X112238492Y-89176838D01*
X112202182Y-89057140D01*
X112143217Y-88946826D01*
X112063865Y-88850135D01*
X111967174Y-88770783D01*
X111856860Y-88711818D01*
X111737162Y-88675508D01*
X111612680Y-88663248D01*
X109113320Y-88663248D01*
X108988838Y-88675508D01*
X108869140Y-88711818D01*
X108758826Y-88770783D01*
X108662135Y-88850135D01*
X108582783Y-88946826D01*
X108523818Y-89057140D01*
X108487508Y-89176838D01*
X108475248Y-89301320D01*
X102240000Y-89301320D01*
X102240000Y-85002000D01*
X103667928Y-85002000D01*
X103667928Y-86702000D01*
X103680188Y-86826482D01*
X103716498Y-86946180D01*
X103775463Y-87056494D01*
X103854815Y-87153185D01*
X103951506Y-87232537D01*
X104061820Y-87291502D01*
X104181518Y-87327812D01*
X104306000Y-87340072D01*
X106006000Y-87340072D01*
X106130482Y-87327812D01*
X106250180Y-87291502D01*
X106360494Y-87232537D01*
X106457185Y-87153185D01*
X106536537Y-87056494D01*
X106595502Y-86946180D01*
X106631812Y-86826482D01*
X106644072Y-86702000D01*
X106644072Y-85002000D01*
X106631812Y-84877518D01*
X106595502Y-84757820D01*
X106536537Y-84647506D01*
X106457185Y-84550815D01*
X106360494Y-84471463D01*
X106250180Y-84412498D01*
X106177620Y-84390487D01*
X106309475Y-84258632D01*
X106471990Y-84015411D01*
X106583932Y-83745158D01*
X106610872Y-83609721D01*
X154075000Y-83609721D01*
X154075000Y-84030279D01*
X154157047Y-84442756D01*
X154317988Y-84831302D01*
X154551637Y-85180983D01*
X154849017Y-85478363D01*
X155198698Y-85712012D01*
X155587244Y-85872953D01*
X155999721Y-85955000D01*
X156420279Y-85955000D01*
X156832756Y-85872953D01*
X157221302Y-85712012D01*
X157570983Y-85478363D01*
X157868363Y-85180983D01*
X158102012Y-84831302D01*
X158262953Y-84442756D01*
X158345000Y-84030279D01*
X158345000Y-83609721D01*
X158262953Y-83197244D01*
X158102012Y-82808698D01*
X157868363Y-82459017D01*
X157570983Y-82161637D01*
X157221302Y-81927988D01*
X156832756Y-81767047D01*
X156420279Y-81685000D01*
X155999721Y-81685000D01*
X155587244Y-81767047D01*
X155198698Y-81927988D01*
X154849017Y-82161637D01*
X154551637Y-82459017D01*
X154317988Y-82808698D01*
X154157047Y-83197244D01*
X154075000Y-83609721D01*
X106610872Y-83609721D01*
X106641000Y-83458260D01*
X106641000Y-83165740D01*
X106583932Y-82878842D01*
X106471990Y-82608589D01*
X106309475Y-82365368D01*
X106102632Y-82158525D01*
X105859411Y-81996010D01*
X105589158Y-81884068D01*
X105302260Y-81827000D01*
X105009740Y-81827000D01*
X104722842Y-81884068D01*
X104452589Y-81996010D01*
X104209368Y-82158525D01*
X104002525Y-82365368D01*
X103840010Y-82608589D01*
X103728068Y-82878842D01*
X103671000Y-83165740D01*
X103671000Y-83458260D01*
X103728068Y-83745158D01*
X103840010Y-84015411D01*
X104002525Y-84258632D01*
X104134380Y-84390487D01*
X104061820Y-84412498D01*
X103951506Y-84471463D01*
X103854815Y-84550815D01*
X103775463Y-84647506D01*
X103716498Y-84757820D01*
X103680188Y-84877518D01*
X103667928Y-85002000D01*
X102240000Y-85002000D01*
X102240000Y-80240000D01*
X154071928Y-80240000D01*
X154084188Y-80364482D01*
X154120498Y-80484180D01*
X154179463Y-80594494D01*
X154258815Y-80691185D01*
X154355506Y-80770537D01*
X154465820Y-80829502D01*
X154585518Y-80865812D01*
X154710000Y-80878072D01*
X155924250Y-80875000D01*
X156083000Y-80716250D01*
X156083000Y-78867000D01*
X156337000Y-78867000D01*
X156337000Y-80716250D01*
X156495750Y-80875000D01*
X157710000Y-80878072D01*
X157834482Y-80865812D01*
X157954180Y-80829502D01*
X158064494Y-80770537D01*
X158161185Y-80691185D01*
X158240537Y-80594494D01*
X158299502Y-80484180D01*
X158335812Y-80364482D01*
X158348072Y-80240000D01*
X158345000Y-79025750D01*
X158186250Y-78867000D01*
X156337000Y-78867000D01*
X156083000Y-78867000D01*
X154233750Y-78867000D01*
X154075000Y-79025750D01*
X154071928Y-80240000D01*
X102240000Y-80240000D01*
X102240000Y-76014344D01*
X104795000Y-76014344D01*
X104795000Y-76385656D01*
X104867439Y-76749834D01*
X105009534Y-77092882D01*
X105215825Y-77401618D01*
X105478382Y-77664175D01*
X105787118Y-77870466D01*
X106130166Y-78012561D01*
X106494344Y-78085000D01*
X106865656Y-78085000D01*
X107229834Y-78012561D01*
X107572882Y-77870466D01*
X107881618Y-77664175D01*
X108144175Y-77401618D01*
X108252164Y-77240000D01*
X154071928Y-77240000D01*
X154075000Y-78454250D01*
X154233750Y-78613000D01*
X156083000Y-78613000D01*
X156083000Y-76763750D01*
X156337000Y-76763750D01*
X156337000Y-78613000D01*
X158186250Y-78613000D01*
X158345000Y-78454250D01*
X158348072Y-77240000D01*
X158335812Y-77115518D01*
X158299502Y-76995820D01*
X158240537Y-76885506D01*
X158161185Y-76788815D01*
X158064494Y-76709463D01*
X157954180Y-76650498D01*
X157834482Y-76614188D01*
X157710000Y-76601928D01*
X156495750Y-76605000D01*
X156337000Y-76763750D01*
X156083000Y-76763750D01*
X155924250Y-76605000D01*
X154710000Y-76601928D01*
X154585518Y-76614188D01*
X154465820Y-76650498D01*
X154355506Y-76709463D01*
X154258815Y-76788815D01*
X154179463Y-76885506D01*
X154120498Y-76995820D01*
X154084188Y-77115518D01*
X154071928Y-77240000D01*
X108252164Y-77240000D01*
X108350466Y-77092882D01*
X108492561Y-76749834D01*
X108565000Y-76385656D01*
X108565000Y-76014344D01*
X108492561Y-75650166D01*
X108350466Y-75307118D01*
X108144175Y-74998382D01*
X107881618Y-74735825D01*
X107572882Y-74529534D01*
X107570821Y-74528680D01*
X108475248Y-74528680D01*
X108487508Y-74653162D01*
X108523818Y-74772860D01*
X108582783Y-74883174D01*
X108662135Y-74979865D01*
X108758826Y-75059217D01*
X108869140Y-75118182D01*
X108988838Y-75154492D01*
X109113320Y-75166752D01*
X110077250Y-75163680D01*
X110236000Y-75004930D01*
X110236000Y-73406000D01*
X110490000Y-73406000D01*
X110490000Y-75004930D01*
X110648750Y-75163680D01*
X111612680Y-75166752D01*
X111737162Y-75154492D01*
X111856860Y-75118182D01*
X111967174Y-75059217D01*
X112063865Y-74979865D01*
X112143217Y-74883174D01*
X112202182Y-74772860D01*
X112238492Y-74653162D01*
X112250752Y-74528680D01*
X148099248Y-74528680D01*
X148111508Y-74653162D01*
X148147818Y-74772860D01*
X148206783Y-74883174D01*
X148286135Y-74979865D01*
X148382826Y-75059217D01*
X148493140Y-75118182D01*
X148612838Y-75154492D01*
X148737320Y-75166752D01*
X149701250Y-75163680D01*
X149860000Y-75004930D01*
X149860000Y-73406000D01*
X150114000Y-73406000D01*
X150114000Y-75004930D01*
X150272750Y-75163680D01*
X151236680Y-75166752D01*
X151361162Y-75154492D01*
X151480860Y-75118182D01*
X151591174Y-75059217D01*
X151687865Y-74979865D01*
X151767217Y-74883174D01*
X151826182Y-74772860D01*
X151862492Y-74653162D01*
X151874752Y-74528680D01*
X151871680Y-73564750D01*
X151712930Y-73406000D01*
X150114000Y-73406000D01*
X149860000Y-73406000D01*
X148261070Y-73406000D01*
X148102320Y-73564750D01*
X148099248Y-74528680D01*
X112250752Y-74528680D01*
X112247680Y-73564750D01*
X112088930Y-73406000D01*
X110490000Y-73406000D01*
X110236000Y-73406000D01*
X108637070Y-73406000D01*
X108478320Y-73564750D01*
X108475248Y-74528680D01*
X107570821Y-74528680D01*
X107229834Y-74387439D01*
X106865656Y-74315000D01*
X106494344Y-74315000D01*
X106130166Y-74387439D01*
X105787118Y-74529534D01*
X105478382Y-74735825D01*
X105215825Y-74998382D01*
X105009534Y-75307118D01*
X104867439Y-75650166D01*
X104795000Y-76014344D01*
X102240000Y-76014344D01*
X102240000Y-71760000D01*
X108537256Y-71760000D01*
X108523818Y-71785140D01*
M02*
