M48
; DRILL file {KiCad (5.1.5)-3} date 09.04.2020 15:06:38
; FORMAT={-:-/ absolute / inch / decimal}
; #@! TF.CreationDate,2020-04-09T15:06:38+03:00
; #@! TF.GenerationSoftware,Kicad,Pcbnew,(5.1.5)-3
FMAT,2
INCH
T1C0.0157
T2C0.0315
T3C0.0394
T4C0.0433
T5C0.0590
T6C0.0598
T7C0.0984
%
G90
G05
T1
X4.36Y-4.38
X4.52Y-4.36
X4.6Y-4.375
X4.675Y-4.35
X4.68Y-4.02
X4.76Y-4.36
X4.825Y-4.05
X4.86Y-4.4
X5.125Y-4.225
T2
X5.25Y-4.075
X5.25Y-4.175
X5.25Y-4.275
X5.25Y-4.375
X5.55Y-4.075
X5.55Y-4.175
X5.55Y-4.275
X5.55Y-4.375
T3
X5.9Y-4.025
X5.9Y-4.125
X5.9Y-4.225
X5.675Y-3.8
X5.775Y-3.8
X5.875Y-3.8
X4.34Y-3.74
X4.44Y-3.74
X4.54Y-3.74
X4.64Y-3.74
X5.38Y-4.575
X5.38Y-4.675
X5.48Y-4.575
X5.48Y-4.675
X5.58Y-4.575
X5.58Y-4.675
X4.14Y-3.28
X4.14Y-3.38
X5.9Y-4.45
X5.9Y-4.55
X5.9Y-4.65
X4.88Y-4.66
X4.98Y-4.66
X4.22Y-4.66
X4.32Y-4.66
X4.42Y-4.66
X4.52Y-4.66
X4.62Y-4.66
X4.72Y-4.66
T4
X5.2Y-3.725
X5.2Y-3.9022
X5.4559Y-3.725
X5.4559Y-3.9022
T5
X4.345Y-2.885
X4.345Y-3.565
X5.905Y-2.885
X5.905Y-3.565
T6
X6.15Y-3.1
X6.15Y-3.3
X6.15Y-3.55
X6.15Y-3.75
X6.15Y-3.95
X6.15Y-4.15
X6.15Y-4.35
T7
X4.2Y-3.0
X6.15Y-4.575
T0
M30
